{"glyphs":{"0":{"ha":806,"x_min":81,"x_max":725,"o":"m 404 804 q 638 699 550 804 q 725 401 725 594 q 636 97 725 213 q 404 -18 547 -18 q 170 94 260 -18 q 81 400 81 207 q 170 696 81 588 q 404 804 260 804 m 404 47 q 576 144 507 47 q 644 397 644 242 q 578 649 644 558 q 404 739 511 739 q 230 649 299 739 q 161 404 161 558 q 229 144 161 242 q 404 47 297 47 z "},"1":{"ha":518,"x_min":81,"x_max":449,"o":"m 449 0 l 93 0 l 81 61 l 233 61 l 233 692 l 117 613 l 85 668 l 258 786 l 311 786 l 311 61 l 439 61 l 449 0 z "},"2":{"ha":672,"x_min":42,"x_max":604,"o":"m 571 576 q 517 429 571 499 q 364 272 464 360 l 129 61 l 593 61 l 604 0 l 42 0 l 42 69 l 326 331 q 453 463 417 413 q 489 575 489 513 q 444 692 489 644 q 308 740 400 740 q 181 709 239 740 q 122 676 124 678 l 88 732 q 153 768 89 732 q 311 804 217 804 q 512 729 453 804 q 571 576 571 654 z "},"3":{"ha":685,"x_min":35,"x_max":603,"o":"m 586 579 q 540 449 586 504 q 428 372 493 393 q 554 293 506 354 q 603 147 603 232 q 521 -33 603 40 q 299 -106 439 -106 q 151 -83 221 -106 q 35 -33 82 -60 l 81 21 q 178 -25 129 -8 q 303 -42 226 -42 q 454 9 386 -42 q 522 144 522 60 q 458 287 522 233 q 249 340 393 340 l 224 340 l 210 399 l 257 399 q 440 449 374 399 q 506 578 506 499 q 454 690 506 639 q 315 740 403 740 q 183 717 240 740 q 93 672 126 694 l 50 722 q 170 781 104 757 q 319 804 236 804 q 519 735 453 804 q 586 579 586 667 z "},"4":{"ha":740,"x_min":28,"x_max":697,"o":"m 686 103 l 544 103 l 544 -96 l 467 -96 l 467 103 l 40 103 l 28 174 l 496 793 l 544 793 l 544 165 l 697 165 l 686 103 m 110 165 l 467 165 l 467 643 l 110 165 z "},"5":{"ha":724,"x_min":69,"x_max":646,"o":"m 119 319 l 140 786 l 592 786 l 585 722 l 214 722 l 199 404 q 278 444 236 431 q 357 458 321 458 q 578 376 510 458 q 646 181 646 293 q 564 -20 646 65 q 325 -106 482 -106 q 183 -83 249 -106 q 69 -35 118 -61 l 108 21 q 209 -25 157 -8 q 331 -42 261 -42 q 501 19 439 -42 q 564 181 564 81 q 509 338 564 281 q 363 394 454 394 q 260 369 307 394 q 189 319 214 344 l 119 319 z "},"6":{"ha":726,"x_min":81,"x_max":661,"o":"m 506 832 q 284 685 378 797 q 164 432 190 574 q 260 508 199 478 q 385 538 321 538 q 588 453 515 538 q 661 264 661 369 q 585 69 661 156 q 386 -18 508 -18 q 165 79 249 -18 q 81 361 81 176 q 189 676 81 514 q 471 881 297 839 l 506 832 m 385 474 q 250 433 308 474 q 161 344 192 393 q 217 131 163 214 q 383 47 272 47 q 530 113 476 47 q 583 257 583 178 q 531 409 583 344 q 385 474 478 474 z "},"7":{"ha":653,"x_min":57,"x_max":611,"o":"m 79 -68 l 522 722 l 68 722 l 57 786 l 581 786 l 611 746 l 153 -96 l 79 -68 z "},"8":{"ha":750,"x_min":74,"x_max":676,"o":"m 638 668 q 590 547 638 597 q 488 471 543 496 q 619 388 561 453 q 676 235 676 322 q 600 58 676 135 q 375 -18 524 -18 q 149 56 225 -18 q 74 235 74 131 q 129 381 74 310 q 264 471 185 453 q 156 547 200 496 q 113 668 113 599 q 177 824 113 756 q 375 893 242 893 q 574 823 510 893 q 638 668 638 753 m 190 668 q 238 561 190 610 q 375 500 286 513 q 511 563 463 513 q 560 668 560 613 q 514 781 560 732 q 371 829 468 829 q 234 779 278 829 q 190 668 190 729 m 153 228 q 217 97 153 149 q 375 46 281 46 q 531 97 465 46 q 596 228 596 147 q 540 366 596 307 q 375 439 485 425 q 208 366 264 425 q 153 228 153 307 z "},"9":{"ha":726,"x_min":64,"x_max":644,"o":"m 340 247 q 137 331 210 247 q 64 521 64 415 q 140 716 64 629 q 339 803 217 803 q 560 706 476 803 q 644 422 644 608 q 536 108 644 269 q 254 -96 428 -54 l 219 -46 q 442 99 349 -14 q 561 353 535 211 q 465 278 526 308 q 340 247 403 247 m 342 739 q 196 673 249 739 q 143 528 143 607 q 195 376 143 440 q 340 311 247 311 q 475 352 417 311 q 564 440 533 393 q 507 655 561 571 q 342 739 453 739 z "},"\u0000":{"ha":0,"x_min":0,"x_max":0,"o":""},"\r":{"ha":0,"x_min":0,"x_max":0,"o":""}," ":{"ha":324,"x_min":0,"x_max":0,"o":""}," ":{"ha":324,"x_min":0,"x_max":0,"o":""},"‌":{"ha":0,"x_min":-39,"x_max":38,"o":"m -39 1718 l 38 1718 l 38 -94 l -39 -94 l -39 1718 z "},"‍":{"ha":0,"x_min":-157,"x_max":158,"o":"m 103 1833 l 158 1778 l 56 1675 l 158 1572 l 104 1518 l 38 1579 l 38 -94 l -39 -94 l -39 1578 l -103 1518 l -157 1572 l -54 1675 l -157 1778 l -101 1833 l 0 1731 l 103 1833 z "},"◌":{"ha":933,"x_min":69,"x_max":864,"o":"m 421 753 q 433 785 421 772 q 465 799 446 799 q 498 785 485 799 q 511 753 511 772 q 498 721 511 733 q 465 708 485 708 q 433 721 446 708 q 421 753 421 733 m 560 729 q 572 762 560 749 q 604 775 585 775 q 637 762 624 775 q 650 729 650 749 q 637 697 650 710 q 604 685 624 685 q 572 697 585 685 q 560 729 560 710 m 374 729 q 361 697 374 710 q 329 685 349 685 q 297 697 310 685 q 283 729 283 710 q 297 762 283 749 q 329 775 310 775 q 361 762 349 775 q 374 729 374 749 m 678 651 q 690 684 678 671 q 722 697 703 697 q 755 684 742 697 q 768 651 768 671 q 755 619 768 632 q 722 607 742 607 q 690 619 703 607 q 678 651 678 632 m 256 651 q 243 619 256 632 q 211 607 231 607 q 178 619 192 607 q 165 651 165 632 q 178 684 165 671 q 211 697 192 697 q 243 684 231 697 q 256 651 256 671 m 751 529 q 764 562 751 549 q 796 575 776 575 q 828 562 815 575 q 842 529 842 549 q 828 497 842 510 q 796 485 815 485 q 764 497 776 485 q 751 529 751 510 m 182 529 q 169 497 182 510 q 138 485 157 485 q 105 497 118 485 q 92 529 92 510 q 105 562 92 549 q 138 575 118 575 q 169 562 157 575 q 182 529 182 549 m 774 397 q 786 430 774 417 q 818 443 799 443 q 851 430 838 443 q 864 397 864 417 q 851 365 864 378 q 818 353 838 353 q 786 365 799 353 q 774 397 774 378 m 160 397 q 147 365 160 378 q 115 353 135 353 q 83 365 96 353 q 69 397 69 378 q 83 430 69 417 q 115 443 96 443 q 147 430 135 443 q 160 397 160 417 m 751 268 q 764 301 751 288 q 796 314 776 314 q 828 301 815 314 q 842 268 842 288 q 828 236 842 249 q 796 224 815 224 q 764 236 776 224 q 751 268 751 249 m 182 268 q 169 236 182 249 q 138 224 157 224 q 105 236 118 224 q 92 268 92 249 q 105 301 92 288 q 138 314 118 314 q 169 301 157 314 q 182 268 182 288 m 679 144 q 692 177 679 164 q 724 190 704 190 q 756 177 743 190 q 769 144 769 164 q 756 113 769 125 q 724 100 743 100 q 692 113 704 100 q 679 144 679 125 m 254 144 q 242 113 254 125 q 210 100 229 100 q 177 113 190 100 q 164 144 164 125 q 177 177 164 164 q 210 190 190 190 q 242 177 229 190 q 254 144 254 164 m 374 68 q 361 36 374 49 q 329 24 349 24 q 297 36 310 24 q 283 68 283 49 q 297 101 283 88 q 329 114 310 114 q 361 101 349 114 q 374 68 374 88 m 560 68 q 572 101 560 88 q 604 114 585 114 q 637 101 624 114 q 650 68 650 88 q 637 36 650 49 q 604 24 624 24 q 572 36 585 24 q 560 68 560 49 m 421 44 q 433 77 421 64 q 465 90 446 90 q 498 77 485 90 q 511 44 511 64 q 498 13 511 25 q 465 0 485 0 q 433 13 446 0 q 421 44 421 25 z "},"A":{"ha":817,"x_min":18,"x_max":799,"o":"m 400 843 l 219 351 l 588 351 l 400 843 m 438 944 l 799 14 l 721 0 l 610 289 l 199 289 l 93 0 l 18 0 l 361 944 l 438 944 z "},"B":{"ha":825,"x_min":142,"x_max":747,"o":"m 142 0 l 142 944 l 340 944 q 585 892 489 944 q 681 699 681 840 q 646 579 681 628 q 554 503 611 531 q 694 418 640 476 q 747 261 747 360 q 642 56 747 113 q 392 0 538 0 l 142 0 m 350 881 l 219 881 l 219 521 l 346 521 q 528 560 454 522 q 601 697 601 597 q 533 843 601 806 q 350 881 464 881 m 417 458 l 219 458 l 219 63 l 401 63 q 590 106 513 63 q 668 258 668 149 q 599 411 668 364 q 417 458 531 458 z "},"C":{"ha":811,"x_min":96,"x_max":733,"o":"m 504 896 q 268 776 356 894 q 181 468 181 658 q 256 174 181 299 q 492 49 331 49 q 615 61 567 49 q 700 90 663 74 l 733 32 q 625 -4 694 11 q 496 -19 556 -19 q 188 127 279 -19 q 96 467 96 274 q 198 819 96 674 q 504 964 300 964 q 621 951 547 964 q 733 913 694 939 l 706 856 q 621 885 663 874 q 504 896 579 896 z "},"D":{"ha":938,"x_min":142,"x_max":840,"o":"m 142 0 l 142 944 l 438 944 q 748 808 656 944 q 840 478 840 671 q 738 140 840 281 q 429 0 636 0 l 142 0 m 446 881 l 219 881 l 219 63 l 432 63 q 672 178 581 63 q 764 476 764 294 q 685 763 764 644 q 446 881 607 881 z "},"E":{"ha":721,"x_min":142,"x_max":672,"o":"m 142 0 l 142 944 l 633 944 l 640 886 l 219 886 l 219 513 l 497 513 l 504 454 l 219 454 l 219 61 l 664 61 l 672 0 l 142 0 z "},"F":{"ha":663,"x_min":142,"x_max":628,"o":"m 490 449 l 219 449 l 219 0 l 142 0 l 142 944 l 618 944 l 628 886 l 219 886 l 219 507 l 482 507 l 490 449 z "},"G":{"ha":893,"x_min":96,"x_max":782,"o":"m 501 475 l 782 475 l 782 43 q 670 -1 743 17 q 538 -19 597 -19 q 209 120 322 -19 q 96 467 96 260 q 219 825 96 686 q 546 964 343 964 q 663 951 589 964 q 776 913 738 939 l 750 857 q 665 886 707 875 q 549 897 622 897 q 283 779 386 897 q 181 460 181 661 q 278 159 181 269 q 536 49 375 49 q 628 58 586 49 q 706 81 671 68 l 706 417 l 493 417 l 501 475 z "},"H":{"ha":907,"x_min":142,"x_max":764,"o":"m 688 0 l 688 447 l 219 447 l 219 0 l 142 0 l 142 944 l 219 951 l 219 508 l 688 508 l 688 944 l 764 944 l 764 0 l 688 0 z "},"I":{"ha":361,"x_min":142,"x_max":219,"o":"m 142 0 l 142 944 l 219 944 l 219 0 l 142 0 z "},"J":{"ha":361,"x_min":28,"x_max":225,"o":"m 149 186 l 149 944 l 225 944 l 225 169 q 193 43 225 86 q 61 -31 161 0 l 28 21 q 123 75 97 47 q 149 186 149 103 z "},"K":{"ha":821,"x_min":142,"x_max":807,"o":"m 717 917 l 383 547 l 807 0 l 713 0 l 333 492 l 219 365 l 219 0 l 142 0 l 142 944 l 219 944 l 219 458 l 665 965 l 717 917 z "},"L":{"ha":693,"x_min":142,"x_max":664,"o":"m 664 0 l 142 0 l 142 944 l 219 944 l 219 61 l 657 61 l 664 0 z "},"M":{"ha":1043,"x_min":142,"x_max":901,"o":"m 510 329 l 219 769 l 219 0 l 142 0 l 142 944 l 182 944 l 521 444 l 854 944 l 901 944 l 901 0 l 824 0 l 824 776 l 538 335 l 510 329 z "},"N":{"ha":944,"x_min":142,"x_max":804,"o":"m 142 0 l 142 944 l 190 944 l 679 249 l 726 167 l 726 944 l 804 944 l 804 0 l 757 0 l 239 747 l 219 788 l 219 0 l 142 0 z "},"O":{"ha":996,"x_min":96,"x_max":900,"o":"m 900 479 q 797 132 900 283 q 494 -19 694 -19 q 190 128 283 -19 q 96 468 96 276 q 200 821 96 675 q 503 967 304 967 q 806 819 713 967 q 900 479 900 672 m 492 47 q 728 171 640 47 q 815 478 815 294 q 741 773 815 647 q 504 899 667 899 q 268 775 356 899 q 181 469 181 651 q 256 174 181 300 q 492 47 331 47 z "},"P":{"ha":790,"x_min":142,"x_max":718,"o":"m 142 0 l 142 944 l 378 944 q 622 879 525 944 q 718 660 718 814 q 614 437 718 507 q 363 367 510 367 l 219 367 l 219 0 l 142 0 m 388 879 l 219 879 l 219 431 l 372 431 q 561 485 483 431 q 639 658 639 540 q 570 830 639 781 q 388 879 501 879 z "},"Q":{"ha":996,"x_min":96,"x_max":900,"o":"m 900 479 q 871 280 900 375 q 783 115 842 185 l 882 19 q 858 0 871 10 q 835 -19 846 -10 l 739 69 q 630 5 692 29 q 494 -19 568 -19 q 190 128 283 -19 q 96 468 96 276 q 200 821 96 675 q 503 967 304 967 q 806 819 713 967 q 900 479 900 672 m 492 47 q 597 66 549 47 q 683 121 646 85 l 539 258 l 593 304 l 728 171 q 792 307 769 228 q 815 478 815 386 q 741 773 815 647 q 504 899 667 899 q 268 775 356 899 q 181 469 181 651 q 256 174 181 300 q 492 47 331 47 z "},"R":{"ha":850,"x_min":142,"x_max":793,"o":"m 381 879 l 219 879 l 219 460 l 365 460 q 555 507 471 460 q 639 672 639 554 q 564 836 639 793 q 381 879 489 879 m 718 675 q 669 517 717 578 q 547 428 622 457 l 793 0 l 706 0 l 481 407 q 422 399 451 401 q 363 397 393 397 l 219 397 l 219 0 l 142 0 l 142 944 l 378 944 q 622 884 525 944 q 718 675 718 824 z "},"S":{"ha":740,"x_min":82,"x_max":667,"o":"m 344 46 q 527 98 464 46 q 590 222 590 150 q 336 458 590 379 q 82 739 82 538 q 160 902 82 838 q 372 967 239 967 q 503 950 442 967 q 606 913 564 933 l 575 854 q 493 886 539 871 q 375 901 447 901 q 217 855 275 901 q 158 736 158 808 q 413 497 158 574 q 667 219 667 419 q 583 49 667 115 q 346 -18 500 -18 q 201 1 286 -18 q 93 40 117 19 l 114 100 q 213 64 150 82 q 344 46 275 46 z "},"T":{"ha":714,"x_min":21,"x_max":692,"o":"m 692 883 l 394 883 l 394 0 l 317 0 l 317 883 l 21 883 l 21 944 l 685 944 l 692 883 z "},"U":{"ha":926,"x_min":128,"x_max":799,"o":"m 463 49 q 653 132 586 49 q 721 336 721 215 l 721 944 l 799 944 l 799 332 q 711 82 799 181 q 463 -17 624 -17 q 215 82 303 -17 q 128 332 128 181 l 128 944 l 204 944 l 204 336 q 274 132 204 215 q 463 49 343 49 z "},"V":{"ha":817,"x_min":18,"x_max":799,"o":"m 378 0 l 18 929 l 94 944 l 415 100 l 724 944 l 799 944 l 456 0 l 378 0 z "},"W":{"ha":1318,"x_min":18,"x_max":1301,"o":"m 928 0 l 657 817 l 399 0 l 321 0 l 18 929 l 94 944 l 358 108 l 622 944 l 697 944 l 965 108 l 1225 944 l 1301 944 l 1006 0 l 928 0 z "},"X":{"ha":844,"x_min":28,"x_max":817,"o":"m 28 0 l 374 479 l 53 929 l 136 944 l 433 525 l 732 944 l 817 944 l 475 464 l 807 0 l 718 0 l 417 422 l 107 -14 l 28 0 z "},"Y":{"ha":751,"x_min":11,"x_max":742,"o":"m 333 0 l 335 378 l 11 929 l 94 944 l 372 456 l 656 944 l 742 944 l 411 386 l 411 0 l 333 0 z "},"Z":{"ha":753,"x_min":38,"x_max":710,"o":"m 689 0 l 46 0 l 38 69 l 632 883 l 89 883 l 75 944 l 703 944 l 710 876 l 119 61 l 682 61 l 689 0 z "},"a":{"ha":681,"x_min":72,"x_max":576,"o":"m 300 46 q 415 78 365 46 q 500 157 465 111 l 500 336 l 314 336 q 190 292 231 336 q 150 189 150 249 q 188 90 150 133 q 300 46 225 46 m 335 692 q 513 631 450 692 q 576 472 576 571 l 576 0 l 529 0 l 504 72 q 415 9 471 36 q 299 -18 360 -18 q 128 42 185 -18 q 72 189 72 101 q 140 338 72 285 q 313 390 207 390 l 500 390 l 500 465 q 460 581 500 535 q 339 626 421 626 q 226 612 268 626 q 146 579 185 597 l 119 633 q 226 676 158 660 q 335 692 293 692 z "},"b":{"ha":738,"x_min":114,"x_max":667,"o":"m 114 0 l 114 967 l 190 981 l 190 617 q 281 670 232 649 q 378 692 331 692 q 597 591 526 692 q 667 336 667 490 q 597 82 667 182 q 378 -18 526 -18 q 277 3 329 -18 q 182 60 225 25 l 161 0 l 114 0 m 376 47 q 540 130 490 47 q 589 335 589 213 q 540 542 589 458 q 376 626 490 626 q 284 606 335 626 q 190 544 233 585 l 190 128 q 284 67 233 88 q 376 47 335 47 z "},"c":{"ha":633,"x_min":69,"x_max":568,"o":"m 363 -18 q 142 83 214 -18 q 69 340 69 183 q 147 592 69 492 q 372 692 224 692 q 470 676 413 692 q 568 633 528 660 l 540 579 q 471 611 506 596 q 368 626 436 626 q 203 543 257 626 q 149 342 149 460 q 198 132 149 218 q 361 46 247 46 q 465 60 432 46 q 533 93 497 75 l 561 39 q 463 -3 519 13 q 363 -18 406 -18 z "},"d":{"ha":738,"x_min":69,"x_max":624,"o":"m 361 626 q 198 543 247 626 q 149 338 149 460 q 198 131 149 214 q 361 47 247 47 q 453 67 403 47 q 546 128 503 88 l 546 544 q 453 606 503 585 q 361 626 403 626 m 624 979 l 624 0 l 576 0 l 554 60 q 459 3 511 25 q 358 -18 407 -18 q 140 81 211 -18 q 69 335 69 181 q 140 591 69 490 q 358 692 211 692 q 455 670 404 692 q 546 617 506 649 l 546 967 l 624 979 z "},"e":{"ha":707,"x_min":69,"x_max":640,"o":"m 640 333 l 149 333 q 205 128 150 213 q 385 44 260 44 q 503 59 458 44 q 583 92 549 74 l 613 35 q 502 -5 571 8 q 393 -18 433 -18 q 149 83 228 -18 q 69 340 69 183 q 145 592 69 492 q 369 692 221 692 q 572 590 503 692 q 640 333 640 488 m 363 626 q 212 557 263 626 q 151 389 161 488 l 561 389 q 507 557 551 488 q 363 626 463 626 z "},"f":{"ha":389,"x_min":33,"x_max":382,"o":"m 33 656 l 135 656 l 135 782 q 175 922 135 869 q 290 975 215 975 q 343 969 318 975 q 382 957 368 963 l 365 894 q 340 903 357 899 q 308 907 322 907 q 234 875 256 907 q 213 793 213 843 l 213 656 l 335 656 l 364 597 l 213 597 l 213 0 l 135 0 l 135 597 l 33 597 l 33 656 z "},"g":{"ha":738,"x_min":69,"x_max":624,"o":"m 361 626 q 198 543 247 626 q 149 338 149 460 q 198 131 149 214 q 361 47 247 47 q 453 67 403 47 q 546 128 503 88 l 546 544 q 453 606 503 585 q 361 626 403 626 m 361 -307 q 253 -292 321 -307 q 146 -250 185 -276 l 172 -194 q 252 -228 214 -212 q 358 -243 290 -243 q 494 -203 443 -243 q 546 -81 546 -164 l 546 56 q 455 2 506 22 q 358 -18 404 -18 q 140 81 211 -18 q 69 335 69 181 q 140 591 69 490 q 358 692 211 692 q 459 669 407 692 q 553 611 511 646 l 576 674 l 624 674 l 624 -74 q 558 -240 624 -174 q 361 -307 493 -307 z "},"h":{"ha":742,"x_min":114,"x_max":638,"o":"m 114 0 l 114 967 l 190 981 l 190 571 q 299 656 233 619 q 428 692 365 692 q 587 628 536 692 q 638 468 638 565 l 638 1 l 560 1 l 560 460 q 526 577 560 529 q 418 626 492 625 q 306 593 374 626 q 190 500 238 560 l 190 0 l 114 0 z "},"i":{"ha":311,"x_min":96,"x_max":215,"o":"m 96 886 q 113 928 96 911 q 156 944 129 944 q 197 928 179 944 q 215 886 215 911 q 197 843 215 860 q 156 826 179 826 q 113 843 129 826 q 96 886 96 860 m 117 0 l 117 674 l 194 674 l 194 0 l 117 0 z "},"j":{"ha":311,"x_min":-17,"x_max":215,"o":"m 96 886 q 113 928 96 911 q 156 944 129 944 q 197 928 179 944 q 215 886 215 911 q 197 843 215 860 q 156 826 179 826 q 113 843 129 826 q 96 886 96 860 m 117 -76 l 117 674 l 194 674 l 194 -86 q 153 -223 194 -174 q 13 -304 113 -272 l -17 -250 q 84 -189 51 -224 q 117 -76 117 -154 z "},"k":{"ha":649,"x_min":114,"x_max":635,"o":"m 114 0 l 114 967 l 190 981 l 190 368 l 503 692 l 556 644 l 343 429 l 635 0 l 542 0 l 292 378 l 190 275 l 190 0 l 114 0 z "},"l":{"ha":304,"x_min":114,"x_max":190,"o":"m 114 0 l 114 967 l 190 981 l 190 0 l 114 0 z "},"m":{"ha":1136,"x_min":114,"x_max":1032,"o":"m 114 0 l 114 674 l 161 674 l 189 592 q 291 663 232 633 q 406 692 350 692 q 524 661 479 692 q 592 579 569 631 q 699 658 635 625 q 822 692 763 692 q 982 628 932 692 q 1032 468 1032 565 l 1032 0 l 954 0 l 954 460 q 919 577 954 529 q 813 626 885 625 q 712 599 765 626 q 611 519 658 571 q 613 497 613 507 q 614 476 614 488 l 614 0 l 536 0 l 536 460 q 503 577 536 529 q 397 626 469 625 q 293 598 349 626 q 190 514 238 569 l 190 0 l 114 0 z "},"n":{"ha":742,"x_min":114,"x_max":638,"o":"m 114 0 l 114 674 l 161 674 l 189 568 q 299 655 232 618 q 428 692 365 692 q 587 628 536 692 q 638 468 638 565 l 638 0 l 560 0 l 560 460 q 526 577 560 529 q 418 626 492 625 q 306 593 374 626 q 190 500 238 560 l 190 0 l 114 0 z "},"o":{"ha":711,"x_min":69,"x_max":642,"o":"m 69 340 q 143 590 71 489 q 360 692 215 692 q 575 590 508 692 q 642 332 642 488 q 567 81 642 179 q 346 -18 492 -18 q 135 85 200 -17 q 69 340 69 188 m 363 628 q 200 544 251 628 q 149 342 149 460 q 192 132 149 218 q 347 46 235 46 q 512 128 460 46 q 564 332 564 211 q 520 540 564 453 q 363 628 476 628 z "},"p":{"ha":738,"x_min":114,"x_max":667,"o":"m 376 47 q 540 130 490 47 q 589 335 589 213 q 540 542 589 458 q 376 626 490 626 q 284 606 335 626 q 190 544 233 585 l 190 128 q 284 67 233 88 q 376 47 335 47 m 114 -304 l 114 674 l 161 674 l 182 611 q 277 668 225 644 q 378 692 329 692 q 597 591 526 692 q 667 336 667 490 q 597 82 667 182 q 378 -18 526 -18 q 281 2 331 -18 q 190 56 232 22 l 190 -289 l 114 -304 z "},"q":{"ha":738,"x_min":69,"x_max":624,"o":"m 624 674 l 624 -289 l 546 -304 l 546 56 q 455 2 506 22 q 358 -18 404 -18 q 140 81 211 -18 q 69 335 69 181 q 140 591 69 490 q 358 692 211 692 q 459 668 407 692 q 554 611 511 644 l 576 674 l 624 674 m 361 626 q 198 543 247 626 q 149 338 149 460 q 198 131 149 214 q 361 47 247 47 q 453 67 403 47 q 546 128 503 88 l 546 544 q 453 606 503 585 q 361 626 403 626 z "},"r":{"ha":438,"x_min":114,"x_max":417,"o":"m 114 0 l 114 674 l 161 674 l 186 581 q 281 642 222 611 q 393 674 340 674 l 417 613 q 291 578 353 613 q 190 501 229 544 l 190 0 l 114 0 z "},"s":{"ha":610,"x_min":78,"x_max":540,"o":"m 288 46 q 418 77 371 46 q 465 165 465 108 q 413 251 465 214 q 288 314 361 288 q 144 388 208 342 q 81 506 81 433 q 143 640 81 589 q 319 692 206 692 q 422 676 363 692 q 517 636 482 661 l 489 579 q 419 610 461 593 q 314 626 376 626 q 200 593 243 626 q 157 511 157 560 q 206 433 157 464 q 326 375 256 401 q 474 295 408 344 q 540 171 540 246 q 477 32 540 82 q 285 -18 414 -18 q 180 -5 243 -18 q 78 35 117 8 l 104 96 q 188 62 140 78 q 288 46 235 46 z "},"t":{"ha":414,"x_min":26,"x_max":372,"o":"m 356 597 l 204 597 l 204 171 q 226 84 204 121 q 299 47 247 47 q 331 52 314 47 q 356 60 349 57 l 372 -1 q 334 -11 358 -4 q 281 -18 310 -18 q 169 28 211 -18 q 126 161 126 74 l 126 597 l 26 597 l 26 656 l 126 656 l 126 835 l 204 865 l 204 656 l 326 656 l 356 597 z "},"u":{"ha":713,"x_min":104,"x_max":600,"o":"m 600 674 l 600 0 l 550 0 l 524 76 q 424 10 481 38 q 314 -17 368 -17 q 153 46 203 -17 q 104 208 104 108 l 104 674 l 181 674 l 181 213 q 215 97 181 144 q 321 49 250 49 q 417 73 360 49 q 522 143 474 97 l 522 674 l 600 674 z "},"v":{"ha":628,"x_min":21,"x_max":607,"o":"m 281 0 l 21 660 l 100 674 l 319 93 l 531 674 l 607 674 l 360 0 l 281 0 z "},"w":{"ha":1028,"x_min":21,"x_max":1007,"o":"m 706 0 l 511 557 l 332 0 l 253 0 l 21 660 l 100 674 l 290 101 l 481 674 l 550 674 l 746 101 l 931 674 l 1007 674 l 785 0 l 706 0 z "},"x":{"ha":643,"x_min":18,"x_max":625,"o":"m 18 0 l 269 339 l 38 660 l 117 674 l 328 379 l 540 674 l 625 674 l 369 322 l 607 0 l 521 0 l 311 282 l 106 0 l 18 0 z "},"y":{"ha":628,"x_min":21,"x_max":607,"o":"m 286 -4 l 21 660 l 99 674 l 319 96 q 426 385 372 240 q 531 674 479 529 l 607 674 l 307 -156 q 238 -250 289 -208 q 122 -304 186 -292 l 107 -250 q 192 -206 158 -229 q 242 -136 226 -183 l 286 -4 z "},"z":{"ha":632,"x_min":51,"x_max":581,"o":"m 581 629 l 147 58 l 558 58 l 572 0 l 63 0 l 51 43 l 479 614 l 114 614 l 92 674 l 576 674 l 581 629 z "},"ﬁ":{"ha":700,"x_min":33,"x_max":604,"o":"m 33 656 l 135 656 l 135 782 q 175 922 135 869 q 290 975 215 975 q 343 969 318 975 q 382 957 368 963 l 365 894 q 340 903 357 899 q 308 907 322 907 q 234 875 256 907 q 213 793 213 843 l 213 656 l 335 656 l 364 597 l 213 597 l 213 0 l 135 0 l 135 597 l 33 597 l 33 656 m 485 886 q 501 928 485 911 q 544 944 518 944 q 586 928 568 944 q 604 886 604 911 q 586 843 604 860 q 544 826 568 826 q 501 843 518 826 q 485 886 485 860 m 506 0 l 506 674 l 583 674 l 583 0 l 506 0 z "},"ﬂ":{"ha":694,"x_min":33,"x_max":579,"o":"m 33 656 l 135 656 l 135 782 q 175 922 135 869 q 290 975 215 975 q 343 969 318 975 q 382 957 368 963 l 365 894 q 340 903 357 899 q 308 907 322 907 q 234 875 256 907 q 213 793 213 843 l 213 656 l 335 656 l 364 597 l 213 597 l 213 0 l 135 0 l 135 597 l 33 597 l 33 656 m 503 0 l 503 967 l 579 981 l 579 0 l 503 0 z "},"`":{"ha":211,"x_min":18,"x_max":194,"o":"m 18 1031 l 110 1031 l 194 818 l 136 818 l 18 1031 z "},"¨":{"ha":367,"x_min":18,"x_max":349,"o":"m 349 914 q 332 874 349 890 q 293 858 315 858 q 253 874 268 858 q 238 914 238 890 q 253 952 238 936 q 293 968 268 968 q 332 952 315 968 q 349 914 349 936 m 129 914 q 113 874 129 890 q 74 858 96 858 q 34 874 50 858 q 18 914 18 890 q 34 952 18 936 q 74 968 50 968 q 113 952 96 968 q 129 914 129 936 z "},"¯":{"ha":369,"x_min":18,"x_max":353,"o":"m 18 949 l 353 949 l 353 889 l 18 889 l 18 949 z "},"´":{"ha":211,"x_min":18,"x_max":194,"o":"m 101 1031 l 194 1031 l 75 818 l 18 818 l 101 1031 z "},"ˆ":{"ha":411,"x_min":18,"x_max":394,"o":"m 94 818 l 18 818 l 171 1031 l 240 1031 l 394 818 l 315 818 l 206 975 l 94 818 z "},"ˇ":{"ha":411,"x_min":18,"x_max":394,"o":"m 317 1031 l 394 1031 l 240 818 l 171 818 l 18 1031 l 96 1031 q 150 951 122 992 q 206 872 178 911 l 317 1031 z "},"˘":{"ha":396,"x_min":18,"x_max":379,"o":"m 199 835 q 63 891 107 836 q 18 1015 18 946 l 78 1015 q 109 933 78 972 q 199 894 140 894 q 286 932 254 894 q 318 1015 318 969 l 379 1015 q 335 891 379 946 q 199 835 292 836 z "},"˙":{"ha":156,"x_min":18,"x_max":138,"o":"m 138 918 q 119 875 138 892 q 78 858 101 858 q 35 875 51 858 q 18 918 18 892 q 35 960 18 943 q 78 978 51 978 q 119 960 101 978 q 138 918 138 943 z "},"˚":{"ha":282,"x_min":18,"x_max":264,"o":"m 264 938 q 228 857 264 889 q 142 825 192 825 q 55 857 92 825 q 18 938 18 889 q 55 1021 18 988 q 142 1054 92 1054 q 228 1021 192 1054 q 264 938 264 988 m 206 938 q 188 985 206 967 q 142 1004 169 1004 q 95 985 114 1004 q 76 938 76 967 q 95 891 76 910 q 142 872 114 872 q 188 891 169 872 q 206 938 206 910 z "},"˜":{"ha":425,"x_min":18,"x_max":407,"o":"m 290 844 q 206 881 243 844 q 135 917 169 917 q 95 899 111 917 q 76 850 79 882 l 18 850 q 51 948 18 919 q 133 976 85 976 q 223 940 192 976 q 290 904 254 904 q 330 922 314 904 q 349 971 346 939 l 407 971 q 374 873 407 901 q 290 844 340 844 z "},"˝":{"ha":382,"x_min":18,"x_max":364,"o":"m 272 1031 l 364 1031 l 247 818 l 190 818 l 272 1031 m 101 1031 l 192 1031 l 72 818 l 18 818 l 101 1031 z "},"˛":{"ha":292,"x_min":18,"x_max":274,"o":"m 100 6 l 186 6 q 118 -63 149 -19 q 88 -153 88 -107 q 114 -212 88 -194 q 167 -231 140 -231 q 208 -223 189 -231 q 243 -201 226 -215 l 274 -246 q 226 -276 256 -264 q 163 -287 197 -287 q 59 -251 100 -287 q 18 -154 18 -214 q 41 -68 18 -112 q 100 6 64 -24 z "},"¸":{"ha":294,"x_min":18,"x_max":276,"o":"m 128 18 l 193 18 l 157 -74 q 244 -116 213 -82 q 276 -186 276 -150 q 231 -276 276 -244 q 122 -307 186 -307 q 67 -299 97 -307 q 18 -281 36 -292 l 39 -231 q 75 -243 51 -236 q 121 -250 99 -250 q 183 -233 157 -250 q 210 -189 210 -215 q 174 -136 210 -160 q 78 -110 138 -112 l 128 18 z "},"":{"ha":182,"x_min":18,"x_max":165,"o":"m 165 -97 q 131 -216 165 -160 q 42 -299 97 -272 l 18 -261 q 76 -213 53 -240 q 100 -149 99 -186 q 59 -128 74 -147 q 44 -90 44 -108 q 61 -47 44 -65 q 104 -29 78 -29 q 148 -49 131 -29 q 165 -97 165 -69 z "},"Þ":{"ha":799,"x_min":142,"x_max":718,"o":"m 219 944 l 219 783 l 378 783 q 622 718 525 783 q 718 499 718 653 q 613 276 718 346 q 363 206 508 206 l 219 206 l 219 0 l 142 0 l 142 944 l 219 944 m 388 719 l 219 719 l 219 269 l 372 269 q 561 324 483 269 q 639 497 639 379 q 570 669 639 619 q 388 719 501 719 z "},"Ð":{"ha":943,"x_min":21,"x_max":846,"o":"m 146 0 l 146 432 l 33 432 l 21 494 l 146 494 l 146 944 l 443 944 q 753 808 660 944 q 846 478 846 671 q 743 140 846 281 q 433 0 640 0 l 146 0 m 365 494 l 378 432 l 224 432 l 224 63 l 435 63 q 676 178 583 63 q 768 476 768 294 q 690 763 768 644 q 450 881 611 881 l 224 881 l 224 494 l 365 494 z "},"Æ":{"ha":1179,"x_min":11,"x_max":1129,"o":"m 600 289 l 263 289 l 85 0 l 11 14 l 589 944 l 1092 944 l 1100 886 l 678 886 l 678 513 l 956 513 l 963 454 l 678 454 l 678 61 l 1122 61 q 1126 31 1124 46 q 1129 0 1128 15 l 600 0 l 600 289 m 301 351 l 600 351 l 600 838 q 450 594 525 717 q 301 351 375 472 z "},"Đ":{"ha":943,"x_min":21,"x_max":846,"o":"m 146 0 l 146 432 l 33 432 l 21 494 l 146 494 l 146 944 l 443 944 q 753 808 660 944 q 846 478 846 671 q 743 140 846 281 q 433 0 640 0 l 146 0 m 365 494 l 378 432 l 224 432 l 224 63 l 435 63 q 676 178 583 63 q 768 476 768 294 q 690 763 768 644 q 450 881 611 881 l 224 881 l 224 494 l 365 494 z "},"Ł":{"ha":696,"x_min":22,"x_max":667,"o":"m 667 0 l 144 0 l 144 376 l 58 301 l 22 354 l 144 458 l 144 944 l 221 944 l 221 526 l 368 656 l 404 606 l 221 444 l 221 61 l 660 61 l 667 0 z "},"Œ":{"ha":1293,"x_min":96,"x_max":1243,"o":"m 517 896 q 274 776 368 894 q 181 468 181 658 q 262 174 181 299 q 504 49 343 49 q 630 63 579 49 q 714 96 681 78 l 714 853 q 631 883 675 871 q 517 896 588 896 m 714 0 l 714 21 q 615 -8 672 4 q 510 -19 557 -19 q 194 127 293 -19 q 96 467 96 274 q 204 819 96 674 q 517 964 313 964 q 610 954 551 964 q 714 926 668 944 l 714 944 l 1204 944 l 1213 886 l 790 886 l 790 513 l 1068 513 l 1076 454 l 790 454 l 790 61 l 1236 61 l 1243 0 l 714 0 z "},"Ø":{"ha":996,"x_min":96,"x_max":900,"o":"m 900 479 q 797 132 900 283 q 494 -19 694 -19 q 190 128 283 -19 q 96 468 96 276 q 200 821 96 675 q 503 967 304 967 q 806 819 713 967 q 900 479 900 672 m 181 469 q 210 267 181 361 q 304 115 240 172 l 629 869 q 571 890 603 883 q 504 897 539 897 q 268 774 356 897 q 181 469 181 651 m 492 49 q 728 172 640 49 q 815 478 815 294 q 784 681 815 586 q 689 832 753 776 l 365 75 q 424 55 392 61 q 492 49 456 49 z "},"ß":{"ha":796,"x_min":121,"x_max":718,"o":"m 404 944 q 592 883 513 944 q 671 699 671 821 q 638 574 671 625 q 544 494 604 522 q 669 410 619 468 q 718 261 718 351 q 614 56 718 113 q 363 0 510 0 l 303 0 l 303 63 l 374 63 q 562 106 485 63 q 639 258 639 149 q 570 411 639 364 q 388 458 501 458 l 325 458 l 325 521 l 363 521 q 540 565 488 521 q 592 697 592 610 q 536 834 592 789 q 406 879 481 879 q 251 815 303 879 q 199 657 199 751 l 199 0 l 121 0 l 121 657 q 198 869 121 794 q 404 944 275 944 z "},"ð":{"ha":732,"x_min":69,"x_max":651,"o":"m 175 969 q 281 928 228 954 q 383 865 335 901 l 492 963 l 529 915 l 429 828 q 588 621 525 742 q 651 363 651 500 q 567 80 651 178 q 344 -18 483 -18 q 145 69 221 -18 q 69 264 69 156 q 142 453 69 369 q 344 538 215 538 q 470 508 407 538 q 568 432 533 478 q 504 623 554 532 q 379 783 454 714 l 233 654 l 196 701 l 333 822 q 241 883 290 857 q 140 922 192 908 q 158 945 149 933 q 175 969 167 957 m 346 474 q 201 409 253 474 q 149 257 149 344 q 201 113 149 178 q 347 47 254 47 q 513 131 458 47 q 569 344 567 214 q 481 433 539 393 q 346 474 422 474 z "},"þ":{"ha":738,"x_min":114,"x_max":667,"o":"m 376 47 q 540 130 490 47 q 589 335 589 213 q 540 542 589 458 q 376 626 490 626 q 284 606 335 626 q 190 544 233 585 l 190 128 q 284 67 233 88 q 376 47 335 47 m 114 -304 l 114 967 l 190 981 l 190 617 q 281 670 232 649 q 378 692 331 692 q 597 591 526 692 q 667 336 667 490 q 597 82 667 182 q 378 -18 526 -18 q 281 2 331 -18 q 190 56 232 22 l 190 -289 l 114 -304 z "},"ƒ":{"ha":403,"x_min":-18,"x_max":396,"o":"m 49 656 l 150 656 l 150 782 q 190 922 150 869 q 304 975 229 975 q 357 969 332 975 q 396 957 382 963 l 379 894 q 353 903 371 899 q 322 907 336 907 q 248 875 269 907 q 226 793 226 843 l 226 656 l 349 656 l 378 597 l 226 597 l 226 101 q 187 -38 226 14 q 74 -90 147 -90 q 19 -84 44 -90 q -18 -74 -6 -78 l -3 -11 q 22 -19 6 -15 q 53 -24 39 -24 q 128 8 107 -24 q 150 90 150 39 l 150 597 l 49 597 l 49 656 z "},"æ":{"ha":1138,"x_min":72,"x_max":1071,"o":"m 1071 333 l 579 333 q 636 128 581 213 q 817 44 692 44 q 935 59 890 44 q 1015 92 981 74 l 1042 35 q 935 -5 1001 8 q 826 -18 868 -18 q 662 18 731 -18 q 556 118 593 54 q 456 26 524 69 q 301 -18 389 -18 q 128 42 185 -18 q 72 189 72 101 q 140 338 72 285 q 313 390 207 390 l 500 390 l 500 465 q 460 581 500 535 q 339 626 421 626 q 226 612 268 626 q 146 579 185 597 l 119 633 q 226 676 158 660 q 335 692 293 692 q 476 657 419 692 q 558 564 533 622 q 657 658 594 624 q 803 692 719 692 q 1003 590 936 692 q 1071 333 1071 488 m 793 626 q 642 557 693 626 q 581 389 592 488 l 992 389 q 938 557 982 488 q 793 626 893 626 m 300 46 q 435 87 378 46 q 525 183 492 128 q 507 256 514 218 q 500 335 500 293 l 314 335 q 190 292 231 335 q 150 189 150 249 q 188 90 150 133 q 300 46 225 46 z "},"đ":{"ha":738,"x_min":69,"x_max":710,"o":"m 361 626 q 198 543 247 626 q 149 338 149 460 q 198 131 149 214 q 361 47 247 47 q 453 67 403 47 q 546 128 503 88 l 546 544 q 453 606 503 585 q 361 626 403 626 m 697 851 l 710 796 l 624 796 l 624 0 l 576 0 l 554 60 q 459 3 511 25 q 358 -18 407 -18 q 140 81 211 -18 q 69 335 69 181 q 140 591 69 490 q 358 692 211 692 q 455 670 404 692 q 546 617 506 649 l 546 796 l 365 796 l 353 851 l 546 851 l 546 967 l 624 979 l 624 851 l 697 851 z "},"œ":{"ha":1124,"x_min":69,"x_max":1058,"o":"m 1058 333 l 564 333 q 621 128 565 213 q 801 44 676 44 q 920 59 875 44 q 1001 92 965 74 l 1028 35 q 921 -5 988 8 q 813 -18 854 -18 q 697 -2 749 -18 q 606 44 644 14 q 510 0 567 18 q 399 -18 454 -18 q 157 80 243 -18 q 69 338 71 178 q 158 591 69 490 q 404 692 247 692 q 512 675 458 692 q 604 632 565 658 q 685 676 639 660 q 788 692 732 692 q 990 590 922 692 q 1058 333 1058 488 m 397 44 q 492 58 454 44 q 560 89 529 71 q 504 201 522 136 q 486 340 486 265 q 504 476 486 413 q 557 585 522 539 q 497 615 531 601 q 400 629 463 629 q 216 544 283 629 q 149 342 149 460 q 213 131 149 218 q 397 44 276 44 m 778 626 q 628 557 679 626 q 567 389 578 488 l 978 389 q 923 557 968 488 q 778 626 878 626 z "},"ĺ":{"ha":304,"x_min":114,"x_max":303,"o":"m 210 1176 l 303 1176 l 183 989 l 126 989 l 210 1176 m 114 0 l 114 935 l 190 950 l 190 0 l 114 0 z "},"ł":{"ha":347,"x_min":-17,"x_max":364,"o":"m 364 619 l 213 486 l 213 0 l 135 0 l 135 418 l 19 317 l -17 368 l 135 500 l 135 967 l 213 981 l 213 568 l 328 671 l 364 619 z "},"ı":{"ha":306,"x_min":114,"x_max":192,"o":"m 114 0 l 114 674 l 192 674 l 192 0 l 114 0 z "},"ø":{"ha":711,"x_min":69,"x_max":642,"o":"m 69 340 q 143 590 71 489 q 360 692 215 692 q 575 590 508 692 q 642 332 642 488 q 567 81 642 179 q 346 -18 492 -18 q 135 85 200 -17 q 69 340 69 188 m 363 626 q 201 543 251 626 q 149 342 150 460 q 162 207 149 269 q 208 106 175 144 l 463 599 q 419 619 444 613 q 363 626 393 626 m 564 332 q 552 452 564 396 q 514 549 540 508 l 264 64 q 303 51 282 54 q 347 47 324 47 q 511 129 460 47 q 564 332 563 211 z "},"ģ":{"ha":738,"x_min":69,"x_max":624,"o":"m 299 861 q 333 979 299 924 q 421 1063 367 1035 l 446 1024 q 388 976 411 1003 q 363 913 365 949 q 403 892 389 911 q 418 853 418 872 q 402 810 418 829 q 358 792 386 792 q 315 812 332 792 q 299 861 299 832 m 361 626 q 198 543 247 626 q 149 338 149 460 q 198 131 149 214 q 361 47 247 47 q 453 67 403 47 q 546 128 503 88 l 546 544 q 453 606 503 585 q 361 626 403 626 m 361 -307 q 253 -292 321 -307 q 146 -250 185 -276 l 172 -194 q 252 -228 214 -212 q 358 -243 290 -243 q 494 -203 443 -243 q 546 -81 546 -164 l 546 56 q 455 2 506 22 q 358 -18 404 -18 q 140 81 211 -18 q 69 335 69 181 q 140 591 69 490 q 358 692 211 692 q 459 669 407 692 q 553 611 511 646 l 576 674 l 624 674 l 624 -74 q 558 -240 624 -174 q 361 -307 493 -307 z "},"À":{"ha":817,"x_min":18,"x_max":799,"o":"m 282 1239 l 374 1239 l 458 1026 l 400 1026 l 282 1239 m 400 843 l 219 351 l 588 351 l 400 843 m 438 944 l 799 14 l 721 0 l 610 289 l 199 289 l 93 0 l 18 0 l 361 944 l 438 944 z "},"Á":{"ha":817,"x_min":18,"x_max":799,"o":"m 421 1239 l 514 1239 l 394 1026 l 338 1026 l 421 1239 m 400 843 l 219 351 l 588 351 l 400 843 m 438 944 l 799 14 l 721 0 l 610 289 l 199 289 l 93 0 l 18 0 l 361 944 l 438 944 z "},"Â":{"ha":817,"x_min":18,"x_max":799,"o":"m 289 1026 l 213 1026 l 365 1239 l 435 1239 l 589 1026 l 510 1026 l 400 1185 l 289 1026 m 400 843 l 219 351 l 588 351 l 400 843 m 438 944 l 799 14 l 721 0 l 610 289 l 199 289 l 93 0 l 18 0 l 361 944 l 438 944 z "},"Ã":{"ha":817,"x_min":18,"x_max":799,"o":"m 476 1053 q 392 1089 429 1053 q 321 1125 356 1125 q 281 1108 297 1125 q 263 1058 265 1090 l 204 1058 q 238 1156 204 1128 q 319 1185 271 1185 q 409 1149 378 1185 q 476 1113 440 1113 q 515 1130 499 1113 q 533 1179 531 1147 l 592 1179 q 558 1081 592 1110 q 476 1053 525 1053 m 400 843 q 310 597 356 721 q 219 351 265 474 l 588 351 l 400 843 m 438 944 l 799 14 l 721 0 l 610 289 l 199 289 q 146 144 172 218 q 93 0 119 71 l 18 0 l 361 944 l 438 944 z "},"Ä":{"ha":817,"x_min":18,"x_max":799,"o":"m 565 1122 q 549 1083 565 1099 q 510 1067 533 1067 q 470 1083 486 1067 q 454 1122 454 1099 q 470 1160 454 1144 q 510 1176 486 1176 q 549 1160 533 1176 q 565 1122 565 1144 m 347 1122 q 331 1083 347 1099 q 290 1067 314 1067 q 251 1083 267 1067 q 235 1122 235 1099 q 251 1160 235 1144 q 290 1176 267 1176 q 331 1160 314 1176 q 347 1122 347 1144 m 400 843 l 219 351 l 588 351 l 400 843 m 438 944 l 799 14 l 721 0 l 610 289 l 199 289 l 93 0 l 18 0 l 361 944 l 438 944 z "},"Å":{"ha":817,"x_min":18,"x_max":799,"o":"m 522 1146 q 486 1065 522 1097 q 400 1033 450 1033 q 313 1065 350 1033 q 276 1146 276 1097 q 313 1229 276 1196 q 400 1263 350 1263 q 486 1229 450 1263 q 522 1146 522 1196 m 464 1146 q 446 1194 464 1175 q 400 1213 428 1213 q 353 1194 372 1213 q 335 1146 335 1175 q 353 1099 335 1118 q 400 1081 372 1081 q 446 1099 428 1081 q 464 1146 464 1118 m 400 843 l 219 351 l 588 351 l 400 843 m 438 944 l 799 14 l 721 0 l 610 289 l 199 289 l 93 0 l 18 0 l 361 944 l 438 944 z "},"Ă":{"ha":817,"x_min":18,"x_max":799,"o":"m 400 1043 q 264 1099 308 1044 q 219 1224 219 1154 l 279 1224 q 310 1142 279 1181 q 400 1103 342 1103 q 488 1140 456 1103 q 519 1224 519 1178 l 581 1224 q 537 1099 581 1154 q 400 1043 493 1044 m 400 843 l 219 351 l 588 351 l 400 843 m 438 944 l 799 14 l 721 0 l 610 289 l 199 289 l 93 0 l 18 0 l 361 944 l 438 944 z "},"Ą":{"ha":817,"x_min":18,"x_max":894,"o":"m 438 944 l 799 14 q 735 -62 763 -17 q 708 -153 708 -107 q 735 -212 708 -194 q 788 -231 761 -231 q 828 -223 810 -231 q 864 -201 847 -215 l 894 -246 q 847 -276 876 -264 q 783 -287 818 -287 q 680 -251 721 -287 q 639 -154 639 -214 q 662 -69 639 -114 q 719 3 685 -25 l 610 289 l 199 289 l 93 0 l 18 0 l 361 944 l 438 944 m 400 843 l 219 351 l 588 351 l 400 843 z "},"Ā":{"ha":817,"x_min":18,"x_max":799,"o":"m 233 1157 l 568 1157 l 568 1097 l 233 1097 l 233 1157 m 400 843 l 219 351 l 588 351 l 400 843 m 438 944 l 799 14 l 721 0 l 610 289 l 199 289 l 93 0 l 18 0 l 361 944 l 438 944 z "},"Ç":{"ha":811,"x_min":96,"x_max":733,"o":"m 504 896 q 268 776 356 894 q 181 468 181 658 q 256 174 181 299 q 492 49 331 49 q 615 61 567 49 q 700 90 663 74 l 733 32 q 640 -1 699 14 q 526 -18 582 -15 l 506 -74 q 592 -116 560 -82 q 624 -186 624 -150 q 579 -276 624 -244 q 471 -307 535 -307 q 415 -299 446 -307 q 365 -281 383 -292 l 386 -231 q 422 -243 399 -236 q 468 -250 446 -250 q 531 -233 504 -250 q 557 -189 557 -215 q 522 -136 557 -160 q 426 -110 486 -112 l 461 -18 q 180 138 264 -6 q 96 467 96 281 q 198 819 96 674 q 504 964 300 964 q 621 951 547 964 q 733 913 694 939 l 706 856 q 621 885 663 874 q 504 896 579 896 z "},"Ć":{"ha":811,"x_min":96,"x_max":733,"o":"m 524 1239 l 617 1239 l 497 1026 l 440 1026 l 524 1239 m 504 896 q 268 776 356 894 q 181 468 181 658 q 256 174 181 299 q 492 49 331 49 q 615 61 567 49 q 700 90 663 74 l 733 32 q 625 -4 694 11 q 496 -19 556 -19 q 188 127 279 -19 q 96 467 96 274 q 198 819 96 674 q 504 964 300 964 q 621 951 547 964 q 733 913 694 939 l 706 856 q 621 885 663 874 q 504 896 579 896 z "},"Č":{"ha":811,"x_min":96,"x_max":733,"o":"m 611 1239 l 689 1239 l 535 1026 l 465 1026 l 313 1239 l 390 1239 q 444 1160 417 1200 q 500 1081 472 1119 l 611 1239 m 504 896 q 268 776 356 894 q 181 468 181 658 q 256 174 181 299 q 492 49 331 49 q 615 61 567 49 q 700 90 663 74 l 733 32 q 625 -4 694 11 q 496 -19 556 -19 q 188 127 279 -19 q 96 467 96 274 q 198 819 96 674 q 504 964 300 964 q 621 951 547 964 q 733 913 694 939 q 719 884 726 899 q 706 856 713 869 q 621 885 663 874 q 504 896 579 896 z "},"Ď":{"ha":938,"x_min":142,"x_max":840,"o":"m 519 1238 l 597 1238 l 443 1025 l 374 1025 l 221 1238 l 299 1238 q 353 1158 325 1199 q 408 1079 381 1118 l 519 1238 m 142 0 l 142 944 l 438 944 q 748 808 656 944 q 840 478 840 671 q 738 140 840 281 q 429 0 636 0 l 142 0 m 446 881 l 219 881 l 219 63 l 432 63 q 672 178 581 63 q 764 476 764 294 q 685 763 764 644 q 446 881 607 881 z "},"È":{"ha":721,"x_min":142,"x_max":672,"o":"m 261 1239 l 353 1239 l 438 1026 l 379 1026 l 261 1239 m 142 0 l 142 944 l 633 944 l 640 886 l 219 886 l 219 513 l 497 513 l 504 454 l 219 454 l 219 61 l 664 61 l 672 0 l 142 0 z "},"É":{"ha":721,"x_min":142,"x_max":672,"o":"m 400 1239 l 493 1239 l 374 1026 l 317 1026 l 400 1239 m 142 0 l 142 944 l 633 944 l 640 886 l 219 886 l 219 513 l 497 513 l 504 454 l 219 454 l 219 61 l 664 61 l 672 0 l 142 0 z "},"Ê":{"ha":721,"x_min":142,"x_max":672,"o":"m 268 1026 l 192 1026 l 344 1239 l 414 1239 l 568 1026 l 489 1026 l 379 1185 l 268 1026 m 142 0 l 142 944 l 633 944 l 640 886 l 219 886 l 219 513 l 497 513 l 504 454 l 219 454 l 219 61 l 664 61 l 672 0 l 142 0 z "},"Ë":{"ha":721,"x_min":142,"x_max":672,"o":"m 544 1122 q 528 1083 544 1099 q 489 1067 513 1067 q 449 1083 465 1067 q 433 1122 433 1099 q 449 1160 433 1144 q 489 1176 465 1176 q 528 1160 513 1176 q 544 1122 544 1144 m 326 1122 q 310 1083 326 1099 q 269 1067 293 1067 q 230 1083 246 1067 q 214 1122 214 1099 q 230 1160 214 1144 q 269 1176 246 1176 q 310 1160 293 1176 q 326 1122 326 1144 m 142 0 l 142 944 l 633 944 l 640 886 l 219 886 l 219 513 l 497 513 l 504 454 l 219 454 l 219 61 l 664 61 l 672 0 l 142 0 z "},"Ē":{"ha":721,"x_min":142,"x_max":672,"o":"m 213 1157 l 547 1157 l 547 1097 l 213 1097 l 213 1157 m 142 0 l 142 944 l 633 944 l 640 886 l 219 886 l 219 513 l 497 513 l 504 454 l 219 454 l 219 61 l 664 61 l 672 0 l 142 0 z "},"Ė":{"ha":721,"x_min":142,"x_max":672,"o":"m 439 1126 q 421 1083 439 1100 q 379 1067 403 1067 q 336 1083 353 1067 q 319 1126 319 1100 q 336 1169 319 1151 q 379 1186 353 1186 q 421 1169 403 1186 q 439 1126 439 1151 m 142 0 l 142 944 l 633 944 l 640 886 l 219 886 l 219 513 l 497 513 l 504 454 l 219 454 l 219 61 l 664 61 l 672 0 l 142 0 z "},"Ę":{"ha":721,"x_min":142,"x_max":672,"o":"m 142 0 l 142 944 l 633 944 l 640 886 l 219 886 l 219 513 l 497 513 l 504 454 l 219 454 l 219 61 l 664 61 l 672 0 l 574 0 q 512 -68 539 -26 q 485 -153 485 -110 q 511 -212 485 -194 q 564 -231 538 -231 q 605 -223 586 -231 q 640 -201 624 -215 l 671 -246 q 624 -276 653 -264 q 560 -287 594 -287 q 456 -251 497 -287 q 414 -154 414 -214 q 435 -72 414 -115 q 490 0 457 -29 l 142 0 z "},"Ě":{"ha":721,"x_min":142,"x_max":672,"o":"m 488 1239 l 565 1239 l 411 1026 l 342 1026 l 189 1239 l 267 1239 q 321 1160 293 1200 q 376 1081 349 1119 l 488 1239 m 142 0 l 142 944 l 633 944 l 640 886 l 219 886 l 219 513 l 497 513 l 504 454 l 219 454 l 219 61 l 664 61 l 672 0 l 142 0 z "},"Ğ":{"ha":893,"x_min":96,"x_max":782,"o":"m 546 1043 q 410 1099 454 1044 q 365 1224 365 1154 l 425 1224 q 456 1142 425 1181 q 546 1103 488 1103 q 633 1140 601 1103 q 665 1224 665 1178 l 726 1224 q 683 1099 726 1154 q 546 1043 639 1044 m 501 475 l 782 475 l 782 43 q 670 -1 743 17 q 538 -19 597 -19 q 209 120 322 -19 q 96 467 96 260 q 219 825 96 686 q 546 964 343 964 q 663 951 589 964 q 776 913 738 939 l 750 857 q 665 886 707 875 q 549 897 622 897 q 283 779 386 897 q 181 460 181 661 q 278 159 181 269 q 536 49 375 49 q 628 58 586 49 q 706 81 671 68 l 706 417 l 493 417 l 501 475 z "},"Ì":{"ha":361,"x_min":58,"x_max":235,"o":"m 58 1239 l 150 1239 l 235 1026 l 176 1026 l 58 1239 m 142 0 l 142 944 l 219 944 l 219 0 l 142 0 z "},"Í":{"ha":361,"x_min":129,"x_max":306,"o":"m 213 1239 l 306 1239 l 186 1026 l 129 1026 l 213 1239 m 142 0 l 142 944 l 219 944 l 219 0 l 142 0 z "},"Î":{"ha":361,"x_min":-7,"x_max":369,"o":"m 69 1026 l -7 1026 l 146 1239 l 215 1239 l 369 1026 l 290 1026 l 181 1185 l 69 1026 m 142 0 l 142 944 l 219 944 l 219 0 l 142 0 z "},"Ï":{"ha":361,"x_min":15,"x_max":346,"o":"m 346 1122 q 330 1083 346 1099 q 290 1067 314 1067 q 251 1083 267 1067 q 235 1122 235 1099 q 251 1160 235 1144 q 290 1176 267 1176 q 330 1160 314 1176 q 346 1122 346 1144 m 128 1122 q 111 1083 128 1099 q 71 1067 94 1067 q 31 1083 47 1067 q 15 1122 15 1099 q 31 1160 15 1144 q 71 1176 47 1176 q 111 1160 94 1176 q 128 1122 128 1144 m 142 0 l 142 944 l 219 944 l 219 0 l 142 0 z "},"Ī":{"ha":361,"x_min":14,"x_max":349,"o":"m 14 1157 l 349 1157 l 349 1097 l 14 1097 l 14 1157 m 142 0 l 142 944 l 219 944 l 219 0 l 142 0 z "},"Į":{"ha":361,"x_min":60,"x_max":317,"o":"m 219 944 l 219 0 q 158 -65 185 -22 q 131 -151 131 -107 q 157 -211 131 -193 q 210 -229 183 -229 q 251 -222 232 -229 q 286 -200 269 -214 l 317 -246 q 269 -276 299 -264 q 206 -287 240 -287 q 101 -251 143 -287 q 60 -154 60 -214 q 83 -68 60 -112 q 142 4 106 -24 l 142 944 l 219 944 z "},"İ":{"ha":361,"x_min":121,"x_max":240,"o":"m 240 1126 q 222 1083 240 1100 q 181 1067 204 1067 q 138 1083 154 1067 q 121 1126 121 1100 q 138 1169 121 1151 q 181 1186 154 1186 q 222 1169 204 1186 q 240 1126 240 1151 m 142 0 l 142 944 l 219 944 l 219 0 l 142 0 z "},"Ĺ":{"ha":693,"x_min":142,"x_max":664,"o":"m 263 1239 l 356 1239 l 236 1026 l 179 1026 l 263 1239 m 664 0 l 142 0 l 142 944 l 219 944 l 219 61 l 657 61 l 664 0 z "},"Ľ":{"ha":693,"x_min":142,"x_max":664,"o":"m 547 907 q 513 788 547 843 q 424 706 479 732 l 400 743 q 457 791 435 764 q 482 854 479 818 q 442 875 456 856 q 428 914 428 894 q 444 956 428 938 q 488 975 460 975 q 531 955 514 975 q 547 907 547 935 m 664 0 l 142 0 l 142 944 l 219 944 l 219 61 l 657 61 l 664 0 z "},"Ñ":{"ha":944,"x_min":142,"x_max":804,"o":"m 558 1053 q 474 1089 511 1053 q 403 1125 438 1125 q 363 1108 379 1125 q 344 1058 347 1090 l 286 1058 q 319 1156 286 1128 q 401 1185 353 1185 q 491 1149 460 1185 q 558 1113 522 1113 q 598 1130 582 1113 q 617 1179 614 1147 l 675 1179 q 642 1081 675 1110 q 558 1053 608 1053 m 142 0 l 142 944 l 190 944 q 434 597 311 771 q 679 249 557 422 l 726 167 l 726 944 l 804 944 l 804 0 l 757 0 q 498 374 628 186 q 239 747 368 561 l 219 788 l 219 0 l 142 0 z "},"Ń":{"ha":944,"x_min":142,"x_max":804,"o":"m 508 1239 l 601 1239 l 482 1026 l 425 1026 l 508 1239 m 142 0 l 142 944 l 190 944 l 679 249 l 726 167 l 726 944 l 804 944 l 804 0 l 757 0 l 239 747 l 219 788 l 219 0 l 142 0 z "},"Ň":{"ha":944,"x_min":142,"x_max":804,"o":"m 589 1239 l 667 1239 l 513 1026 l 443 1026 l 290 1239 l 368 1239 q 422 1160 394 1200 q 478 1081 450 1119 l 589 1239 m 142 0 l 142 944 l 190 944 q 434 597 311 771 q 679 249 557 422 l 726 167 l 726 944 l 804 944 l 804 0 l 757 0 q 498 374 628 186 q 239 747 368 561 l 219 788 l 219 0 l 142 0 z "},"Ò":{"ha":996,"x_min":96,"x_max":900,"o":"m 385 1239 l 476 1239 l 561 1026 l 503 1026 l 385 1239 m 900 479 q 797 132 900 283 q 494 -19 694 -19 q 190 128 283 -19 q 96 468 96 276 q 200 821 96 675 q 503 967 304 967 q 806 819 713 967 q 900 479 900 672 m 492 47 q 728 171 640 47 q 815 478 815 294 q 741 773 815 647 q 504 899 667 899 q 268 775 356 899 q 181 469 181 651 q 256 174 181 300 q 492 47 331 47 z "},"Ó":{"ha":996,"x_min":96,"x_max":900,"o":"m 524 1239 l 617 1239 l 497 1026 l 440 1026 l 524 1239 m 900 479 q 797 132 900 283 q 494 -19 694 -19 q 190 128 283 -19 q 96 468 96 276 q 200 821 96 675 q 503 967 304 967 q 806 819 713 967 q 900 479 900 672 m 492 47 q 728 171 640 47 q 815 478 815 294 q 741 773 815 647 q 504 899 667 899 q 268 775 356 899 q 181 469 181 651 q 256 174 181 300 q 492 47 331 47 z "},"Ô":{"ha":996,"x_min":96,"x_max":900,"o":"m 392 1026 l 315 1026 l 468 1239 l 538 1239 l 692 1026 l 613 1026 l 503 1185 l 392 1026 m 900 479 q 797 132 900 283 q 494 -19 694 -19 q 190 128 283 -19 q 96 468 96 276 q 200 821 96 675 q 503 967 304 967 q 806 819 713 967 q 900 479 900 672 m 492 47 q 728 171 640 47 q 815 478 815 294 q 741 773 815 647 q 504 899 667 899 q 268 775 356 899 q 181 469 181 651 q 256 174 181 300 q 492 47 331 47 z "},"Õ":{"ha":996,"x_min":96,"x_max":900,"o":"m 579 1053 q 495 1089 532 1053 q 424 1125 458 1125 q 384 1108 400 1125 q 365 1058 368 1090 l 307 1058 q 340 1156 307 1128 q 422 1185 374 1185 q 512 1149 481 1185 q 579 1113 543 1113 q 617 1130 601 1113 q 636 1179 633 1147 l 694 1179 q 661 1081 694 1110 q 579 1053 628 1053 m 900 479 q 797 132 900 283 q 494 -19 694 -19 q 190 128 283 -19 q 96 468 96 276 q 200 821 96 675 q 503 967 304 967 q 806 819 713 967 q 900 479 900 672 m 492 47 q 728 171 640 47 q 815 478 815 294 q 741 773 815 647 q 504 899 667 899 q 268 775 356 899 q 181 469 181 651 q 256 174 181 300 q 492 47 331 47 z "},"Ö":{"ha":996,"x_min":96,"x_max":900,"o":"m 668 1122 q 652 1083 668 1099 q 613 1067 636 1067 q 573 1083 589 1067 q 557 1122 557 1099 q 573 1160 557 1144 q 613 1176 589 1176 q 652 1160 636 1176 q 668 1122 668 1144 m 450 1122 q 433 1083 450 1099 q 393 1067 417 1067 q 353 1083 369 1067 q 338 1122 338 1099 q 353 1160 338 1144 q 393 1176 369 1176 q 433 1160 417 1176 q 450 1122 450 1144 m 900 479 q 797 132 900 283 q 494 -19 694 -19 q 190 128 283 -19 q 96 468 96 276 q 200 821 96 675 q 503 967 304 967 q 806 819 713 967 q 900 479 900 672 m 492 47 q 728 171 640 47 q 815 478 815 294 q 741 773 815 647 q 504 899 667 899 q 268 775 356 899 q 181 469 181 651 q 256 174 181 300 q 492 47 331 47 z "},"Ō":{"ha":996,"x_min":96,"x_max":900,"o":"m 329 1157 l 664 1157 l 664 1097 l 329 1097 l 329 1157 m 900 479 q 797 132 900 283 q 494 -19 694 -19 q 190 128 283 -19 q 96 468 96 276 q 200 821 96 675 q 503 967 304 967 q 806 819 713 967 q 900 479 900 672 m 492 47 q 728 171 640 47 q 815 478 815 294 q 741 773 815 647 q 504 899 667 899 q 268 775 356 899 q 181 469 181 651 q 256 174 181 300 q 492 47 331 47 z "},"Ő":{"ha":996,"x_min":96,"x_max":900,"o":"m 617 1239 l 708 1239 l 592 1026 l 535 1026 l 617 1239 m 446 1239 l 536 1239 l 417 1026 l 363 1026 l 446 1239 m 900 479 q 797 132 900 283 q 494 -19 694 -19 q 190 128 283 -19 q 96 468 96 276 q 200 821 96 675 q 503 967 304 967 q 806 819 713 967 q 900 479 900 672 m 492 47 q 728 171 640 47 q 815 478 815 294 q 741 773 815 647 q 504 899 667 899 q 268 775 356 899 q 181 469 181 651 q 256 174 181 300 q 492 47 331 47 z "},"Ŕ":{"ha":850,"x_min":142,"x_max":793,"o":"m 406 1239 l 499 1239 l 379 1026 l 322 1026 l 406 1239 m 381 879 l 219 879 l 219 460 l 365 460 q 555 507 471 460 q 639 672 639 554 q 564 836 639 793 q 381 879 489 879 m 718 675 q 669 517 717 578 q 547 428 622 457 l 793 0 l 706 0 l 481 407 q 422 399 451 401 q 363 397 393 397 l 219 397 l 219 0 l 142 0 l 142 944 l 378 944 q 622 884 525 944 q 718 675 718 824 z "},"Ř":{"ha":850,"x_min":142,"x_max":793,"o":"m 493 1239 l 571 1239 l 417 1026 l 347 1026 l 194 1239 l 272 1239 q 326 1160 299 1200 q 382 1081 354 1119 l 493 1239 m 381 879 l 219 879 l 219 460 l 365 460 q 555 507 471 460 q 639 672 639 554 q 564 836 639 793 q 381 879 489 879 m 718 675 q 669 517 717 578 q 547 428 622 457 l 793 0 l 706 0 l 481 407 q 422 399 451 401 q 363 397 393 397 l 219 397 l 219 0 l 142 0 l 142 944 l 378 944 q 622 884 525 944 q 718 675 718 824 z "},"Ś":{"ha":740,"x_min":82,"x_max":667,"o":"m 400 1239 l 493 1239 l 374 1026 l 317 1026 l 400 1239 m 344 46 q 527 98 464 46 q 590 222 590 150 q 336 450 590 379 q 82 739 82 521 q 160 901 82 835 q 372 967 239 967 q 503 950 442 967 q 606 913 564 933 l 575 854 q 493 886 539 871 q 375 901 447 901 q 217 855 275 901 q 158 736 158 808 q 413 494 158 574 q 667 219 667 414 q 583 49 667 115 q 346 -18 500 -18 q 201 1 286 -18 q 93 40 117 19 l 114 100 q 213 64 150 82 q 344 46 275 46 z "},"Š":{"ha":740,"x_min":82,"x_max":667,"o":"m 481 1239 l 558 1239 q 482 1133 521 1186 q 406 1026 443 1079 l 336 1026 l 182 1239 l 260 1239 q 315 1160 288 1200 q 369 1081 343 1119 l 481 1239 m 344 46 q 527 98 464 46 q 590 222 590 150 q 336 455 590 379 q 82 738 82 531 q 160 900 82 833 q 372 967 239 967 q 503 950 442 967 q 606 913 564 933 l 575 854 q 493 886 539 871 q 375 901 447 901 q 217 855 275 901 q 158 736 158 808 q 413 497 158 575 q 667 222 667 418 q 584 50 667 118 q 346 -18 501 -18 q 201 1 286 -18 q 93 40 117 19 l 114 100 q 213 64 150 82 q 344 46 275 46 z "},"Ť":{"ha":714,"x_min":21,"x_max":692,"o":"m 465 1239 l 543 1239 l 389 1026 l 319 1026 l 167 1239 l 244 1239 q 299 1160 271 1200 q 354 1081 326 1119 l 465 1239 m 692 883 l 394 883 l 394 0 l 317 0 l 317 883 l 21 883 l 21 944 l 685 944 l 692 883 z "},"Ù":{"ha":926,"x_min":128,"x_max":799,"o":"m 344 1239 l 436 1239 l 521 1026 l 463 1026 l 344 1239 m 463 49 q 653 132 586 49 q 721 336 721 215 l 721 944 l 799 944 l 799 332 q 711 82 799 181 q 463 -17 624 -17 q 215 82 303 -17 q 128 332 128 181 l 128 944 l 204 944 l 204 336 q 274 132 204 215 q 463 49 343 49 z "},"Ú":{"ha":926,"x_min":128,"x_max":799,"o":"m 483 1239 l 576 1239 l 457 1026 l 400 1026 l 483 1239 m 463 49 q 653 132 586 49 q 721 336 721 215 l 721 944 l 799 944 l 799 332 q 711 82 799 181 q 463 -17 624 -17 q 215 82 303 -17 q 128 332 128 181 l 128 944 l 204 944 l 204 336 q 274 132 204 215 q 463 49 343 49 z "},"Û":{"ha":926,"x_min":128,"x_max":799,"o":"m 351 1026 l 275 1026 l 428 1239 l 497 1239 l 651 1026 l 572 1026 l 464 1185 l 351 1026 m 463 49 q 653 132 586 49 q 721 336 721 215 l 721 944 l 799 944 l 799 332 q 711 82 799 181 q 463 -17 624 -17 q 215 82 303 -17 q 128 332 128 181 l 128 944 l 204 944 l 204 336 q 274 132 204 215 q 463 49 343 49 z "},"Ü":{"ha":926,"x_min":128,"x_max":799,"o":"m 633 1122 q 617 1083 633 1099 q 578 1067 600 1067 q 538 1083 553 1067 q 522 1122 522 1099 q 538 1160 522 1144 q 578 1176 553 1176 q 617 1160 600 1176 q 633 1122 633 1144 m 414 1122 q 397 1083 414 1099 q 358 1067 381 1067 q 319 1083 335 1067 q 303 1122 303 1099 q 319 1160 303 1144 q 358 1176 335 1176 q 397 1160 381 1176 q 414 1122 414 1144 m 463 49 q 653 132 586 49 q 721 336 721 215 l 721 944 l 799 944 l 799 332 q 711 82 799 181 q 463 -17 624 -17 q 215 82 303 -17 q 128 332 128 181 l 128 944 l 204 944 l 204 336 q 274 132 204 215 q 463 49 343 49 z "},"Ū":{"ha":926,"x_min":128,"x_max":799,"o":"m 296 1157 l 631 1157 l 631 1097 l 296 1097 l 296 1157 m 463 49 q 653 132 586 49 q 721 336 721 215 l 721 944 l 799 944 l 799 332 q 711 82 799 181 q 463 -17 624 -17 q 215 82 303 -17 q 128 332 128 181 l 128 944 l 204 944 l 204 336 q 274 132 204 215 q 463 49 343 49 z "},"Ů":{"ha":926,"x_min":128,"x_max":799,"o":"m 585 1146 q 549 1065 585 1097 q 463 1033 513 1033 q 376 1065 413 1033 q 339 1146 339 1097 q 376 1229 339 1196 q 463 1263 413 1263 q 549 1229 513 1263 q 585 1146 585 1196 m 528 1146 q 509 1194 528 1175 q 463 1213 490 1213 q 416 1194 435 1213 q 397 1146 397 1175 q 416 1099 397 1118 q 463 1081 435 1081 q 509 1099 490 1081 q 528 1146 528 1118 m 463 49 q 653 132 586 49 q 721 336 721 215 l 721 944 l 799 944 l 799 332 q 711 82 799 181 q 463 -17 624 -17 q 215 82 303 -17 q 128 332 128 181 l 128 944 l 204 944 l 204 336 q 274 132 204 215 q 463 49 343 49 z "},"Ű":{"ha":926,"x_min":128,"x_max":799,"o":"m 569 1239 l 661 1239 l 544 1026 l 488 1026 l 569 1239 m 399 1239 l 489 1239 l 369 1026 l 315 1026 l 399 1239 m 463 49 q 653 132 586 49 q 721 336 721 215 l 721 944 l 799 944 l 799 332 q 711 82 799 181 q 463 -17 624 -17 q 215 82 303 -17 q 128 332 128 181 l 128 944 l 204 944 l 204 336 q 274 132 204 215 q 463 49 343 49 z "},"Ų":{"ha":926,"x_min":128,"x_max":799,"o":"m 463 49 q 653 132 586 49 q 721 336 721 215 l 721 944 l 799 944 l 799 332 q 734 109 799 201 q 547 -8 669 17 q 492 -74 517 -35 q 468 -153 468 -114 q 494 -212 468 -194 q 547 -231 521 -231 q 588 -223 569 -231 q 624 -201 607 -215 l 654 -246 q 607 -276 636 -264 q 543 -287 578 -287 q 440 -251 481 -287 q 399 -154 399 -214 q 415 -83 399 -119 q 457 -17 431 -46 q 214 83 300 -15 q 128 332 128 181 l 128 944 l 204 944 l 204 336 q 274 132 204 215 q 463 49 343 49 z "},"Ý":{"ha":751,"x_min":11,"x_max":742,"o":"m 394 1239 l 488 1239 l 368 1026 l 311 1026 l 394 1239 m 333 0 l 335 378 l 11 929 l 94 944 l 372 456 l 656 944 l 742 944 l 411 386 l 411 0 l 333 0 z "},"Ÿ":{"ha":751,"x_min":11,"x_max":742,"o":"m 539 1122 q 523 1083 539 1099 q 483 1067 507 1067 q 444 1083 460 1067 q 428 1122 428 1099 q 444 1160 428 1144 q 483 1176 460 1176 q 523 1160 507 1176 q 539 1122 539 1144 m 321 1122 q 304 1083 321 1099 q 264 1067 288 1067 q 224 1083 240 1067 q 208 1122 208 1099 q 224 1160 208 1144 q 264 1176 240 1176 q 304 1160 288 1176 q 321 1122 321 1144 m 333 0 l 335 378 l 11 929 l 94 944 l 372 456 l 656 944 l 742 944 l 411 386 l 411 0 l 333 0 z "},"Ź":{"ha":753,"x_min":38,"x_max":710,"o":"m 419 1239 l 513 1239 l 393 1026 l 336 1026 l 419 1239 m 689 0 l 46 0 l 38 69 l 632 883 l 89 883 l 75 944 l 703 944 l 710 876 l 119 61 l 682 61 l 689 0 z "},"Ż":{"ha":753,"x_min":38,"x_max":710,"o":"m 458 1126 q 441 1083 458 1100 q 399 1067 424 1067 q 356 1083 372 1067 q 339 1126 339 1100 q 356 1169 339 1151 q 399 1186 372 1186 q 441 1169 424 1186 q 458 1126 458 1151 m 689 0 l 46 0 l 38 69 l 632 883 l 89 883 l 75 944 l 703 944 l 710 876 l 119 61 l 682 61 l 689 0 z "},"Ž":{"ha":753,"x_min":38,"x_max":710,"o":"m 500 1239 l 578 1239 q 501 1133 540 1186 q 425 1026 463 1079 l 356 1026 l 201 1239 l 279 1239 q 335 1160 307 1200 q 389 1081 363 1119 l 500 1239 m 689 0 l 46 0 l 38 69 l 632 883 l 89 883 l 75 944 l 703 944 l 710 876 l 119 61 l 682 61 l 689 0 z "},"Ş":{"ha":740,"x_min":82,"x_max":667,"o":"m 344 46 q 527 98 464 46 q 590 222 590 150 q 336 452 590 379 q 82 739 82 525 q 160 901 82 835 q 372 967 239 967 q 503 950 442 967 q 606 913 564 933 l 575 854 q 493 886 539 871 q 375 901 447 901 q 217 855 275 901 q 158 736 158 808 q 413 492 158 574 q 667 219 667 410 q 594 60 667 128 q 386 -17 521 -8 l 364 -74 q 451 -116 418 -82 q 483 -186 483 -150 q 438 -276 483 -244 q 329 -307 393 -307 q 274 -299 304 -307 q 224 -281 243 -292 l 246 -231 q 282 -243 258 -236 q 328 -250 306 -250 q 389 -233 363 -250 q 415 -189 415 -215 q 380 -136 415 -160 q 285 -110 344 -112 l 321 -17 q 188 4 260 -14 q 93 40 115 22 l 114 100 q 213 64 150 82 q 344 46 275 46 z "},"Ģ":{"ha":893,"x_min":96,"x_max":782,"o":"m 501 475 l 782 475 l 782 43 q 681 2 747 19 q 557 -18 614 -15 l 536 -72 q 622 -116 590 -82 q 654 -186 654 -150 q 610 -276 654 -244 q 501 -307 565 -307 q 444 -299 475 -307 q 396 -281 414 -292 l 417 -229 q 453 -242 429 -235 q 499 -249 478 -249 q 561 -232 535 -249 q 588 -189 588 -215 q 552 -135 588 -160 q 457 -110 517 -111 q 474 -63 465 -87 q 493 -17 483 -39 q 197 133 299 -3 q 96 467 96 269 q 219 825 96 686 q 546 964 343 964 q 663 951 589 964 q 776 913 738 939 l 750 857 q 665 886 707 875 q 549 897 622 897 q 283 779 386 897 q 181 460 181 661 q 278 159 181 269 q 536 49 375 49 q 628 58 586 49 q 706 81 671 68 l 706 417 l 493 417 l 501 475 z "},"Ķ":{"ha":821,"x_min":142,"x_max":807,"o":"m 717 917 l 383 547 l 807 0 l 713 0 l 333 492 l 219 365 l 219 0 l 142 0 l 142 944 l 219 944 l 219 458 l 665 965 l 717 917 m 522 -96 q 488 -216 522 -160 q 399 -299 454 -272 l 375 -260 q 433 -212 410 -239 q 457 -149 456 -185 q 417 -128 431 -147 q 403 -89 403 -108 q 419 -47 403 -65 q 463 -29 436 -29 q 506 -49 489 -29 q 522 -96 522 -68 z "},"Ļ":{"ha":693,"x_min":142,"x_max":664,"o":"m 664 0 l 142 0 l 142 944 l 219 944 l 219 61 l 657 61 l 664 0 m 486 -97 q 452 -216 486 -160 q 363 -299 418 -272 l 339 -261 q 397 -213 374 -240 q 421 -149 419 -186 q 381 -128 394 -147 q 367 -90 367 -108 q 383 -47 367 -65 q 426 -29 400 -29 q 469 -49 453 -29 q 486 -97 486 -69 z "},"Ņ":{"ha":944,"x_min":142,"x_max":804,"o":"m 142 0 l 142 944 l 190 944 l 679 249 l 726 167 l 726 944 l 804 944 l 804 0 l 757 0 l 239 747 l 219 788 l 219 0 l 142 0 m 538 -96 q 503 -215 538 -160 q 414 -297 469 -271 l 390 -260 q 449 -212 425 -239 q 474 -149 472 -186 q 433 -128 447 -147 q 418 -89 418 -108 q 435 -47 418 -65 q 478 -29 451 -29 q 521 -49 504 -29 q 538 -96 538 -69 z "},"Ŗ":{"ha":850,"x_min":142,"x_max":793,"o":"m 381 879 l 219 879 l 219 460 l 365 460 q 555 507 471 460 q 639 672 639 554 q 564 836 639 793 q 381 879 489 879 m 718 675 q 669 517 717 578 q 547 428 622 457 l 793 0 l 706 0 l 481 407 q 422 399 451 401 q 363 397 393 397 l 219 397 l 219 0 l 142 0 l 142 944 l 378 944 q 622 884 525 944 q 718 675 718 824 m 504 -96 q 469 -216 504 -160 q 379 -299 435 -272 l 356 -260 q 413 -212 390 -239 q 438 -149 436 -185 q 397 -128 411 -147 q 383 -89 383 -108 q 399 -47 383 -65 q 443 -29 415 -29 q 487 -49 469 -29 q 504 -96 504 -68 z "},"Ţ":{"ha":714,"x_min":21,"x_max":692,"o":"m 692 883 l 394 883 l 394 0 l 386 0 l 357 -72 q 443 -116 411 -82 q 475 -186 475 -150 q 431 -276 475 -244 q 322 -307 386 -307 q 267 -299 297 -307 q 218 -281 236 -292 l 239 -229 q 275 -242 251 -235 q 321 -249 299 -249 q 382 -232 356 -249 q 408 -189 408 -215 q 373 -135 408 -160 q 278 -110 338 -111 l 317 0 l 317 883 l 21 883 l 21 944 l 685 944 l 692 883 z "},"Ș":{"ha":740,"x_min":82,"x_max":667,"o":"m 344 46 q 527 98 464 46 q 590 222 590 150 q 336 456 590 379 q 82 739 82 532 q 160 899 82 831 q 372 967 239 967 q 503 950 442 967 q 606 913 564 933 l 575 854 q 493 886 539 871 q 375 901 447 901 q 217 855 275 901 q 158 736 158 808 q 413 495 158 574 q 667 219 667 417 q 583 45 667 108 q 346 -18 500 -18 q 201 1 286 -18 q 93 40 117 19 l 114 100 q 213 64 150 82 q 344 46 275 46 m 408 -97 q 374 -216 408 -160 q 285 -299 340 -272 l 261 -261 q 319 -213 296 -240 q 343 -149 342 -186 q 303 -128 317 -147 q 289 -90 289 -108 q 306 -47 289 -65 q 349 -29 322 -29 q 392 -49 375 -29 q 408 -97 408 -69 z "},"Ț":{"ha":714,"x_min":21,"x_max":692,"o":"m 692 883 l 394 883 l 394 0 l 317 0 l 317 883 l 21 883 l 21 944 l 685 944 l 692 883 m 417 -97 q 383 -216 417 -160 q 293 -299 349 -272 l 268 -261 q 326 -213 303 -240 q 351 -149 349 -186 q 310 -128 325 -147 q 296 -90 296 -108 q 313 -47 296 -65 q 357 -29 329 -29 q 400 -49 383 -29 q 417 -97 417 -69 z "},"à":{"ha":681,"x_min":72,"x_max":576,"o":"m 218 1031 l 311 1031 l 396 818 l 338 818 l 218 1031 m 300 46 q 415 78 365 46 q 500 157 465 111 l 500 336 l 314 336 q 190 292 231 336 q 150 189 150 249 q 188 90 150 133 q 300 46 225 46 m 335 692 q 513 631 450 692 q 576 472 576 571 l 576 0 l 529 0 l 504 72 q 415 9 471 36 q 299 -18 360 -18 q 128 42 185 -18 q 72 189 72 101 q 140 338 72 285 q 313 390 207 390 l 500 390 l 500 465 q 460 581 500 535 q 339 626 421 626 q 226 612 268 626 q 146 579 185 597 l 119 633 q 226 676 158 660 q 335 692 293 692 z "},"á":{"ha":681,"x_min":72,"x_max":576,"o":"m 358 1031 l 450 1031 l 332 818 l 274 818 l 358 1031 m 300 46 q 415 78 365 46 q 500 157 465 111 l 500 336 l 314 336 q 190 292 231 336 q 150 189 150 249 q 188 90 150 133 q 300 46 225 46 m 335 692 q 513 631 450 692 q 576 472 576 571 l 576 0 l 529 0 l 504 72 q 415 9 471 36 q 299 -18 360 -18 q 128 42 185 -18 q 72 189 72 101 q 140 338 72 285 q 313 390 207 390 l 500 390 l 500 465 q 460 581 500 535 q 339 626 421 626 q 226 612 268 626 q 146 579 185 597 l 119 633 q 226 676 158 660 q 335 692 293 692 z "},"â":{"ha":681,"x_min":72,"x_max":576,"o":"m 225 818 l 149 818 l 303 1031 l 371 1031 l 525 818 l 447 818 l 338 975 l 225 818 m 300 46 q 415 78 365 46 q 500 157 465 111 l 500 336 l 314 336 q 190 292 231 336 q 150 189 150 249 q 188 90 150 133 q 300 46 225 46 m 335 692 q 513 631 450 692 q 576 472 576 571 l 576 0 l 529 0 l 504 72 q 415 9 471 36 q 299 -18 360 -18 q 128 42 185 -18 q 72 189 72 101 q 140 338 72 285 q 313 390 207 390 l 500 390 l 500 465 q 460 581 500 535 q 339 626 421 626 q 226 612 268 626 q 146 579 185 597 l 119 633 q 226 676 158 660 q 335 692 293 692 z "},"ã":{"ha":681,"x_min":72,"x_max":576,"o":"m 413 844 q 329 881 365 844 q 257 917 293 917 q 218 899 233 917 q 200 850 203 882 l 140 850 q 174 948 140 919 q 257 976 207 976 q 346 940 315 976 q 413 904 376 904 q 452 922 436 904 q 471 971 468 939 l 529 971 q 496 873 529 901 q 413 844 463 844 m 300 46 q 415 78 365 46 q 500 157 465 111 l 500 336 l 314 336 q 190 292 231 336 q 150 189 150 249 q 188 90 150 133 q 300 46 225 46 m 335 692 q 513 631 450 692 q 576 472 576 571 l 576 0 l 529 0 l 504 72 q 415 9 471 36 q 299 -18 360 -18 q 128 42 185 -18 q 72 189 72 101 q 140 338 72 285 q 313 390 207 390 l 500 390 l 500 465 q 460 581 500 535 q 339 626 421 626 q 226 612 268 626 q 146 579 185 597 l 119 633 q 226 676 158 660 q 335 692 293 692 z "},"ä":{"ha":681,"x_min":72,"x_max":576,"o":"m 503 914 q 486 874 503 890 q 447 858 469 858 q 407 874 422 858 q 392 914 392 890 q 407 952 392 936 q 447 968 422 968 q 486 952 469 968 q 503 914 503 936 m 285 914 q 268 874 285 890 q 229 858 251 858 q 188 874 203 858 q 172 914 172 890 q 188 952 172 936 q 229 968 203 968 q 268 952 251 968 q 285 914 285 936 m 300 46 q 415 78 365 46 q 500 157 465 111 l 500 336 l 314 336 q 190 292 231 336 q 150 189 150 249 q 188 90 150 133 q 300 46 225 46 m 335 692 q 513 631 450 692 q 576 472 576 571 l 576 0 l 529 0 l 504 72 q 415 9 471 36 q 299 -18 360 -18 q 128 42 185 -18 q 72 189 72 101 q 140 338 72 285 q 313 390 207 390 l 500 390 l 500 465 q 460 581 500 535 q 339 626 421 626 q 226 612 268 626 q 146 579 185 597 l 119 633 q 226 676 158 660 q 335 692 293 692 z "},"å":{"ha":681,"x_min":72,"x_max":576,"o":"m 460 938 q 424 857 460 889 q 338 825 388 825 q 251 857 288 825 q 214 938 214 889 q 251 1021 214 988 q 338 1054 288 1054 q 424 1021 388 1054 q 460 938 460 988 m 403 938 q 384 985 403 967 q 338 1004 365 1004 q 291 985 310 1004 q 272 938 272 967 q 291 891 272 910 q 338 872 310 872 q 384 891 365 872 q 403 938 403 910 m 300 46 q 415 78 365 46 q 500 157 465 111 l 500 336 l 314 336 q 190 292 231 336 q 150 189 150 249 q 188 90 150 133 q 300 46 225 46 m 335 692 q 513 631 450 692 q 576 472 576 571 l 576 0 l 529 0 l 504 72 q 415 9 471 36 q 299 -18 360 -18 q 128 42 185 -18 q 72 189 72 101 q 140 338 72 285 q 313 390 207 390 l 500 390 l 500 465 q 460 581 500 535 q 339 626 421 626 q 226 612 268 626 q 146 579 185 597 l 119 633 q 226 676 158 660 q 335 692 293 692 z "},"ā":{"ha":681,"x_min":72,"x_max":576,"o":"m 169 949 l 504 949 l 504 889 l 169 889 l 169 949 m 300 46 q 415 78 365 46 q 500 157 465 111 l 500 336 l 314 336 q 190 292 231 336 q 150 189 150 249 q 188 90 150 133 q 300 46 225 46 m 335 692 q 513 631 450 692 q 576 472 576 571 l 576 0 l 529 0 l 504 72 q 415 9 471 36 q 299 -18 360 -18 q 128 42 185 -18 q 72 189 72 101 q 140 338 72 285 q 313 390 207 390 l 500 390 l 500 465 q 460 581 500 535 q 339 626 421 626 q 226 612 268 626 q 146 579 185 597 l 119 633 q 226 676 158 660 q 335 692 293 692 z "},"ă":{"ha":681,"x_min":72,"x_max":576,"o":"m 336 835 q 201 891 244 836 q 157 1015 157 946 l 217 1015 q 248 933 217 972 q 336 894 279 894 q 425 932 394 894 q 456 1015 456 969 l 517 1015 q 473 891 517 946 q 336 835 429 836 m 300 46 q 415 78 365 46 q 500 157 465 111 l 500 336 l 314 336 q 190 292 231 336 q 150 189 150 249 q 188 90 150 133 q 300 46 225 46 m 335 692 q 513 631 450 692 q 576 472 576 571 l 576 0 l 529 0 l 504 72 q 415 9 471 36 q 299 -18 360 -18 q 128 42 185 -18 q 72 189 72 101 q 140 338 72 285 q 313 390 207 390 l 500 390 l 500 465 q 460 581 500 535 q 339 626 421 626 q 226 612 268 626 q 146 579 185 597 l 119 633 q 226 676 158 660 q 335 692 293 692 z "},"ą":{"ha":681,"x_min":72,"x_max":681,"o":"m 335 692 q 513 631 450 692 q 576 472 576 571 l 576 0 q 520 -66 546 -26 q 494 -150 494 -106 q 521 -211 494 -192 q 574 -231 547 -231 q 615 -223 596 -231 q 650 -201 633 -215 l 681 -246 q 633 -276 663 -264 q 568 -287 603 -287 q 465 -251 507 -287 q 424 -154 424 -214 q 453 -56 424 -104 q 519 22 483 -7 l 504 72 q 415 9 471 36 q 299 -18 360 -18 q 128 42 185 -18 q 72 189 72 101 q 140 338 72 285 q 313 390 207 390 l 500 390 l 500 465 q 460 581 500 535 q 339 626 421 626 q 226 612 268 626 q 146 579 185 597 l 119 633 q 226 676 158 660 q 335 692 293 692 m 300 46 q 415 78 365 46 q 500 157 465 111 l 500 336 l 314 336 q 190 292 231 336 q 150 189 150 249 q 188 90 150 133 q 300 46 225 46 z "},"ç":{"ha":633,"x_min":69,"x_max":568,"o":"m 561 39 q 475 1 524 17 q 383 -17 426 -14 l 363 -74 q 449 -116 417 -82 q 482 -186 482 -150 q 437 -276 482 -244 q 328 -307 392 -307 q 272 -299 303 -307 q 222 -281 240 -292 l 244 -231 q 280 -243 256 -236 q 326 -250 304 -250 q 388 -233 361 -250 q 414 -189 414 -215 q 378 -136 414 -160 q 283 -110 343 -112 l 319 -15 q 131 97 193 -1 q 69 340 69 196 q 147 592 71 492 q 372 692 224 692 q 470 676 413 692 q 568 633 528 660 l 540 579 q 471 611 506 596 q 368 626 436 626 q 203 545 257 626 q 149 342 149 464 q 198 133 149 221 q 361 46 247 46 q 465 60 432 46 q 533 93 497 75 l 561 39 z "},"ć":{"ha":633,"x_min":69,"x_max":568,"o":"m 386 1031 l 478 1031 l 360 818 l 301 818 l 386 1031 m 363 -18 q 142 83 214 -18 q 69 340 69 183 q 147 592 69 492 q 372 692 224 692 q 470 676 413 692 q 568 633 528 660 l 540 579 q 471 611 506 596 q 368 626 436 626 q 203 543 257 626 q 149 342 149 460 q 198 132 149 218 q 361 46 247 46 q 465 60 432 46 q 533 93 497 75 l 561 39 q 463 -3 519 13 q 363 -18 406 -18 z "},"č":{"ha":633,"x_min":69,"x_max":568,"o":"m 481 1031 l 557 1031 q 480 924 518 978 q 404 818 442 871 l 335 818 l 182 1031 l 260 1031 q 314 951 286 992 q 369 872 342 911 l 481 1031 m 363 -18 q 142 83 214 -18 q 69 340 69 183 q 147 592 69 492 q 372 692 225 692 q 470 676 413 692 q 568 633 528 660 l 540 579 q 471 611 506 596 q 368 626 436 626 q 203 543 258 626 q 149 342 149 460 q 198 132 149 218 q 361 46 247 46 q 465 60 432 46 q 533 93 497 75 l 561 39 q 463 -3 519 13 q 363 -18 406 -18 z "},"ď":{"ha":926,"x_min":69,"x_max":901,"o":"m 901 907 q 868 788 901 843 q 779 706 835 732 l 754 743 q 812 791 789 764 q 838 854 835 818 q 797 875 811 856 q 782 914 782 894 q 799 956 782 938 q 842 975 815 975 q 885 955 868 975 q 901 907 901 935 m 361 626 q 198 543 247 626 q 149 338 149 460 q 198 131 149 214 q 361 47 247 47 q 453 67 403 47 q 546 128 503 88 l 546 544 q 453 606 503 585 q 361 626 403 626 m 624 979 l 624 0 l 576 0 l 554 60 q 459 3 511 25 q 358 -18 407 -18 q 140 81 211 -18 q 69 335 69 181 q 140 591 69 490 q 358 692 211 692 q 455 670 404 692 q 546 617 506 649 l 546 967 l 624 979 z "},"è":{"ha":707,"x_min":69,"x_max":640,"o":"m 247 1031 l 339 1031 l 424 818 l 365 818 l 247 1031 m 640 333 l 149 333 q 205 128 150 213 q 385 44 260 44 q 503 59 458 44 q 583 92 549 74 l 613 35 q 502 -5 571 8 q 393 -18 433 -18 q 149 83 228 -18 q 69 340 69 183 q 145 592 69 492 q 369 692 221 692 q 572 590 503 692 q 640 333 640 488 m 363 626 q 212 557 263 626 q 151 389 161 488 l 561 389 q 507 557 551 488 q 363 626 463 626 z "},"é":{"ha":707,"x_min":69,"x_max":640,"o":"m 386 1031 l 478 1031 l 360 818 l 301 818 l 386 1031 m 640 333 l 149 333 q 205 128 150 213 q 385 44 260 44 q 503 59 458 44 q 583 92 549 74 l 613 35 q 502 -5 571 8 q 393 -18 433 -18 q 149 83 228 -18 q 69 340 69 183 q 145 592 69 492 q 369 692 221 692 q 572 590 503 692 q 640 333 640 488 m 363 626 q 212 557 263 626 q 151 389 161 488 l 561 389 q 507 557 551 488 q 363 626 463 626 z "},"ê":{"ha":707,"x_min":69,"x_max":640,"o":"m 254 818 l 176 818 l 331 1031 l 399 1031 l 553 818 l 474 818 l 365 975 l 254 818 m 640 333 l 149 333 q 205 128 150 213 q 385 44 260 44 q 503 59 458 44 q 583 92 549 74 l 613 35 q 502 -5 571 8 q 393 -18 433 -18 q 149 83 228 -18 q 69 340 69 183 q 145 592 69 492 q 369 692 221 692 q 572 590 503 692 q 640 333 640 488 m 363 626 q 212 557 263 626 q 151 389 161 488 l 561 389 q 507 557 551 488 q 363 626 463 626 z "},"ë":{"ha":707,"x_min":69,"x_max":640,"o":"m 531 914 q 514 874 531 890 q 475 858 497 858 q 434 874 450 858 q 418 914 418 890 q 434 952 418 936 q 475 968 450 968 q 514 952 497 968 q 531 914 531 936 m 313 914 q 296 874 313 890 q 256 858 279 858 q 215 874 231 858 q 200 914 200 890 q 215 952 200 936 q 256 968 231 968 q 296 952 279 968 q 313 914 313 936 m 640 333 l 149 333 q 205 128 150 213 q 385 44 260 44 q 503 59 458 44 q 583 92 549 74 l 613 35 q 502 -5 571 8 q 393 -18 433 -18 q 149 83 228 -18 q 69 340 69 183 q 145 592 69 492 q 369 692 221 692 q 572 590 503 692 q 640 333 640 488 m 363 626 q 212 557 263 626 q 151 389 161 488 l 561 389 q 507 557 551 488 q 363 626 463 626 z "},"ē":{"ha":707,"x_min":69,"x_max":640,"o":"m 197 949 l 532 949 l 532 889 l 197 889 l 197 949 m 640 333 l 149 333 q 205 128 150 213 q 385 44 260 44 q 503 59 458 44 q 583 92 549 74 l 613 35 q 502 -5 571 8 q 393 -18 433 -18 q 149 83 228 -18 q 69 340 69 183 q 145 592 69 492 q 369 692 221 692 q 572 590 503 692 q 640 333 640 488 m 363 626 q 212 557 263 626 q 151 389 161 488 l 561 389 q 507 557 551 488 q 363 626 463 626 z "},"ė":{"ha":707,"x_min":69,"x_max":640,"o":"m 425 918 q 407 875 425 892 q 365 858 389 858 q 322 875 339 858 q 306 918 306 892 q 322 960 306 943 q 365 978 339 978 q 407 960 389 978 q 425 918 425 943 m 640 333 l 149 333 q 205 128 150 213 q 385 44 260 44 q 503 59 458 44 q 583 92 549 74 l 613 35 q 502 -5 571 8 q 393 -18 433 -18 q 149 83 228 -18 q 69 340 69 183 q 145 592 69 492 q 369 692 221 692 q 572 590 503 692 q 640 333 640 488 m 363 626 q 212 557 263 626 q 151 389 161 488 l 561 389 q 507 557 551 488 q 363 626 463 626 z "},"ę":{"ha":707,"x_min":69,"x_max":640,"o":"m 640 333 l 149 333 q 205 128 150 213 q 385 44 260 44 q 503 59 458 44 q 583 92 549 74 l 613 35 q 558 10 590 21 q 496 -6 526 0 q 439 -71 464 -31 q 414 -151 414 -111 q 440 -211 414 -193 q 493 -229 467 -229 q 534 -222 515 -229 q 568 -200 553 -214 q 585 -223 576 -211 q 600 -246 593 -235 q 553 -276 582 -264 q 489 -287 524 -287 q 385 -251 426 -287 q 343 -154 343 -214 q 360 -83 343 -119 q 403 -17 376 -46 l 392 -17 q 149 85 228 -17 q 69 340 69 186 q 146 592 69 492 q 369 692 222 692 q 572 590 503 692 q 640 333 640 488 m 363 626 q 212 557 263 626 q 151 389 161 488 l 561 389 q 507 557 551 488 q 363 626 463 626 z "},"ě":{"ha":707,"x_min":69,"x_max":640,"o":"m 478 1031 l 554 1031 q 477 924 515 978 q 401 818 439 871 l 332 818 l 179 1031 l 257 1031 q 311 951 283 992 q 367 872 339 911 l 478 1031 m 640 333 l 149 333 q 205 128 150 213 q 385 44 260 44 q 503 59 458 44 q 583 92 549 74 l 613 35 q 502 -5 571 8 q 393 -18 433 -18 q 149 83 228 -18 q 69 340 69 183 q 146 592 69 492 q 369 692 222 692 q 572 590 503 692 q 640 333 640 488 m 363 626 q 212 557 263 626 q 151 389 161 488 l 561 389 q 507 557 551 488 q 363 626 463 626 z "},"ğ":{"ha":738,"x_min":69,"x_max":624,"o":"m 358 835 q 222 891 267 836 q 178 1015 178 946 l 239 1015 q 270 933 239 972 q 358 894 301 894 q 447 932 415 894 q 478 1015 478 969 l 538 1015 q 494 891 538 946 q 358 835 451 836 m 361 626 q 198 543 247 626 q 149 338 149 460 q 198 131 149 214 q 361 47 247 47 q 453 67 403 47 q 546 128 503 88 l 546 544 q 453 606 503 585 q 361 626 403 626 m 361 -307 q 253 -292 321 -307 q 146 -250 185 -276 l 172 -194 q 252 -228 214 -212 q 358 -243 290 -243 q 494 -203 443 -243 q 546 -81 546 -164 l 546 56 q 455 2 506 22 q 358 -18 404 -18 q 140 81 211 -18 q 69 335 69 181 q 140 591 69 490 q 358 692 211 692 q 459 669 407 692 q 553 611 511 646 l 576 674 l 624 674 l 624 -74 q 558 -240 624 -174 q 361 -307 493 -307 z "},"ì":{"ha":306,"x_min":17,"x_max":193,"o":"m 17 1031 l 108 1031 l 193 818 l 135 818 l 17 1031 m 114 0 l 114 674 l 192 674 l 192 0 l 114 0 z "},"í":{"ha":306,"x_min":113,"x_max":289,"o":"m 196 1031 l 289 1031 l 169 818 l 113 818 l 196 1031 m 114 0 l 114 674 l 192 674 l 192 0 l 114 0 z "},"î":{"ha":306,"x_min":-36,"x_max":342,"o":"m 42 818 l -36 818 l 118 1031 l 188 1031 l 342 818 l 263 818 l 154 975 l 42 818 m 114 0 l 114 674 l 192 674 l 192 0 l 114 0 z "},"ï":{"ha":306,"x_min":-12,"x_max":319,"o":"m 319 914 q 302 874 319 890 q 263 858 285 858 q 222 874 239 858 q 206 914 206 890 q 222 952 206 936 q 263 968 239 968 q 302 952 285 968 q 319 914 319 936 m 100 914 q 83 874 100 890 q 43 858 65 858 q 3 874 19 858 q -12 914 -12 890 q 3 952 -12 936 q 43 968 19 968 q 83 952 65 968 q 100 914 100 936 m 114 0 l 114 674 l 192 674 l 192 0 l 114 0 z "},"ī":{"ha":306,"x_min":-15,"x_max":321,"o":"m -15 949 l 321 949 l 321 889 l -15 889 l -15 949 m 114 0 l 114 674 l 192 674 l 192 0 l 114 0 z "},"į":{"ha":311,"x_min":32,"x_max":289,"o":"m 96 886 q 113 928 96 911 q 156 944 129 944 q 197 928 179 944 q 215 886 215 911 q 197 843 215 860 q 156 826 179 826 q 113 843 129 826 q 96 886 96 860 m 117 7 l 117 674 l 194 674 l 194 0 q 132 -65 161 -24 q 103 -151 103 -106 q 129 -211 103 -193 q 183 -229 156 -229 q 224 -222 206 -229 q 258 -200 242 -214 l 289 -246 q 241 -276 271 -264 q 176 -287 211 -287 q 74 -251 115 -287 q 32 -154 32 -214 q 57 -67 32 -111 q 117 7 82 -22 z "},"ľ":{"ha":494,"x_min":114,"x_max":469,"o":"m 114 0 l 114 967 l 190 981 l 190 0 l 114 0 m 469 907 q 435 788 469 843 q 346 706 401 732 l 322 743 q 380 791 357 764 q 404 854 403 818 q 364 875 378 856 q 350 914 350 894 q 366 956 350 938 q 408 975 382 975 q 452 955 435 975 q 469 907 469 935 z "},"ñ":{"ha":742,"x_min":114,"x_max":638,"o":"m 476 844 q 392 881 429 844 q 319 917 356 917 q 281 899 296 917 q 263 850 265 882 l 203 850 q 238 948 203 919 q 319 976 272 976 q 409 940 378 976 q 475 904 440 904 q 515 922 499 904 q 533 971 531 939 l 592 971 q 559 873 592 901 q 476 844 526 844 m 114 0 l 114 674 l 161 674 l 189 568 q 299 655 232 618 q 428 692 365 692 q 587 628 536 692 q 638 468 638 565 l 638 0 l 560 0 l 560 460 q 526 577 560 528 q 418 626 492 626 q 306 593 374 626 q 190 500 238 560 l 190 0 l 114 0 z "},"ń":{"ha":742,"x_min":114,"x_max":638,"o":"m 442 1031 l 535 1031 l 415 818 l 358 818 l 442 1031 m 114 0 l 114 674 l 161 674 l 189 568 q 299 655 232 618 q 428 692 365 692 q 587 628 536 692 q 638 468 638 565 l 638 0 l 560 0 l 560 460 q 526 577 560 529 q 418 626 492 625 q 306 593 374 626 q 190 500 238 560 l 190 0 l 114 0 z "},"ň":{"ha":742,"x_min":114,"x_max":638,"o":"m 515 1031 l 593 1031 l 439 818 l 371 818 l 217 1031 l 294 1031 l 406 872 l 515 1031 m 114 0 l 114 674 l 161 674 l 189 568 q 299 655 232 618 q 428 692 365 692 q 587 628 536 692 q 638 468 638 565 l 638 0 l 560 0 l 560 460 q 526 577 560 528 q 418 626 492 626 q 306 593 374 626 q 190 500 238 560 l 190 0 l 114 0 z "},"ò":{"ha":711,"x_min":69,"x_max":642,"o":"m 240 1031 l 332 1031 l 417 818 l 358 818 l 240 1031 m 69 340 q 143 590 71 489 q 360 692 215 692 q 575 590 508 692 q 642 332 642 488 q 567 81 642 179 q 346 -18 492 -18 q 135 85 200 -17 q 69 340 69 188 m 363 628 q 200 544 251 628 q 149 342 149 460 q 192 132 149 218 q 347 46 235 46 q 512 128 460 46 q 564 332 564 211 q 520 540 564 453 q 363 628 476 628 z "},"ó":{"ha":711,"x_min":69,"x_max":642,"o":"m 379 1031 l 472 1031 l 353 818 l 296 818 l 379 1031 m 69 340 q 143 590 71 489 q 360 692 215 692 q 575 590 508 692 q 642 332 642 488 q 567 81 642 179 q 346 -18 492 -18 q 135 85 200 -17 q 69 340 69 188 m 363 628 q 200 544 251 628 q 149 342 149 460 q 192 132 149 218 q 347 46 235 46 q 512 128 460 46 q 564 332 564 211 q 520 540 564 453 q 363 628 476 628 z "},"ô":{"ha":711,"x_min":69,"x_max":642,"o":"m 247 818 l 171 818 l 324 1031 l 392 1031 l 547 818 l 468 818 l 358 975 l 247 818 m 69 340 q 143 590 71 489 q 360 692 215 692 q 575 590 508 692 q 642 332 642 488 q 567 81 642 179 q 346 -18 492 -18 q 135 85 200 -17 q 69 340 69 188 m 363 628 q 200 544 251 628 q 149 342 149 460 q 192 132 149 218 q 347 46 235 46 q 512 128 460 46 q 564 332 564 211 q 520 540 564 453 q 363 628 476 628 z "},"õ":{"ha":711,"x_min":69,"x_max":642,"o":"m 435 844 q 351 881 388 844 q 279 917 314 917 q 239 899 254 917 q 221 850 224 882 l 161 850 q 194 948 161 919 q 276 976 228 976 q 367 940 336 976 q 435 904 399 904 q 473 922 457 904 q 492 971 489 939 l 550 971 q 517 873 550 901 q 435 844 483 844 m 69 340 q 143 590 71 489 q 360 692 215 692 q 575 590 508 692 q 642 332 642 488 q 566 81 642 179 q 346 -18 490 -18 q 135 85 200 -18 q 69 340 69 188 m 363 628 q 201 544 253 628 q 149 342 149 460 q 192 132 149 218 q 347 46 235 46 q 511 128 458 46 q 564 332 564 211 q 520 540 564 453 q 363 628 476 628 z "},"ö":{"ha":711,"x_min":69,"x_max":642,"o":"m 532 914 q 515 874 532 890 q 475 858 499 858 q 435 874 451 858 q 419 914 419 890 q 435 952 419 936 q 475 968 451 968 q 515 952 499 968 q 532 914 532 936 m 313 914 q 296 874 313 890 q 257 858 279 858 q 216 874 232 858 q 200 914 200 890 q 216 952 200 936 q 257 968 232 968 q 296 952 279 968 q 313 914 313 936 m 69 340 q 143 590 71 489 q 360 692 215 692 q 575 590 508 692 q 642 332 642 488 q 567 81 642 179 q 346 -18 492 -18 q 135 85 200 -17 q 69 340 69 188 m 363 628 q 200 544 251 628 q 149 342 149 460 q 192 132 149 218 q 347 46 235 46 q 512 128 460 46 q 564 332 564 211 q 520 540 564 453 q 363 628 476 628 z "},"ō":{"ha":711,"x_min":69,"x_max":642,"o":"m 192 949 l 526 949 l 526 889 l 192 889 l 192 949 m 69 340 q 143 590 71 489 q 360 692 215 692 q 575 590 508 692 q 642 332 642 488 q 567 81 642 179 q 346 -18 492 -18 q 135 85 200 -17 q 69 340 69 188 m 363 628 q 200 544 251 628 q 149 342 149 460 q 192 132 149 218 q 347 46 235 46 q 512 128 460 46 q 564 332 564 211 q 520 540 564 453 q 363 628 476 628 z "},"ő":{"ha":711,"x_min":69,"x_max":642,"o":"m 472 1031 l 564 1031 l 446 818 l 390 818 l 472 1031 m 301 1031 l 392 1031 l 274 818 l 218 818 l 301 1031 m 69 340 q 143 590 71 489 q 360 692 215 692 q 575 590 508 692 q 642 332 642 488 q 567 81 642 179 q 346 -18 492 -18 q 135 85 200 -17 q 69 340 69 188 m 363 628 q 200 544 251 628 q 149 342 149 460 q 192 132 149 218 q 347 46 235 46 q 512 128 460 46 q 564 332 564 211 q 520 540 564 453 q 363 628 476 628 z "},"ŕ":{"ha":438,"x_min":114,"x_max":417,"o":"m 269 1031 l 363 1031 l 244 818 l 186 818 l 269 1031 m 114 0 l 114 674 l 161 674 l 186 581 q 281 642 222 611 q 393 674 340 674 l 417 613 q 291 578 353 613 q 190 501 229 544 l 190 0 l 114 0 z "},"ř":{"ha":438,"x_min":31,"x_max":417,"o":"m 329 1031 l 407 1031 l 253 818 l 185 818 l 31 1031 l 108 1031 q 164 951 136 992 q 218 872 192 911 l 329 1031 m 114 0 l 114 674 l 161 674 l 186 581 q 281 642 222 611 q 393 674 340 674 l 417 613 q 291 578 353 613 q 190 501 229 544 l 190 0 l 114 0 z "},"ś":{"ha":610,"x_min":78,"x_max":540,"o":"m 338 1031 l 429 1031 l 311 818 l 254 818 l 338 1031 m 288 46 q 418 77 371 46 q 465 165 465 108 q 413 251 465 214 q 288 314 361 288 q 144 388 208 342 q 81 506 81 433 q 143 640 81 589 q 319 692 206 692 q 422 676 363 692 q 517 636 482 661 l 489 579 q 419 610 461 593 q 314 626 376 626 q 200 593 243 626 q 157 511 157 560 q 206 433 157 464 q 326 375 256 401 q 474 295 408 344 q 540 171 540 246 q 477 32 540 82 q 285 -18 414 -18 q 180 -5 243 -18 q 78 35 117 8 l 104 96 q 188 62 140 78 q 288 46 235 46 z "},"š":{"ha":610,"x_min":78,"x_max":540,"o":"m 426 1031 l 503 1031 l 349 818 l 281 818 l 126 1031 l 204 1031 q 260 951 232 992 q 314 872 288 911 l 426 1031 m 288 46 q 418 77 371 46 q 465 165 465 108 q 273 319 465 278 q 81 506 81 361 q 143 640 81 589 q 319 692 206 692 q 422 676 363 692 q 517 636 482 661 l 489 579 q 419 610 461 593 q 314 626 376 626 q 200 593 243 626 q 157 511 157 560 q 349 364 157 408 q 540 171 540 319 q 477 32 540 82 q 285 -18 414 -18 q 180 -5 243 -18 q 78 35 117 8 l 104 96 q 188 62 140 78 q 288 46 235 46 z "},"ť":{"ha":603,"x_min":26,"x_max":579,"o":"m 579 907 q 545 788 579 843 q 456 706 511 732 l 432 743 q 490 791 467 764 q 514 854 513 818 q 473 875 488 856 q 458 914 458 894 q 475 956 458 938 q 519 975 492 975 q 563 955 546 975 q 579 907 579 935 m 356 597 l 204 597 l 204 171 q 226 84 204 121 q 299 47 247 47 q 331 52 314 47 q 356 60 349 57 l 372 -1 q 334 -11 358 -4 q 281 -18 310 -18 q 169 28 211 -18 q 126 161 126 74 l 126 597 l 26 597 l 26 656 l 126 656 l 126 835 l 204 865 l 204 656 l 326 656 l 356 597 z "},"ù":{"ha":713,"x_min":104,"x_max":600,"o":"m 233 1031 l 324 1031 l 408 818 l 350 818 l 233 1031 m 600 674 l 600 0 l 550 0 l 524 76 q 424 10 481 38 q 314 -17 368 -17 q 153 46 203 -17 q 104 208 104 108 l 104 674 l 181 674 l 181 213 q 215 97 181 144 q 321 49 250 49 q 417 73 360 49 q 522 143 474 97 l 522 674 l 600 674 z "},"ú":{"ha":713,"x_min":104,"x_max":600,"o":"m 371 1031 l 464 1031 l 344 818 l 289 818 l 371 1031 m 600 674 l 600 0 l 550 0 l 524 76 q 424 10 481 38 q 314 -17 368 -17 q 153 46 203 -17 q 104 208 104 108 l 104 674 l 181 674 l 181 213 q 215 97 181 144 q 321 49 250 49 q 417 73 360 49 q 522 143 474 97 l 522 674 l 600 674 z "},"û":{"ha":713,"x_min":104,"x_max":600,"o":"m 247 818 l 169 818 l 322 1031 l 392 1031 l 546 818 l 468 818 l 358 975 l 247 818 m 600 674 l 600 0 l 550 0 l 524 76 q 424 10 481 38 q 314 -17 368 -17 q 153 46 203 -17 q 104 208 104 108 l 104 674 l 181 674 l 181 213 q 215 97 181 144 q 321 49 250 49 q 417 73 360 49 q 522 143 474 97 l 522 674 l 600 674 z "},"ü":{"ha":713,"x_min":104,"x_max":600,"o":"m 524 914 q 507 874 524 890 q 468 858 490 858 q 428 874 444 858 q 411 914 411 890 q 428 952 411 936 q 468 968 444 968 q 507 952 490 968 q 524 914 524 936 m 304 914 q 288 874 304 890 q 249 858 271 858 q 208 874 224 858 q 192 914 192 890 q 208 952 192 936 q 249 968 224 968 q 288 952 271 968 q 304 914 304 936 m 600 674 l 600 0 l 550 0 l 524 76 q 424 10 481 38 q 314 -17 368 -17 q 153 46 203 -17 q 104 208 104 108 l 104 674 l 181 674 l 181 213 q 215 97 181 144 q 321 49 250 49 q 417 73 360 49 q 522 143 474 97 l 522 674 l 600 674 z "},"ū":{"ha":713,"x_min":104,"x_max":600,"o":"m 183 949 l 519 949 l 519 889 l 183 889 l 183 949 m 600 674 l 600 0 l 550 0 l 524 76 q 424 10 481 38 q 314 -17 368 -17 q 153 46 203 -17 q 104 208 104 108 l 104 674 l 181 674 l 181 213 q 215 97 181 144 q 321 49 250 49 q 417 73 360 49 q 522 143 474 97 l 522 674 l 600 674 z "},"ů":{"ha":713,"x_min":104,"x_max":600,"o":"m 475 938 q 438 857 475 889 q 353 825 401 825 q 266 857 303 825 q 229 938 229 889 q 266 1021 229 988 q 353 1054 303 1054 q 438 1021 401 1054 q 475 938 475 988 m 417 938 q 399 985 417 967 q 353 1004 382 1004 q 306 985 325 1004 q 288 938 288 967 q 306 891 288 910 q 353 872 325 872 q 399 891 382 872 q 417 938 417 910 m 600 674 l 600 0 l 550 0 l 524 76 q 424 10 481 38 q 314 -17 368 -17 q 153 46 203 -17 q 104 208 104 108 l 104 674 l 181 674 l 181 213 q 215 97 181 144 q 321 49 250 49 q 417 73 360 49 q 522 143 474 97 l 522 674 l 600 674 z "},"ű":{"ha":713,"x_min":104,"x_max":600,"o":"m 464 1031 l 556 1031 l 439 818 l 382 818 l 464 1031 m 293 1031 l 385 1031 l 265 818 l 210 818 l 293 1031 m 600 674 l 600 0 l 550 0 l 524 76 q 424 10 481 38 q 314 -17 368 -17 q 153 46 203 -17 q 104 208 104 108 l 104 674 l 181 674 l 181 213 q 215 97 181 144 q 321 49 250 49 q 417 73 360 49 q 522 143 474 97 l 522 674 l 600 674 z "},"ų":{"ha":713,"x_min":104,"x_max":700,"o":"m 600 674 l 600 0 q 541 -67 568 -28 q 514 -153 514 -106 q 540 -212 514 -194 q 593 -231 565 -231 q 633 -223 615 -231 q 668 -201 651 -215 l 700 -246 q 652 -276 682 -264 q 588 -287 622 -287 q 485 -251 526 -287 q 443 -154 443 -214 q 472 -55 443 -103 q 542 24 500 -7 l 524 76 q 424 10 481 38 q 314 -17 368 -17 q 153 46 203 -17 q 104 208 104 108 l 104 674 l 181 674 l 181 213 q 215 97 181 144 q 321 49 250 49 q 417 73 360 49 q 522 143 474 97 l 522 674 l 600 674 z "},"ý":{"ha":628,"x_min":21,"x_max":607,"o":"m 343 1031 l 436 1031 l 317 818 l 260 818 l 343 1031 m 286 -4 l 21 660 l 99 674 l 319 96 q 426 385 372 240 q 531 674 479 529 l 607 674 l 307 -156 q 238 -250 289 -208 q 122 -304 186 -292 l 107 -250 q 192 -206 158 -229 q 242 -136 226 -183 l 286 -4 z "},"ÿ":{"ha":628,"x_min":21,"x_max":607,"o":"m 376 914 q 392 952 376 936 q 433 968 408 968 q 472 952 456 968 q 489 914 489 936 q 472 874 489 890 q 433 858 456 858 q 392 874 408 858 q 376 914 376 890 m 158 914 q 174 952 158 936 q 214 968 189 968 q 253 952 236 968 q 269 914 269 936 q 253 874 269 890 q 214 858 236 858 q 174 874 189 858 q 158 914 158 890 m 286 -4 l 21 660 l 99 674 l 319 96 q 426 385 372 240 q 531 674 479 529 l 607 674 l 307 -156 q 238 -250 289 -208 q 122 -304 186 -292 l 107 -250 q 192 -206 158 -229 q 242 -136 226 -183 l 286 -4 z "},"ź":{"ha":632,"x_min":51,"x_max":581,"o":"m 368 1031 l 460 1031 l 342 818 l 285 818 l 368 1031 m 581 629 l 147 58 l 558 58 l 572 0 l 63 0 l 51 43 l 479 614 l 114 614 l 92 674 l 576 674 l 581 629 z "},"ż":{"ha":632,"x_min":51,"x_max":581,"o":"m 404 918 q 387 875 404 892 q 343 858 369 858 q 301 875 317 858 q 285 918 285 892 q 301 960 285 943 q 343 978 317 978 q 387 960 369 978 q 404 918 404 943 m 581 629 l 147 58 l 558 58 l 572 0 l 63 0 l 51 43 l 479 614 l 114 614 l 92 674 l 576 674 l 581 629 z "},"ž":{"ha":632,"x_min":51,"x_max":581,"o":"m 451 1031 l 529 1031 q 453 924 492 978 q 376 818 414 871 l 307 818 l 153 1031 l 232 1031 l 340 872 l 451 1031 m 581 629 l 147 58 l 558 58 l 572 0 l 63 0 l 51 43 q 265 328 157 185 q 479 614 374 472 l 114 614 l 92 674 l 576 674 l 581 629 z "},"ş":{"ha":610,"x_min":78,"x_max":540,"o":"m 288 46 q 418 77 371 46 q 465 165 465 108 q 413 251 465 214 q 288 314 361 288 q 144 388 208 342 q 81 506 81 433 q 143 640 81 589 q 319 692 206 692 q 422 676 363 692 q 517 636 482 661 l 489 579 q 419 610 461 593 q 314 626 376 626 q 200 593 243 626 q 157 511 157 560 q 206 433 157 464 q 326 375 256 401 q 474 295 408 344 q 540 171 540 246 q 485 38 540 88 q 318 -17 431 -11 l 296 -74 q 383 -116 350 -82 q 415 -186 415 -150 q 371 -276 415 -244 q 263 -307 326 -307 q 206 -299 236 -307 q 157 -281 175 -292 l 178 -231 q 214 -243 190 -236 q 260 -250 238 -250 q 322 -233 296 -250 q 347 -189 347 -215 q 313 -136 347 -160 q 218 -110 278 -112 l 253 -17 q 160 0 211 -12 q 78 35 110 13 l 104 96 q 188 62 140 78 q 288 46 235 46 z "},"ķ":{"ha":649,"x_min":114,"x_max":635,"o":"m 114 0 l 114 967 l 190 981 l 190 368 l 503 692 l 556 644 l 343 429 l 635 0 l 542 0 l 292 378 l 190 275 l 190 0 l 114 0 m 410 -97 q 375 -216 410 -160 q 285 -299 340 -272 l 261 -261 q 319 -213 296 -240 q 344 -149 342 -186 q 303 -128 318 -147 q 289 -90 289 -108 q 306 -47 289 -65 q 349 -29 322 -29 q 392 -49 375 -29 q 410 -97 410 -69 z "},"ļ":{"ha":304,"x_min":65,"x_max":213,"o":"m 114 0 l 114 967 l 190 981 l 190 0 l 114 0 m 213 -97 q 179 -216 213 -160 q 90 -299 146 -272 l 65 -261 q 123 -213 100 -240 q 149 -149 146 -186 q 108 -128 122 -147 q 93 -90 93 -108 q 109 -47 93 -65 q 153 -29 125 -29 q 196 -49 179 -29 q 213 -97 213 -69 z "},"ņ":{"ha":742,"x_min":114,"x_max":638,"o":"m 114 0 l 114 674 l 161 674 l 189 568 q 299 655 232 618 q 428 692 365 692 q 587 628 536 692 q 638 468 638 565 l 638 0 l 560 0 l 560 460 q 526 577 560 529 q 418 626 492 625 q 306 593 374 626 q 190 500 238 560 l 190 0 l 114 0 m 438 -97 q 403 -216 438 -160 q 313 -299 368 -272 l 290 -261 q 347 -213 325 -240 q 372 -149 369 -186 q 331 -128 346 -147 q 317 -90 317 -108 q 333 -47 317 -65 q 376 -29 350 -29 q 420 -49 403 -29 q 438 -97 438 -69 z "},"ŗ":{"ha":438,"x_min":65,"x_max":417,"o":"m 114 0 l 114 674 l 161 674 l 186 581 q 281 642 222 611 q 393 674 340 674 l 417 613 q 291 578 353 613 q 190 501 229 544 l 190 0 l 114 0 m 213 -97 q 178 -216 213 -160 q 89 -299 144 -272 l 65 -261 q 123 -213 100 -240 q 147 -149 146 -186 q 107 -128 121 -147 q 93 -90 93 -108 q 109 -47 93 -65 q 153 -29 125 -29 q 196 -49 179 -29 q 213 -97 213 -69 z "},"ţ":{"ha":414,"x_min":26,"x_max":390,"o":"m 356 597 l 204 597 l 204 171 q 226 84 204 121 q 299 47 247 47 q 331 52 314 47 q 356 60 349 57 l 372 -1 q 340 -10 361 -4 q 293 -18 318 -17 l 271 -74 q 358 -116 326 -82 q 390 -186 390 -150 q 346 -276 390 -244 q 238 -307 301 -307 q 181 -299 211 -307 q 132 -281 150 -292 l 154 -231 q 189 -243 165 -236 q 235 -250 213 -250 q 296 -233 269 -250 q 322 -189 322 -215 q 288 -136 322 -160 q 193 -110 253 -112 l 231 -11 q 154 47 182 3 q 126 161 126 90 l 126 597 l 26 597 l 26 656 l 126 656 l 126 835 l 204 865 l 204 656 l 326 656 l 356 597 z "},"ș":{"ha":610,"x_min":78,"x_max":540,"o":"m 288 46 q 418 77 371 46 q 465 165 465 108 q 413 251 465 214 q 288 314 361 288 q 144 388 208 342 q 81 506 81 433 q 143 640 81 589 q 319 692 206 692 q 422 676 363 692 q 517 636 482 661 l 489 579 q 419 610 461 593 q 314 626 376 626 q 200 593 243 626 q 157 511 157 560 q 206 433 157 464 q 326 375 256 401 q 474 295 408 344 q 540 171 540 246 q 477 32 540 82 q 285 -18 414 -18 q 180 -5 243 -18 q 78 35 117 8 l 104 96 q 188 62 140 78 q 288 46 235 46 m 356 -97 q 322 -216 356 -160 q 232 -299 288 -272 l 208 -261 q 266 -213 243 -240 q 290 -149 289 -186 q 249 -128 264 -147 q 235 -90 235 -108 q 251 -47 235 -65 q 296 -29 268 -29 q 339 -49 322 -29 q 356 -97 356 -69 z "},"ț":{"ha":414,"x_min":26,"x_max":372,"o":"m 356 597 l 204 597 l 204 171 q 226 84 204 121 q 299 47 247 47 q 331 52 314 47 q 356 60 349 57 l 372 -1 q 334 -11 358 -4 q 281 -18 310 -18 q 169 28 211 -18 q 126 161 126 74 l 126 597 l 26 597 l 26 656 l 126 656 l 126 835 l 204 865 l 204 656 l 326 656 l 356 597 m 324 -97 q 290 -216 324 -160 q 200 -299 256 -272 l 175 -261 q 233 -213 210 -240 q 257 -149 256 -186 q 217 -128 232 -147 q 203 -90 203 -108 q 219 -47 203 -65 q 263 -29 236 -29 q 306 -49 289 -29 q 324 -97 324 -69 z "},"­":{"ha":174,"x_min":0,"x_max":0,"o":""},"µ":{"ha":722,"x_min":114,"x_max":608,"o":"m 608 674 l 608 0 l 560 0 l 533 76 q 433 10 490 38 q 324 -17 376 -17 q 247 -7 281 -17 q 190 19 214 3 l 190 -289 l 114 -304 l 114 674 l 190 674 l 190 213 q 225 97 190 144 q 331 49 260 49 q 426 72 369 49 q 531 140 483 94 l 531 674 l 608 674 z "},"ˉ":{"ha":369,"x_min":18,"x_max":353,"o":"m 18 957 l 353 957 l 353 896 l 18 896 l 18 957 z "},"ℓ":{"ha":515,"x_min":35,"x_max":457,"o":"m 35 321 q 85 359 60 339 q 136 401 111 379 l 136 786 q 181 926 136 876 q 297 975 226 975 q 413 928 368 975 q 457 797 457 881 q 383 583 457 696 q 214 381 310 471 l 214 194 q 235 92 214 135 q 319 49 257 49 q 360 56 340 49 q 397 69 379 63 l 421 18 q 372 -8 403 1 q 315 -17 342 -17 q 178 40 221 -17 q 136 192 136 97 l 136 315 q 94 283 115 297 q 53 257 72 268 l 35 321 m 299 910 q 239 882 264 910 q 214 786 214 854 l 214 476 q 331 633 282 550 q 379 794 379 715 q 356 883 379 856 q 299 910 332 910 z "},"Ω":{"ha":1065,"x_min":106,"x_max":960,"o":"m 535 897 q 288 774 386 897 q 190 469 190 651 q 241 234 190 357 q 372 65 292 111 l 379 0 l 114 0 l 107 61 l 272 61 q 151 235 196 119 q 106 468 106 351 q 219 821 106 675 q 535 967 333 967 q 848 821 736 967 q 960 468 960 675 q 915 235 960 351 q 792 61 869 119 l 958 61 l 951 0 l 689 0 l 696 65 q 827 234 776 111 q 878 469 878 357 q 781 774 878 651 q 535 897 683 897 z "},"∆":{"ha":831,"x_min":25,"x_max":806,"o":"m 444 944 l 806 14 l 728 0 l 25 0 l 368 944 l 444 944 m 407 843 l 122 61 l 704 61 l 407 843 z "},"∕":{"ha":522,"x_min":11,"x_max":511,"o":"m 511 981 l 82 -6 l 11 0 l 439 986 l 511 981 z "},"∙":{"ha":269,"x_min":35,"x_max":235,"o":"m 35 453 q 64 524 35 494 q 135 553 93 553 q 206 524 176 553 q 235 453 235 494 q 206 383 235 413 q 135 354 176 354 q 64 383 93 354 q 35 453 35 413 z "},"₺":{"ha":697,"x_min":14,"x_max":661,"o":"m 14 675 q 88 700 51 688 q 161 726 125 713 l 161 967 l 239 981 l 239 754 q 360 797 299 775 q 482 840 422 818 q 488 812 485 826 q 493 783 492 797 q 366 738 429 761 q 239 693 303 715 l 239 608 q 360 651 299 629 q 482 694 422 672 q 488 665 485 681 q 493 636 492 650 l 239 547 l 239 63 q 474 184 361 63 q 586 460 586 306 l 661 460 q 522 130 661 260 q 221 0 382 0 l 161 0 l 161 519 q 92 494 126 507 q 24 471 58 482 q 19 500 22 485 q 14 529 17 515 q 88 555 51 542 q 161 581 125 568 l 161 664 l 24 617 q 19 646 22 631 q 14 675 17 661 z "},"₽":{"ha":794,"x_min":51,"x_max":721,"o":"m 622 224 l 224 224 l 224 0 l 146 0 l 146 224 l 58 224 l 51 282 l 146 282 l 146 367 l 56 367 l 56 431 l 146 431 l 146 944 l 381 944 q 625 879 529 944 q 721 660 721 814 q 617 437 721 507 q 367 367 514 367 l 224 367 l 224 282 l 615 282 l 622 224 m 390 879 l 224 879 l 224 431 l 375 431 q 565 485 488 431 q 643 658 643 540 q 574 830 643 781 q 390 879 504 879 z "},"¢":{"ha":633,"x_min":69,"x_max":568,"o":"m 403 840 l 403 689 q 489 670 443 685 q 568 633 535 656 l 540 579 q 471 611 506 596 q 368 626 436 626 q 203 543 257 626 q 149 342 149 460 q 198 132 149 218 q 361 46 247 46 q 465 60 432 46 q 533 93 497 75 l 561 39 q 486 4 529 18 q 403 -15 443 -10 l 403 -154 l 340 -151 l 340 -18 q 136 90 203 -10 q 69 340 69 190 q 138 581 69 483 q 340 689 207 678 l 340 840 l 403 840 z "},"£":{"ha":606,"x_min":78,"x_max":579,"o":"m 257 768 l 257 518 l 449 518 l 479 461 l 257 461 l 257 206 q 247 123 257 158 q 210 61 236 88 l 571 61 l 579 0 l 92 0 q 90 31 90 15 q 89 61 89 46 q 159 94 139 63 q 179 176 179 126 l 179 461 l 81 461 l 78 518 l 179 518 l 179 757 q 219 897 179 844 q 333 950 260 950 q 380 944 357 950 q 425 932 403 938 l 408 869 q 384 878 401 874 q 353 883 367 883 q 278 851 300 883 q 257 768 257 818 z "},"¤":{"ha":922,"x_min":42,"x_max":879,"o":"m 86 750 l 235 603 q 338 667 279 642 q 467 692 397 692 q 591 668 535 692 q 690 606 647 644 q 763 677 726 640 q 835 750 799 714 l 879 699 l 735 553 q 782 451 765 508 q 799 332 799 394 q 781 218 799 272 q 732 121 763 164 q 805 46 768 83 q 879 -28 842 8 l 835 -78 l 685 69 q 581 5 642 28 q 451 -18 521 -18 q 328 4 385 -18 q 232 65 272 26 l 86 -78 l 42 -28 q 115 44 78 8 q 186 117 151 81 q 139 219 156 163 q 122 340 122 276 q 140 454 122 400 q 189 551 158 508 q 115 625 153 589 q 42 699 78 661 l 86 750 m 467 626 q 276 543 351 626 q 201 342 201 460 q 271 131 201 214 q 453 47 340 47 q 644 129 569 47 q 719 332 719 211 q 653 540 719 453 q 467 626 588 626 z "},"¥":{"ha":765,"x_min":11,"x_max":756,"o":"m 340 0 l 340 117 l 99 117 l 90 178 l 342 178 l 342 360 l 99 360 l 90 421 l 315 421 l 11 929 l 94 944 l 379 456 l 669 944 l 756 944 l 442 421 l 667 421 l 676 360 l 419 360 l 419 178 l 667 178 l 676 117 l 418 117 l 418 0 l 340 0 z "},"€":{"ha":794,"x_min":21,"x_max":739,"o":"m 607 311 l 242 311 q 330 124 264 199 q 518 49 396 49 q 626 61 585 49 q 704 90 668 74 l 738 32 q 642 -4 699 11 q 524 -19 586 -19 q 265 76 350 -19 q 157 311 181 171 l 31 311 l 21 374 l 149 374 q 144 419 146 396 q 143 467 143 443 q 145 516 143 490 q 150 564 147 542 l 31 564 l 21 625 l 158 625 q 277 869 186 774 q 531 964 368 964 q 641 951 582 964 q 739 913 700 939 l 711 856 q 634 885 668 874 q 531 896 600 896 q 342 823 414 896 q 243 625 269 750 l 599 625 l 607 564 l 232 564 q 229 517 231 542 q 228 468 228 492 q 229 420 228 444 q 232 374 231 396 l 599 374 l 607 311 z "},"$":{"ha":740,"x_min":82,"x_max":667,"o":"m 258 -154 l 258 -10 q 158 13 206 -1 q 93 40 110 26 l 114 100 q 213 64 150 82 q 344 46 275 46 q 527 98 464 46 q 590 222 590 150 q 336 455 590 379 q 82 738 82 531 q 128 868 82 811 q 258 950 175 925 l 258 1111 l 318 1107 l 318 963 q 345 965 332 964 q 372 967 358 967 q 392 966 382 967 q 411 964 401 965 l 411 1111 l 472 1111 l 472 956 q 545 937 511 949 q 606 913 579 925 l 575 854 q 493 886 539 871 q 375 901 447 901 q 217 855 275 901 q 158 736 158 808 q 413 497 158 575 q 667 222 667 418 q 617 81 667 142 q 472 -3 567 21 l 472 -154 l 411 -149 l 411 -14 q 379 -17 396 -15 q 346 -18 363 -18 q 333 -18 340 -18 q 318 -17 325 -18 l 318 -154 l 258 -154 z "},",":{"ha":203,"x_min":25,"x_max":172,"o":"m 172 51 q 138 -68 172 -12 q 49 -150 104 -124 l 25 -112 q 83 -65 60 -92 q 107 0 106 -37 q 66 20 81 1 q 51 58 51 39 q 68 100 51 82 q 111 118 85 118 q 155 99 138 118 q 172 51 172 79 z "},".":{"ha":183,"x_min":32,"x_max":151,"o":"m 151 60 q 133 17 151 33 q 92 0 115 0 q 49 17 65 0 q 32 60 32 33 q 49 101 32 85 q 92 118 65 118 q 133 101 115 118 q 151 60 151 85 z "},"!":{"ha":250,"x_min":64,"x_max":183,"o":"m 178 975 l 160 250 l 89 279 l 89 975 l 178 975 m 183 60 q 166 17 183 33 q 124 0 149 0 q 81 17 99 0 q 64 60 64 33 q 81 101 64 85 q 124 118 99 118 q 166 101 149 118 q 183 60 183 85 z "},"¡":{"ha":250,"x_min":64,"x_max":185,"o":"m 64 915 q 82 958 64 940 q 125 975 100 975 q 168 958 151 975 q 185 915 185 940 q 168 872 185 889 q 125 854 151 854 q 82 872 100 854 q 64 915 64 889 m 72 0 l 89 724 l 161 696 l 161 0 l 72 0 z "},":":{"ha":183,"x_min":32,"x_max":151,"o":"m 32 558 q 49 601 32 583 q 90 619 65 619 q 133 601 115 619 q 151 558 151 583 q 133 517 151 533 q 90 500 115 500 q 49 517 65 500 q 32 558 32 533 m 32 117 q 49 159 32 142 q 90 176 65 176 q 133 159 115 176 q 151 117 151 142 q 133 74 151 90 q 90 57 115 57 q 49 74 65 57 q 32 117 32 90 z "},";":{"ha":204,"x_min":25,"x_max":172,"o":"m 53 558 q 69 601 53 583 q 113 619 86 619 q 155 601 138 619 q 172 558 172 583 q 155 517 172 533 q 113 500 138 500 q 69 517 86 500 q 53 558 53 533 m 172 107 q 138 -11 172 44 q 49 -93 104 -67 l 25 -56 q 83 -8 60 -35 q 107 57 106 19 q 66 77 81 58 q 51 115 51 96 q 68 158 51 140 q 111 176 85 176 q 155 156 138 176 q 172 107 172 136 z "},"?":{"ha":546,"x_min":18,"x_max":515,"o":"m 515 747 q 450 590 515 668 q 269 461 385 513 l 257 192 l 201 218 l 192 504 q 367 603 300 539 q 433 746 433 667 q 388 869 433 829 q 260 908 343 908 q 134 885 185 908 q 29 824 83 863 l 18 890 q 122 949 64 924 q 263 975 181 975 q 454 911 393 975 q 515 747 515 847 m 283 60 q 265 17 283 33 q 222 0 247 0 q 180 17 196 0 q 164 60 164 33 q 180 101 164 85 q 222 118 196 118 q 265 101 247 118 q 283 60 283 85 z "},"¿":{"ha":558,"x_min":42,"x_max":539,"o":"m 274 804 q 292 847 274 829 q 335 864 310 864 q 378 847 361 864 q 394 804 394 829 q 378 760 394 778 q 335 743 361 743 q 292 760 310 743 q 274 804 274 778 m 42 115 q 107 273 42 194 q 289 403 172 351 l 300 672 l 356 644 l 365 358 q 191 260 257 324 q 125 117 125 196 q 169 -6 125 33 q 297 -46 214 -46 q 423 -23 372 -46 q 528 39 474 0 l 539 -28 q 435 -87 494 -62 q 294 -111 376 -111 q 103 -48 164 -111 q 42 115 42 15 z "},"*":{"ha":446,"x_min":11,"x_max":436,"o":"m 251 911 l 418 951 l 436 901 l 269 865 l 385 696 l 339 667 l 224 828 l 111 667 l 61 696 l 176 865 l 11 901 l 28 951 l 193 911 l 193 1075 l 251 1075 l 251 911 z "},"\"":{"ha":376,"x_min":18,"x_max":351,"o":"m 351 907 q 318 788 351 843 q 229 706 285 732 l 206 743 q 263 791 240 764 q 288 854 285 818 q 247 875 261 856 q 232 914 232 894 q 249 956 232 938 q 292 975 265 975 q 335 955 318 975 q 351 907 351 935 m 165 907 q 131 788 165 843 q 42 706 97 732 l 18 743 q 75 791 53 764 q 99 854 97 818 q 59 875 74 856 q 44 914 44 894 q 61 956 44 938 q 106 975 78 975 q 148 955 131 975 q 165 907 165 935 z "},"'":{"ha":189,"x_min":18,"x_max":165,"o":"m 165 907 q 131 788 165 843 q 42 706 97 732 l 18 743 q 75 791 53 764 q 99 854 97 818 q 59 875 74 856 q 44 914 44 894 q 61 956 44 938 q 106 975 78 975 q 148 955 131 975 q 165 907 165 935 z "},"‘":{"ha":189,"x_min":25,"x_max":172,"o":"m 25 772 q 59 892 25 836 q 147 975 93 947 l 172 936 q 114 888 138 915 q 89 825 90 861 q 130 804 115 824 q 144 765 144 785 q 128 724 144 742 q 85 706 111 706 q 42 726 58 706 q 25 772 25 746 z "},"’":{"ha":189,"x_min":18,"x_max":165,"o":"m 165 907 q 131 788 165 843 q 42 706 97 732 l 18 743 q 75 791 53 764 q 99 854 97 818 q 59 875 74 856 q 44 914 44 894 q 61 956 44 938 q 106 975 78 975 q 148 955 131 975 q 165 907 165 935 z "},"‚":{"ha":189,"x_min":18,"x_max":165,"o":"m 165 51 q 131 -68 165 -12 q 42 -150 97 -124 l 18 -112 q 75 -65 53 -92 q 99 0 97 -37 q 59 20 74 1 q 44 58 44 39 q 61 100 44 82 q 106 118 78 118 q 148 99 131 118 q 165 51 165 79 z "},"“":{"ha":376,"x_min":25,"x_max":358,"o":"m 25 772 q 59 892 25 836 q 147 975 93 947 l 172 936 q 114 888 138 915 q 89 825 90 861 q 130 804 115 824 q 144 765 144 785 q 128 724 144 742 q 85 706 111 706 q 42 726 58 706 q 25 772 25 746 m 213 772 q 247 892 213 836 q 336 975 281 947 l 358 936 q 301 888 324 915 q 278 825 279 861 q 317 804 303 824 q 332 765 332 785 q 315 724 332 742 q 271 706 299 706 q 228 726 244 706 q 213 772 213 746 z "},"”":{"ha":376,"x_min":18,"x_max":351,"o":"m 351 907 q 318 788 351 843 q 229 706 285 732 l 206 743 q 263 791 240 764 q 288 854 285 818 q 247 875 261 856 q 232 914 232 894 q 249 956 232 938 q 292 975 265 975 q 335 955 318 975 q 351 907 351 935 m 165 907 q 131 788 165 843 q 42 706 97 732 l 18 743 q 75 791 53 764 q 99 854 97 818 q 59 875 74 856 q 44 914 44 894 q 61 956 44 938 q 106 975 78 975 q 148 955 131 975 q 165 907 165 935 z "},"„":{"ha":376,"x_min":18,"x_max":351,"o":"m 165 51 q 131 -68 165 -12 q 42 -150 97 -124 l 18 -112 q 75 -65 53 -92 q 99 0 97 -37 q 59 20 74 1 q 44 58 44 39 q 61 101 44 83 q 106 118 78 118 q 148 99 131 118 q 165 51 165 79 m 351 51 q 318 -68 351 -12 q 229 -150 285 -124 l 206 -112 q 263 -65 240 -92 q 288 0 285 -37 q 247 20 261 1 q 232 58 232 39 q 249 100 232 82 q 292 118 265 118 q 335 99 318 118 q 351 51 351 79 z "},"·":{"ha":183,"x_min":32,"x_max":151,"o":"m 151 364 q 133 322 151 339 q 92 304 115 304 q 49 322 65 304 q 32 364 32 339 q 49 406 32 389 q 92 422 65 422 q 133 406 115 422 q 151 364 151 389 z "},"(":{"ha":332,"x_min":71,"x_max":300,"o":"m 71 444 q 110 690 71 554 q 236 938 149 826 l 300 913 q 194 697 239 847 q 150 446 150 546 q 194 191 150 344 q 300 -26 239 38 l 236 -51 q 110 197 149 61 q 71 444 71 333 z "},")":{"ha":332,"x_min":32,"x_max":261,"o":"m 261 444 q 221 197 261 333 q 96 -51 181 61 l 32 -26 q 137 190 92 38 q 182 443 182 343 q 137 695 182 543 q 32 913 92 847 l 96 938 q 221 690 181 826 q 261 444 261 554 z "},"[":{"ha":360,"x_min":128,"x_max":349,"o":"m 128 967 l 349 967 l 338 908 l 201 908 l 201 -65 l 338 -65 l 349 -122 l 128 -122 l 128 967 z "},"]":{"ha":360,"x_min":11,"x_max":231,"o":"m 11 967 l 231 967 l 231 -122 l 11 -122 l 22 -64 l 157 -64 l 157 908 l 22 908 l 11 967 z "},"{":{"ha":372,"x_min":42,"x_max":354,"o":"m 271 582 q 247 483 271 521 q 182 429 224 444 q 246 372 221 411 q 271 274 271 333 q 244 175 271 236 q 218 78 218 114 q 242 22 218 47 q 318 -3 267 -3 l 344 -3 l 354 -61 l 318 -61 q 188 -22 231 -61 q 146 86 146 18 q 171 185 146 129 q 196 285 196 242 q 163 369 196 338 q 88 400 129 400 l 42 400 l 42 454 l 88 454 q 163 486 129 454 q 196 569 196 518 q 171 669 196 613 q 146 769 146 726 q 188 876 146 836 q 318 915 231 915 l 354 915 l 344 857 l 318 857 q 242 832 267 857 q 218 778 218 807 q 244 679 218 740 q 271 582 271 618 z "},"}":{"ha":372,"x_min":18,"x_max":329,"o":"m 100 274 q 124 372 100 333 q 190 425 149 410 q 126 483 151 443 q 100 582 100 522 q 126 679 100 618 q 153 778 153 740 q 128 832 153 807 q 54 857 104 857 l 28 857 l 18 915 l 53 915 q 184 876 142 915 q 226 769 226 836 q 201 669 226 726 q 175 569 175 613 q 208 486 175 518 q 283 454 242 454 l 329 454 l 329 401 l 283 401 q 208 369 242 401 q 175 285 175 338 q 201 185 175 242 q 226 86 226 129 q 184 -22 226 18 q 53 -61 142 -61 l 18 -61 l 28 -3 l 54 -3 q 128 22 104 -3 q 153 78 153 47 q 126 175 153 114 q 100 274 100 236 z "},"/":{"ha":522,"x_min":11,"x_max":511,"o":"m 511 981 l 82 -6 l 11 0 l 439 986 l 511 981 z "},"\\":{"ha":522,"x_min":11,"x_max":511,"o":"m 439 -6 l 11 981 l 83 986 l 511 0 l 439 -6 z "},"|":{"ha":361,"x_min":142,"x_max":219,"o":"m 219 981 l 219 -6 l 142 0 l 142 986 l 219 981 z "},"¦":{"ha":361,"x_min":142,"x_max":219,"o":"m 219 981 l 219 564 l 142 569 l 142 986 l 219 981 m 219 400 l 219 -6 l 142 0 l 142 406 l 219 400 z "},"«":{"ha":499,"x_min":42,"x_max":476,"o":"m 253 367 l 447 564 l 476 514 l 313 340 l 476 167 l 447 117 l 253 314 l 253 367 m 42 367 l 236 564 l 265 514 l 103 340 l 265 167 l 236 117 l 42 314 l 42 367 z "},"»":{"ha":499,"x_min":21,"x_max":456,"o":"m 246 314 l 51 117 q 35 142 43 129 q 21 167 28 154 l 185 340 q 102 427 143 383 q 21 514 61 471 q 35 539 28 526 q 51 564 43 551 l 246 367 l 246 314 m 456 314 l 263 117 q 247 142 254 129 q 232 167 239 154 l 396 340 q 313 427 354 383 q 232 514 272 471 q 247 539 239 526 q 263 564 254 551 l 456 367 l 456 314 z "},"π":{"ha":792,"x_min":25,"x_max":768,"o":"m 163 0 l 163 611 l 25 611 l 25 674 l 768 674 l 768 611 l 629 611 l 629 0 l 551 0 l 551 611 l 240 611 l 240 0 l 163 0 z "},"†":{"ha":493,"x_min":32,"x_max":461,"o":"m 283 1083 l 283 864 l 435 864 l 461 804 l 276 804 l 276 -6 l 204 0 l 204 804 l 58 804 l 32 864 l 204 864 l 204 1088 l 283 1083 z "},"‡":{"ha":524,"x_min":42,"x_max":481,"o":"m 219 -8 l 222 263 l 68 263 l 42 322 l 222 322 l 222 746 l 68 746 l 42 806 l 221 806 l 221 1088 l 299 1083 l 299 806 l 454 806 l 481 746 l 299 746 l 299 322 l 454 322 l 481 263 l 301 263 l 301 1 l 219 -8 z "},"•":{"ha":269,"x_min":35,"x_max":235,"o":"m 35 453 q 64 524 35 494 q 135 553 93 553 q 206 524 176 553 q 235 453 235 494 q 206 383 235 413 q 135 354 176 354 q 64 383 93 354 q 35 453 35 413 z "},"…":{"ha":533,"x_min":32,"x_max":501,"o":"m 501 56 q 485 16 501 32 q 446 0 468 0 q 404 16 421 0 q 388 56 388 32 q 404 97 388 81 q 446 113 421 113 q 485 97 468 113 q 501 56 501 81 m 325 56 q 308 16 325 32 q 269 0 292 0 q 228 16 244 0 q 211 56 211 32 q 228 97 211 81 q 269 113 244 113 q 308 97 292 113 q 325 56 325 81 m 144 56 q 128 16 144 32 q 89 0 113 0 q 49 16 65 0 q 32 56 32 32 q 49 97 32 81 q 89 113 65 113 q 128 97 113 113 q 144 56 144 81 z "},"‹":{"ha":288,"x_min":42,"x_max":265,"o":"m 42 367 l 236 567 l 265 511 l 107 340 l 265 169 l 236 115 l 42 314 l 42 367 z "},"›":{"ha":288,"x_min":21,"x_max":246,"o":"m 246 314 l 51 115 q 35 142 43 129 q 21 169 28 156 l 181 340 l 21 511 q 35 539 28 525 q 51 567 43 553 l 246 367 l 246 314 z "},"-":{"ha":415,"x_min":32,"x_max":383,"o":"m 383 347 l 43 347 l 32 410 l 372 410 l 383 347 z "},"_":{"ha":583,"x_min":32,"x_max":551,"o":"m 551 0 l 43 0 l 32 61 l 540 61 l 551 0 z "},"–":{"ha":586,"x_min":32,"x_max":553,"o":"m 553 349 l 43 349 l 32 410 l 542 410 l 553 349 z "},"—":{"ha":714,"x_min":32,"x_max":683,"o":"m 683 349 l 43 349 l 32 410 l 672 410 l 683 349 z "},"#":{"ha":678,"x_min":35,"x_max":642,"o":"m 586 697 l 542 515 l 632 515 l 642 454 l 525 454 l 478 256 l 632 256 l 642 194 l 463 194 l 415 0 l 349 7 l 394 194 l 208 194 l 161 0 l 94 7 l 140 194 l 46 194 l 35 256 l 156 256 l 204 454 l 46 454 l 35 515 l 219 515 l 264 697 l 332 697 l 288 515 l 474 515 l 518 697 l 586 697 m 272 454 l 224 256 l 410 256 l 458 454 l 272 454 z "},"%":{"ha":1111,"x_min":35,"x_max":1075,"o":"m 800 981 l 371 -6 l 299 0 l 726 986 l 800 981 m 463 739 q 400 567 463 631 q 250 504 338 504 q 94 565 154 504 q 35 739 35 626 q 97 911 35 847 q 249 975 158 975 q 403 913 344 975 q 463 739 463 851 m 111 739 q 153 609 111 653 q 250 565 196 565 q 344 607 301 565 q 386 739 386 649 q 346 870 386 826 q 249 914 306 914 q 155 872 199 914 q 111 739 111 829 m 1075 233 q 1013 62 1075 125 q 863 -1 950 -1 q 708 60 768 -1 q 649 233 649 121 q 710 406 649 342 q 863 469 771 469 q 1017 408 958 469 q 1075 233 1075 346 m 725 233 q 767 103 725 147 q 863 60 808 60 q 956 102 914 60 q 999 233 999 144 q 958 365 999 321 q 863 408 918 408 q 768 367 811 408 q 725 233 725 325 z "},"+":{"ha":724,"x_min":35,"x_max":689,"o":"m 689 349 l 397 349 l 397 6 l 324 11 l 324 349 l 46 349 l 35 410 l 324 410 l 324 742 l 397 738 l 397 410 l 675 410 l 689 349 z "},"÷":{"ha":678,"x_min":35,"x_max":642,"o":"m 272 576 q 290 623 272 604 q 338 642 308 642 q 383 623 364 642 q 403 576 403 604 q 383 531 403 550 q 338 511 364 511 q 290 531 308 511 q 272 576 272 550 m 642 349 l 46 349 l 35 410 l 631 410 l 642 349 m 276 157 q 294 203 276 183 q 342 222 313 222 q 388 203 368 222 q 407 157 407 183 q 388 110 407 129 q 342 90 368 90 q 294 110 313 90 q 276 157 276 129 z "},"×":{"ha":651,"x_min":35,"x_max":617,"o":"m 35 57 l 271 344 l 42 631 l 114 644 l 319 385 l 538 644 l 617 644 l 363 333 l 594 43 l 517 43 l 311 293 l 106 43 l 35 57 z "},"±":{"ha":671,"x_min":35,"x_max":635,"o":"m 631 424 l 368 424 l 368 150 l 294 157 l 294 424 l 46 424 l 35 482 l 294 482 l 294 742 l 368 738 l 368 482 l 619 482 l 631 424 m 635 0 l 46 0 l 35 58 l 624 58 l 635 0 z "},"<":{"ha":442,"x_min":28,"x_max":406,"o":"m 374 26 l 28 314 l 28 367 l 374 653 l 406 599 l 99 340 l 406 82 l 374 26 z "},"=":{"ha":678,"x_min":35,"x_max":642,"o":"m 642 454 l 46 454 l 35 515 l 632 515 l 642 454 m 642 194 l 46 194 l 35 256 l 632 256 l 642 194 z "},">":{"ha":442,"x_min":35,"x_max":414,"o":"m 67 653 l 414 365 l 414 313 l 67 26 l 35 81 l 342 339 l 35 597 l 67 653 z "},"°":{"ha":346,"x_min":25,"x_max":321,"o":"m 321 832 q 278 731 321 769 q 172 692 235 692 q 67 731 110 692 q 25 832 25 769 q 67 933 25 892 q 172 975 110 975 q 278 933 235 975 q 321 832 321 892 m 263 832 q 237 894 263 867 q 172 922 211 922 q 109 894 133 922 q 85 832 85 867 q 110 769 85 797 q 175 740 135 740 q 239 769 215 740 q 263 832 263 797 z "},"¹":{"ha":429,"x_min":81,"x_max":360,"o":"m 360 467 l 85 467 l 81 519 l 190 519 l 190 981 l 115 929 l 83 972 l 217 1063 l 258 1063 l 258 519 l 350 519 l 360 467 z "},"²":{"ha":528,"x_min":42,"x_max":461,"o":"m 442 903 q 406 791 442 844 q 296 671 371 738 l 122 519 l 453 519 l 461 467 l 42 467 l 42 522 l 258 715 q 349 822 326 778 q 372 899 372 867 q 343 976 372 938 q 243 1015 314 1015 q 147 991 190 1015 q 103 965 104 967 l 75 1018 q 126 1044 76 1018 q 246 1071 175 1071 q 397 1016 351 1071 q 442 903 442 961 z "},"³":{"ha":549,"x_min":35,"x_max":468,"o":"m 456 904 q 422 805 456 847 q 340 747 388 763 q 434 688 400 733 q 468 578 468 643 q 406 442 468 497 q 233 386 343 386 q 123 403 175 386 q 35 442 71 421 l 68 490 q 142 456 104 468 q 239 444 179 444 q 350 478 301 444 q 399 576 399 513 q 356 681 399 644 q 206 718 314 718 l 178 718 l 168 772 l 213 772 q 342 808 299 772 q 385 903 385 843 q 349 983 385 950 q 249 1015 313 1015 q 147 997 189 1015 q 78 963 104 979 l 47 1010 q 138 1053 89 1036 q 250 1071 186 1071 q 405 1022 354 1071 q 456 904 456 972 z "},"¼":{"ha":1011,"x_min":81,"x_max":968,"o":"m 360 467 l 85 467 l 81 519 l 190 519 l 190 981 l 115 929 l 83 972 l 217 1063 l 258 1063 l 258 519 l 350 519 l 360 467 m 690 692 l 288 -6 l 218 0 l 621 696 l 690 692 m 963 -97 l 856 -97 l 856 -226 l 789 -226 l 789 -97 l 465 -97 q 460 -69 463 -85 q 458 -43 458 -53 q 472 -25 464 -33 q 485 -8 479 -17 l 811 446 l 856 446 l 856 -43 l 968 -43 l 963 -97 m 532 -43 l 789 -43 l 789 318 q 660 138 725 228 q 532 -43 596 47 z "},"½":{"ha":1079,"x_min":81,"x_max":1013,"o":"m 360 467 l 85 467 l 81 519 l 190 519 l 190 981 l 115 929 l 83 972 l 217 1063 l 258 1063 l 258 519 l 350 519 l 360 467 m 682 692 l 279 -6 l 211 0 l 614 696 l 682 692 m 993 283 q 958 172 993 225 q 847 51 922 118 l 674 -100 l 1004 -100 l 1013 -153 l 594 -153 l 594 -97 l 810 97 q 901 203 878 158 q 924 279 924 247 q 894 357 924 318 q 796 396 865 396 q 699 372 743 396 q 654 347 656 349 l 628 399 q 678 425 629 399 q 797 451 726 451 q 947 397 901 451 q 993 283 993 342 z "},"¾":{"ha":1114,"x_min":35,"x_max":1071,"o":"m 793 692 l 389 -6 l 321 0 l 724 696 l 793 692 m 456 904 q 422 805 456 847 q 340 747 388 763 q 434 688 400 733 q 468 578 468 643 q 406 442 468 497 q 233 386 343 386 q 123 403 175 386 q 35 442 71 421 l 68 490 q 142 456 104 468 q 239 444 179 444 q 350 478 301 444 q 399 576 399 513 q 356 681 399 644 q 206 718 314 718 l 178 718 l 168 772 l 213 772 q 342 808 299 772 q 385 903 385 843 q 349 983 385 950 q 249 1015 313 1015 q 147 997 189 1015 q 78 963 104 979 q 63 985 71 974 q 47 1010 54 997 q 138 1053 89 1036 q 250 1071 186 1071 q 405 1022 354 1071 q 456 904 456 972 m 1065 -97 l 958 -97 l 958 -226 l 892 -226 l 892 -97 l 568 -97 q 563 -69 565 -85 q 561 -43 561 -54 q 574 -25 567 -33 q 588 -8 581 -17 l 914 446 l 958 446 l 958 -43 l 1071 -43 l 1065 -97 m 635 -43 l 892 -43 l 892 318 l 635 -43 z "},"℮":{"ha":707,"x_min":69,"x_max":640,"o":"m 640 333 l 149 333 q 205 128 150 213 q 385 44 260 44 q 503 59 458 44 q 583 92 549 74 l 613 35 q 502 -5 571 8 q 393 -18 433 -18 q 149 83 228 -18 q 69 340 69 183 q 145 592 69 492 q 369 692 221 692 q 572 590 503 692 q 640 333 640 488 m 363 626 q 212 557 263 626 q 151 389 161 488 l 561 389 q 507 557 551 488 q 363 626 463 626 z "},"∂":{"ha":726,"x_min":64,"x_max":644,"o":"m 340 547 q 465 518 404 547 q 561 442 526 489 q 444 692 535 582 q 228 836 354 803 l 263 885 q 540 682 436 843 q 644 368 644 521 q 558 86 644 182 q 339 -10 472 -10 q 140 78 217 -10 q 64 274 64 165 q 137 463 64 379 q 340 547 210 547 m 342 56 q 507 138 453 56 q 564 350 561 219 q 475 439 533 399 q 340 479 417 479 q 195 416 247 479 q 143 265 143 353 q 196 121 143 186 q 342 56 249 56 z "},"∏":{"ha":806,"x_min":121,"x_max":685,"o":"m 121 944 l 685 944 l 685 0 l 611 0 l 611 886 l 194 886 l 194 0 l 121 0 l 121 944 z "},"∑":{"ha":651,"x_min":57,"x_max":594,"o":"m 565 882 l 144 882 l 411 500 l 411 458 l 144 69 l 588 69 l 594 0 l 57 0 l 57 69 l 342 479 l 57 882 l 57 944 l 557 944 l 565 882 z "},"−":{"ha":635,"x_min":32,"x_max":603,"o":"m 603 349 l 43 349 l 32 410 l 590 410 l 603 349 z "},"√":{"ha":728,"x_min":11,"x_max":717,"o":"m 717 981 l 313 -6 l 243 0 l 11 440 l 86 446 l 279 81 l 646 986 l 717 981 z "},"∞":{"ha":1182,"x_min":76,"x_max":1106,"o":"m 833 65 q 688 113 757 65 q 575 232 618 161 q 483 116 540 167 q 347 65 425 65 q 149 142 222 65 q 76 342 76 218 q 151 550 76 464 q 347 636 225 636 q 494 587 426 636 q 606 469 563 538 q 698 585 640 535 q 833 636 756 636 q 1032 559 958 636 q 1106 358 1106 482 q 1032 151 1106 236 q 833 65 958 65 m 628 346 q 619 320 622 333 q 610 293 615 307 q 700 181 644 229 q 831 132 756 132 q 977 196 924 132 q 1031 360 1031 260 q 977 510 1031 450 q 832 569 924 569 q 701 494 753 569 q 628 346 649 419 m 554 354 q 563 381 560 368 q 572 407 567 393 q 481 520 538 472 q 351 568 425 568 q 206 504 260 568 q 151 340 151 440 q 205 191 151 250 q 350 132 258 132 q 482 207 431 132 q 554 354 533 282 z "},"∫":{"ha":429,"x_min":7,"x_max":422,"o":"m 253 906 l 253 -56 q 213 -196 253 -143 q 99 -249 174 -249 q 46 -242 71 -249 q 7 -232 21 -236 l 24 -169 q 49 -177 32 -174 q 81 -181 67 -181 q 155 -149 133 -181 q 176 -68 176 -117 l 176 894 q 216 1035 176 982 q 331 1088 256 1088 q 383 1081 358 1088 q 422 1069 408 1075 l 406 1008 q 380 1016 397 1011 q 349 1021 363 1021 q 275 989 297 1021 q 253 906 253 957 z "},"≈":{"ha":675,"x_min":32,"x_max":643,"o":"m 483 413 q 340 444 436 413 q 185 475 244 475 q 128 463 160 475 q 90 419 96 450 q 61 427 76 424 q 32 433 46 431 q 90 516 35 494 q 194 538 146 538 q 347 507 254 538 q 493 476 440 476 q 548 488 518 476 q 583 531 578 500 l 643 517 q 585 435 639 457 q 483 413 532 413 m 483 167 q 340 198 436 167 q 185 229 244 229 q 128 217 160 229 q 90 174 96 204 l 32 188 q 90 270 35 249 q 194 292 146 292 q 347 260 254 292 q 493 229 440 229 q 548 242 518 229 q 583 285 578 254 l 643 269 q 585 188 639 210 q 483 167 532 167 z "},"≠":{"ha":671,"x_min":32,"x_max":639,"o":"m 639 194 l 296 194 l 200 -19 l 133 -14 l 225 194 l 43 194 l 32 256 l 253 256 q 296 355 274 306 q 339 454 318 404 l 43 454 l 32 515 l 367 515 l 460 724 l 528 719 q 483 617 506 668 q 438 515 460 567 l 628 515 l 639 454 l 410 454 l 322 256 l 628 256 l 639 194 z "},"≤":{"ha":442,"x_min":28,"x_max":406,"o":"m 374 150 l 28 374 l 28 426 l 374 653 l 406 599 l 101 401 l 406 201 l 374 150 m 401 0 l 40 0 l 28 61 l 392 61 l 401 0 z "},"≥":{"ha":442,"x_min":35,"x_max":414,"o":"m 67 653 l 414 428 l 414 375 l 67 150 l 35 204 l 339 403 q 187 501 264 451 q 35 601 110 551 l 67 653 m 408 0 l 47 0 l 35 61 l 399 61 q 403 31 400 46 q 408 0 406 15 z "},"‰":{"ha":1617,"x_min":35,"x_max":1582,"o":"m 800 981 l 371 -6 l 299 0 l 726 986 l 800 981 m 463 739 q 400 567 463 631 q 250 504 338 504 q 94 565 154 504 q 35 739 35 626 q 97 911 35 847 q 249 975 158 975 q 403 913 344 975 q 463 739 463 851 m 111 739 q 153 609 111 653 q 250 565 196 565 q 344 607 301 565 q 386 739 386 649 q 346 870 386 826 q 249 914 306 914 q 155 872 199 914 q 111 739 111 829 m 1582 233 q 1519 62 1582 125 q 1369 -1 1457 -1 q 1214 60 1274 -1 q 1154 233 1154 121 q 1216 406 1154 342 q 1368 469 1278 469 q 1523 408 1464 469 q 1582 233 1582 346 m 1075 233 q 1013 62 1075 125 q 863 -1 950 -1 q 708 60 768 -1 q 649 233 649 121 q 710 406 649 342 q 863 469 771 469 q 1017 408 958 469 q 1075 233 1075 346 m 1231 233 q 1272 103 1231 147 q 1369 60 1314 60 q 1463 102 1421 60 q 1506 233 1506 144 q 1465 365 1506 321 q 1368 408 1425 408 q 1274 367 1318 408 q 1231 233 1231 325 m 725 233 q 767 103 725 147 q 863 60 808 60 q 956 102 914 60 q 999 233 999 144 q 958 365 999 321 q 863 408 918 408 q 768 367 811 408 q 725 233 725 325 z "},"⁄":{"ha":522,"x_min":11,"x_max":511,"o":"m 511 981 l 82 -6 l 11 0 l 439 986 l 511 981 z "},"◊":{"ha":724,"x_min":42,"x_max":681,"o":"m 346 0 l 42 406 l 42 426 l 346 832 l 376 832 l 681 426 l 681 406 l 376 0 l 346 0 m 118 415 l 360 86 l 607 415 l 360 747 l 118 415 z "},"©":{"ha":1176,"x_min":92,"x_max":1083,"o":"m 588 -22 q 224 119 357 -22 q 92 467 92 261 q 226 816 92 674 q 588 958 361 958 q 949 816 814 958 q 1083 467 1083 674 q 949 119 1083 261 q 588 -22 814 -22 m 588 38 q 897 162 782 38 q 1011 468 1011 286 q 897 774 1011 650 q 588 897 782 897 q 279 774 393 897 q 165 468 165 650 q 279 162 165 286 q 588 38 393 38 m 604 157 q 393 242 472 157 q 314 474 314 328 q 395 703 314 618 q 608 789 476 789 q 707 774 650 789 q 799 731 764 758 l 771 678 q 702 710 739 696 q 606 725 665 725 q 448 656 504 725 q 392 475 392 586 q 445 287 392 354 q 603 219 499 219 q 699 234 663 219 q 767 267 736 249 l 794 215 q 703 172 760 188 q 604 157 647 157 z "},"®":{"ha":1022,"x_min":71,"x_max":953,"o":"m 513 244 q 192 369 313 244 q 71 676 71 494 q 191 985 71 860 q 513 1111 311 1111 q 832 985 711 1111 q 953 676 953 860 q 832 369 953 494 q 513 244 711 244 m 513 303 q 781 412 682 304 q 881 678 881 519 q 781 945 881 839 q 513 1051 682 1051 q 241 945 340 1051 q 142 678 142 839 q 241 412 142 519 q 513 303 340 304 m 478 893 l 428 893 l 428 690 l 471 690 q 573 710 529 690 q 617 793 617 729 q 577 877 617 861 q 478 893 538 893 m 651 422 l 526 643 q 506 642 517 643 q 486 642 496 642 l 428 642 l 428 422 l 365 422 l 365 944 l 493 944 q 628 910 575 944 q 682 794 682 876 q 653 707 682 742 q 586 656 625 672 l 724 422 l 651 422 z "},"™":{"ha":992,"x_min":14,"x_max":926,"o":"m 404 892 l 243 892 l 243 425 l 175 425 l 175 892 l 14 892 l 14 944 l 400 944 l 404 892 m 704 579 l 558 793 l 558 425 l 493 425 l 493 944 l 521 944 l 713 671 l 897 944 l 926 944 l 926 425 l 865 425 l 865 794 l 721 582 l 704 579 z "},"&":{"ha":940,"x_min":96,"x_max":888,"o":"m 438 46 q 572 77 513 46 q 674 161 632 108 l 353 456 q 319 488 335 472 q 288 518 303 503 q 201 420 232 481 q 171 285 171 360 q 254 107 171 168 q 438 46 338 46 m 888 47 l 850 0 l 725 113 q 604 17 676 53 q 436 -18 532 -18 q 194 60 293 -18 q 96 282 96 139 q 139 450 96 375 q 249 568 182 525 q 214 639 226 601 q 201 724 201 676 q 267 894 201 822 q 444 967 332 967 q 565 949 514 967 q 654 913 617 932 l 625 856 q 554 887 590 872 q 450 901 518 901 q 324 849 372 901 q 275 731 275 796 q 314 601 275 656 q 425 478 353 546 l 708 213 q 757 335 739 268 q 776 471 775 403 l 833 450 q 813 298 832 371 q 760 165 794 225 l 888 47 z "},"@":{"ha":1093,"x_min":69,"x_max":1024,"o":"m 796 88 q 732 101 761 88 q 685 138 703 114 q 622 106 658 119 q 551 92 586 92 q 388 148 446 92 q 331 293 331 204 q 421 489 331 414 q 632 564 511 564 l 731 564 l 757 533 l 724 254 q 722 249 722 251 q 722 244 722 246 q 745 170 722 192 q 803 149 768 149 q 910 216 867 149 q 953 413 953 283 q 857 665 953 567 q 596 763 761 763 q 278 636 410 763 q 147 297 147 510 q 256 24 147 124 q 519 -76 364 -76 q 641 -64 579 -76 q 746 -28 703 -51 l 767 -86 q 640 -128 708 -117 q 504 -140 572 -140 q 201 -22 333 -140 q 69 296 69 96 q 208 668 69 511 q 600 825 347 825 q 906 710 788 825 q 1024 422 1024 596 q 962 172 1024 257 q 796 88 900 88 m 551 149 q 613 158 583 149 q 660 183 642 168 q 656 206 657 194 q 654 232 654 218 q 655 247 654 239 q 656 264 656 256 l 688 510 l 625 510 q 472 451 538 510 q 407 293 407 393 q 444 191 407 233 q 551 149 481 149 z "},"^":{"ha":590,"x_min":25,"x_max":565,"o":"m 100 199 l 25 199 l 260 542 l 331 542 l 565 199 l 490 199 l 296 481 l 100 199 z "},"~":{"ha":507,"x_min":32,"x_max":474,"o":"m 349 283 q 251 317 301 283 q 158 350 201 350 q 113 335 132 350 q 92 292 93 319 l 32 294 q 68 382 32 354 q 158 410 104 410 q 264 376 217 410 q 347 343 311 343 q 393 358 374 343 q 414 401 413 372 l 474 399 q 438 311 474 339 q 349 283 401 283 z "},"§":{"ha":825,"x_min":82,"x_max":750,"o":"m 675 353 q 504 538 675 476 q 231 704 333 599 q 177 648 196 682 q 158 574 158 614 q 327 385 158 449 q 599 221 496 321 q 656 280 636 246 q 675 353 675 314 m 344 -101 q 527 -49 464 -101 q 590 75 590 3 q 336 299 590 232 q 82 576 82 365 q 110 681 82 633 q 189 758 139 728 q 172 805 178 781 q 165 856 165 829 q 244 1017 167 951 q 457 1083 322 1083 q 587 1067 526 1083 q 689 1029 647 1050 l 658 972 q 577 1004 622 989 q 458 1019 532 1019 q 301 972 358 1019 q 243 853 243 925 q 497 620 243 690 q 750 351 750 550 q 722 243 750 292 q 643 164 694 194 q 660 117 654 143 q 667 72 667 92 q 583 -99 667 -32 q 346 -165 500 -165 q 201 -147 286 -165 q 93 -107 117 -128 l 114 -46 q 213 -83 150 -64 q 344 -101 275 -101 z "},"ª":{"ha":478,"x_min":58,"x_max":415,"o":"m 218 560 q 290 581 257 560 q 344 633 322 603 l 344 729 l 238 729 q 158 706 188 729 q 128 644 128 683 q 152 587 128 614 q 218 560 176 560 m 232 975 q 368 923 321 975 q 415 806 415 871 l 415 517 l 364 517 l 349 567 q 292 523 326 542 q 218 504 257 504 q 103 544 147 504 q 58 644 58 585 q 106 744 58 708 q 225 779 154 779 l 344 779 l 344 808 q 317 885 344 856 q 233 914 289 914 q 158 903 186 914 q 106 883 131 893 l 89 935 q 160 964 115 953 q 232 975 204 975 z "},"¬":{"ha":706,"x_min":18,"x_max":669,"o":"m 669 494 l 669 156 l 596 163 l 596 501 l 29 501 l 18 564 l 658 564 l 669 494 z "},"¶":{"ha":1138,"x_min":74,"x_max":1094,"o":"m 482 0 l 482 367 l 429 367 q 178 439 282 367 q 74 660 75 511 q 169 876 74 808 q 414 944 265 944 l 1094 944 l 1094 883 l 949 883 l 949 0 l 871 0 l 871 883 l 558 883 l 558 0 l 482 0 z "},"º":{"ha":513,"x_min":43,"x_max":471,"o":"m 471 739 q 408 567 471 631 q 256 504 344 504 q 105 565 167 504 q 43 739 43 626 q 106 911 43 847 q 256 975 168 975 q 408 913 346 975 q 471 739 471 851 m 115 739 q 159 608 115 653 q 256 563 203 563 q 351 606 307 563 q 396 739 396 649 q 354 871 396 826 q 256 915 313 915 q 160 872 206 915 q 115 739 115 829 z "},"ऀ":{"ha":0,"x_min":25,"x_max":582,"o":"m 81 1140 l 25 1174 q 142 1311 72 1265 q 303 1357 211 1357 q 465 1311 394 1357 q 582 1174 535 1265 l 525 1140 q 428 1258 486 1219 q 303 1296 371 1296 q 178 1258 235 1296 q 81 1140 121 1219 m 368 1129 q 350 1085 368 1103 q 306 1068 332 1068 q 261 1085 279 1068 q 243 1129 243 1103 q 261 1174 243 1156 q 306 1192 279 1192 q 350 1174 332 1192 q 368 1129 368 1156 z "},"ँ":{"ha":0,"x_min":25,"x_max":582,"o":"m 242 1296 q 260 1340 242 1322 q 304 1357 278 1357 q 349 1340 331 1357 q 367 1296 367 1322 q 349 1253 367 1271 q 304 1235 331 1235 q 260 1253 278 1235 q 242 1296 242 1271 m 525 1285 l 582 1253 q 464 1115 533 1161 q 304 1068 394 1068 q 142 1115 213 1068 q 25 1253 72 1161 l 81 1285 q 178 1168 119 1207 q 304 1129 236 1129 q 428 1168 371 1129 q 525 1285 485 1207 z "},"ं":{"ha":0,"x_min":33,"x_max":157,"o":"m 33 1100 q 51 1144 33 1126 q 94 1163 68 1163 q 139 1144 121 1163 q 157 1100 157 1126 q 139 1058 157 1075 q 94 1040 121 1040 q 51 1058 68 1040 q 33 1100 33 1075 z "},"ः":{"ha":188,"x_min":31,"x_max":156,"o":"m 31 642 q 49 687 31 668 q 93 706 67 706 q 138 687 119 706 q 156 642 156 668 q 138 599 156 617 q 93 582 119 582 q 49 599 67 582 q 31 642 31 617 m 31 183 q 49 228 31 210 q 93 246 67 246 q 138 228 119 246 q 156 183 156 210 q 138 140 156 158 q 93 122 119 122 q 49 140 67 122 q 31 183 31 158 z "},"ऄ":{"ha":1197,"x_min":96,"x_max":1214,"o":"m 943 0 l 943 454 l 556 454 q 643 364 611 419 q 675 249 675 308 q 594 54 675 131 q 357 -22 514 -22 q 207 2 275 -22 q 96 57 139 26 l 113 126 q 226 68 163 92 q 361 44 289 44 q 526 99 461 44 q 590 246 590 153 q 542 386 590 329 q 408 453 493 443 q 363 456 386 454 q 313 457 339 457 l 226 457 l 203 515 l 329 515 q 508 567 446 515 q 569 714 569 618 q 522 842 569 789 q 376 896 474 896 q 242 870 306 896 q 125 803 178 844 l 113 874 q 226 937 157 910 q 378 964 294 964 q 590 888 526 964 q 654 713 654 813 q 624 603 654 656 q 539 517 593 551 l 943 517 l 943 879 l 775 879 l 754 944 l 943 944 l 943 968 q 904 1058 943 1021 q 792 1096 865 1096 l 778 1096 q 606 1149 674 1096 q 538 1286 538 1203 l 538 1307 l 615 1286 q 658 1199 615 1233 q 769 1164 701 1164 l 783 1164 q 958 1105 892 1163 q 1024 968 1024 1047 l 1024 944 l 1192 944 l 1214 879 l 1024 879 l 1024 -22 l 943 0 z "},"अ":{"ha":1197,"x_min":96,"x_max":1214,"o":"m 357 -22 q 207 2 275 -22 q 96 57 139 26 l 113 126 q 226 68 163 92 q 361 44 289 44 q 526 99 461 44 q 590 246 590 153 q 532 397 590 338 q 357 457 474 457 l 226 457 l 203 515 l 360 515 q 517 575 464 515 q 569 714 569 635 q 522 842 569 789 q 376 896 474 896 q 242 870 306 896 q 125 803 178 844 l 113 874 q 226 937 157 910 q 378 964 294 964 q 590 888 526 964 q 654 713 654 813 q 624 603 654 656 q 539 517 593 551 l 943 517 l 943 879 l 775 879 l 754 944 l 1192 944 l 1214 879 l 1024 879 l 1024 -22 l 943 0 l 943 454 l 556 454 q 643 364 611 419 q 675 249 675 308 q 594 54 675 131 q 357 -22 514 -22 z "},"आ":{"ha":1589,"x_min":96,"x_max":1604,"o":"m 943 0 l 943 454 l 556 454 q 643 364 611 419 q 675 249 675 308 q 594 54 675 131 q 357 -22 514 -22 q 207 2 275 -22 q 96 57 139 26 l 113 126 q 226 68 163 92 q 361 44 289 44 q 526 99 461 44 q 590 246 590 153 q 532 397 590 338 q 357 457 474 457 l 226 457 l 203 515 l 360 515 q 517 575 464 515 q 569 714 569 635 q 522 842 569 789 q 376 896 474 896 q 242 870 306 896 q 125 803 178 844 l 113 874 q 226 937 157 910 q 378 964 294 964 q 590 888 526 964 q 654 713 654 813 q 624 603 654 656 q 539 517 593 551 l 943 517 l 943 879 l 775 879 l 754 944 l 1583 944 l 1604 879 l 1415 879 l 1415 -22 l 1335 0 l 1335 879 l 1024 879 l 1024 -22 l 943 0 z "},"इ":{"ha":739,"x_min":-15,"x_max":754,"o":"m 383 40 q 540 84 479 40 q 600 201 600 128 q 553 316 600 268 q 424 364 507 364 l 283 364 q 140 414 203 364 q 76 540 76 464 q 137 669 76 624 q 286 715 197 715 l 517 715 l 517 879 l 4 879 l -15 944 l 733 944 l 754 879 l 597 879 l 597 649 l 276 649 q 190 616 222 649 q 158 540 158 583 q 192 463 158 494 q 279 431 225 431 l 411 431 q 607 372 532 431 q 682 206 682 314 q 607 44 682 114 q 383 -26 532 -26 q 328 -24 357 -26 q 274 -15 300 -21 l 415 -192 l 363 -228 l 185 0 q 106 52 146 17 q 67 131 67 88 q 78 162 67 149 q 113 175 90 175 q 187 149 151 175 q 244 63 222 122 q 313 47 278 53 q 383 40 349 42 z "},"ई":{"ha":739,"x_min":-15,"x_max":754,"o":"m 383 40 q 541 84 482 40 q 600 201 600 128 q 553 317 600 269 q 424 364 507 364 l 283 364 q 140 414 203 364 q 76 540 76 464 q 137 669 76 624 q 286 715 197 715 l 517 715 l 517 879 l 4 879 l -15 944 l 508 944 q 443 1035 471 975 q 415 1143 415 1094 q 460 1274 415 1217 q 593 1332 506 1332 q 681 1317 644 1332 q 742 1286 718 1303 l 714 1238 q 664 1261 692 1251 q 601 1271 636 1271 q 522 1235 554 1271 q 489 1142 489 1200 q 522 1028 489 1086 q 589 944 554 971 l 733 944 l 754 879 l 597 879 l 597 649 l 276 649 q 190 616 222 649 q 158 540 158 583 q 192 463 158 494 q 279 431 225 431 l 411 431 q 607 372 532 431 q 682 206 682 314 q 607 44 682 114 q 383 -26 532 -26 q 328 -24 357 -26 q 274 -15 300 -21 l 415 -192 l 363 -228 l 185 0 q 106 52 146 17 q 67 131 67 88 q 78 162 67 149 q 113 175 90 175 q 187 149 151 175 q 244 63 222 122 q 313 47 278 53 q 383 40 349 42 z "},"उ":{"ha":747,"x_min":-15,"x_max":763,"o":"m 338 -22 q 186 2 254 -22 q 75 57 118 26 l 92 126 q 206 68 143 92 q 342 44 269 44 q 506 99 442 44 q 569 246 569 153 q 510 398 569 339 q 333 457 450 457 l 206 457 l 182 515 l 336 515 q 494 575 440 515 q 549 714 549 635 q 524 814 549 769 q 453 879 500 858 l 4 879 l -15 944 l 740 944 l 763 879 l 569 879 q 617 803 600 847 q 635 713 635 758 q 597 585 635 650 q 476 490 558 519 q 611 390 568 464 q 654 249 654 317 q 574 54 654 131 q 338 -22 493 -22 z "},"ऊ":{"ha":1154,"x_min":-15,"x_max":1169,"o":"m 338 -22 q 186 2 254 -22 q 75 57 118 26 l 92 126 q 206 68 143 92 q 342 44 269 44 q 506 99 442 44 q 569 246 569 153 q 510 398 569 339 q 333 457 450 457 l 206 457 l 182 515 l 340 515 q 496 575 443 515 q 549 714 549 635 q 524 814 549 769 q 453 879 500 858 l 4 879 l -15 944 l 1149 944 l 1169 879 l 569 879 q 617 803 600 847 q 635 713 635 758 q 597 585 635 650 q 476 490 558 519 q 538 465 511 481 q 583 428 564 450 q 682 501 618 465 q 833 538 746 538 q 1052 454 971 538 q 1133 254 1133 371 q 1038 47 1133 122 q 846 -28 943 -28 l 826 36 q 979 98 913 36 q 1046 256 1046 160 q 986 408 1046 346 q 836 469 926 469 q 707 438 761 469 q 622 372 653 407 q 646 309 638 342 q 654 249 654 276 q 574 54 654 131 q 338 -22 493 -22 z "},"ऋ":{"ha":1193,"x_min":-15,"x_max":1210,"o":"m 900 106 q 999 150 960 106 q 1039 283 1039 194 q 1007 410 1039 349 q 935 514 975 472 q 834 432 908 474 q 664 390 760 390 l 610 390 l 610 -22 l 529 0 l 529 351 l 151 149 l 110 207 l 518 428 q 349 572 422 543 q 215 601 275 601 q 153 589 189 601 q 88 563 118 576 l 53 631 q 132 657 83 644 q 206 669 181 669 q 353 646 269 669 q 529 510 438 622 l 529 879 l 4 879 l -15 944 l 1188 944 l 1210 879 l 610 879 l 610 454 l 638 454 q 812 496 750 454 q 894 572 874 538 q 869 606 881 586 q 857 654 857 626 q 873 697 857 681 q 918 714 889 714 q 991 688 960 714 q 1022 629 1022 661 q 1015 594 1022 613 q 988 557 1008 575 q 1080 424 1043 508 q 1117 275 1117 339 q 1063 109 1117 178 q 900 40 1010 40 q 832 44 860 40 q 769 61 804 49 l 790 121 q 843 108 821 111 q 900 106 865 106 z "},"ऌ":{"ha":1167,"x_min":-15,"x_max":1182,"o":"m 935 -129 q 976 -125 957 -129 q 1015 -115 994 -121 l 1028 -176 q 975 -187 1003 -183 q 919 -192 947 -192 q 779 -140 842 -192 q 717 0 717 -89 q 783 142 717 92 q 921 193 850 193 l 921 394 q 887 534 917 469 q 765 599 857 599 q 649 540 690 599 q 607 389 607 481 l 607 217 l 526 242 l 526 389 q 482 538 526 481 q 350 596 438 596 q 224 544 272 596 q 176 425 176 493 q 218 227 176 315 q 328 1 260 139 q 294 -12 311 -4 q 260 -25 278 -19 q 146 206 197 97 q 94 435 94 314 q 165 596 94 525 q 350 667 235 667 q 475 638 419 667 q 564 557 531 608 q 649 638 596 610 q 767 667 701 667 q 858 647 818 667 q 921 606 899 628 l 921 879 l 4 879 l -15 944 l 1161 944 l 1182 879 l 1001 879 l 1001 131 l 935 131 q 834 95 874 131 q 794 0 794 60 q 833 -94 794 -60 q 935 -129 871 -129 z "},"ऍ":{"ha":910,"x_min":-15,"x_max":925,"o":"m 688 1285 l 743 1253 q 626 1115 696 1161 q 467 1068 557 1068 q 305 1115 375 1068 q 189 1253 235 1161 l 243 1285 q 340 1168 282 1207 q 467 1129 399 1129 q 590 1168 533 1129 q 688 1285 647 1207 m 665 360 l 665 879 l 256 879 l 256 179 q 272 88 256 131 q 332 18 289 44 l 683 -200 l 643 -258 l 293 -50 q 203 41 232 -14 q 175 188 175 96 l 175 879 l 4 879 l -15 944 l 904 944 l 925 879 l 746 879 l 746 340 q 706 194 746 247 q 557 106 665 140 l 519 164 q 631 231 597 192 q 665 360 665 269 z "},"ऎ":{"ha":910,"x_min":-15,"x_max":925,"o":"m 665 360 l 665 879 l 256 879 l 256 179 q 272 88 256 131 q 332 18 289 44 l 683 -200 q 663 -229 674 -214 q 643 -258 653 -244 l 293 -50 q 203 41 232 -14 q 175 188 175 96 l 175 879 l 4 879 l -15 944 l 665 944 l 665 968 q 626 1058 665 1021 q 514 1096 586 1096 l 407 1096 q 237 1149 307 1096 q 167 1286 167 1203 l 167 1307 l 244 1286 q 288 1198 244 1233 q 399 1163 331 1163 l 504 1163 q 678 1105 611 1163 q 746 968 746 1047 l 746 944 l 904 944 l 925 879 l 746 879 l 746 340 q 706 194 746 247 q 557 106 665 140 l 519 164 q 631 231 597 192 q 665 360 665 269 z "},"ए":{"ha":910,"x_min":-15,"x_max":925,"o":"m 665 360 l 665 879 l 256 879 l 256 179 q 272 88 256 131 q 332 18 289 44 l 683 -200 l 643 -258 l 293 -50 q 203 41 232 -14 q 175 188 175 96 l 175 879 l 4 879 l -15 944 l 904 944 l 925 879 l 746 879 l 746 340 q 706 194 746 247 q 557 106 665 140 l 519 164 q 631 231 597 192 q 665 360 665 269 z "},"ऐ":{"ha":910,"x_min":-15,"x_max":925,"o":"m 665 360 l 665 879 l 256 879 l 256 179 q 272 88 256 131 q 332 18 289 44 l 683 -200 l 643 -258 l 293 -50 q 203 41 232 -14 q 175 188 175 96 l 175 879 l 4 879 l -15 944 l 642 944 l 303 1256 l 365 1303 l 731 944 l 904 944 l 925 879 l 746 879 l 746 340 q 706 194 746 247 q 557 106 665 140 l 519 164 q 631 231 597 192 q 665 360 665 269 z "},"ऑ":{"ha":1589,"x_min":96,"x_max":1604,"o":"m 1404 1285 l 1460 1253 q 1343 1115 1413 1161 q 1183 1068 1274 1068 q 1022 1115 1092 1068 q 904 1253 951 1161 l 960 1285 q 1057 1168 999 1207 q 1183 1129 1115 1129 q 1307 1168 1250 1129 q 1404 1285 1364 1207 m 943 0 l 943 454 l 556 454 q 643 364 611 419 q 675 249 675 308 q 594 54 675 131 q 357 -22 514 -22 q 207 2 275 -22 q 96 57 139 26 l 113 126 q 226 68 163 92 q 361 44 289 44 q 526 99 461 44 q 590 246 590 153 q 531 398 590 339 q 354 457 471 457 l 226 457 l 203 515 l 360 515 q 517 575 464 515 q 569 714 569 635 q 522 842 569 789 q 376 896 474 896 q 242 870 306 896 q 125 803 178 844 l 113 874 q 226 937 157 910 q 378 964 294 964 q 590 888 526 964 q 654 713 654 813 q 624 603 654 656 q 539 517 593 551 l 943 517 l 943 879 l 775 879 l 754 944 l 1583 944 l 1604 879 l 1415 879 l 1415 -22 l 1335 0 l 1335 879 l 1024 879 l 1024 -22 l 943 0 z "},"ऒ":{"ha":1589,"x_min":96,"x_max":1604,"o":"m 943 0 l 943 454 l 556 454 q 643 362 611 419 q 675 244 675 304 q 594 52 675 126 q 357 -22 514 -22 q 207 2 275 -22 q 96 57 139 26 l 113 126 q 226 68 163 92 q 361 44 289 44 q 526 97 461 44 q 590 242 590 150 q 517 407 590 357 q 314 457 443 457 l 226 457 l 203 515 l 313 515 q 503 562 438 515 q 569 711 569 608 q 522 841 569 786 q 376 896 474 896 q 242 870 306 896 q 125 803 178 844 l 113 874 q 226 937 157 910 q 378 964 294 964 q 590 886 526 964 q 654 708 654 808 q 624 602 654 653 q 539 517 593 551 l 943 517 l 943 879 l 775 879 l 754 944 l 1336 944 l 1336 968 q 1297 1058 1336 1021 q 1183 1096 1257 1096 l 1161 1096 q 974 1147 1049 1096 q 899 1286 899 1197 l 899 1307 l 976 1286 q 1019 1199 976 1233 q 1131 1164 1063 1164 l 1176 1164 q 1351 1106 1285 1164 q 1417 968 1417 1047 l 1417 944 l 1583 944 l 1604 879 l 1415 879 l 1415 -22 l 1335 0 l 1335 879 l 1024 879 l 1024 -22 l 943 0 z "},"ओ":{"ha":1589,"x_min":96,"x_max":1604,"o":"m 943 0 l 943 454 l 556 454 q 643 364 611 419 q 675 249 675 308 q 594 54 675 131 q 357 -22 514 -22 q 207 2 275 -22 q 96 57 139 26 l 113 126 q 226 68 163 92 q 361 44 289 44 q 526 99 461 44 q 590 246 590 153 q 516 410 590 363 q 314 457 442 457 l 226 457 l 203 515 l 313 515 q 503 565 438 515 q 569 714 569 614 q 522 842 569 789 q 376 896 474 896 q 242 870 306 896 q 125 803 178 844 l 113 874 q 226 937 157 910 q 378 964 294 964 q 590 888 526 964 q 654 713 654 813 q 624 603 654 656 q 539 517 593 551 l 943 517 l 943 879 l 775 879 l 754 944 l 1313 944 l 974 1256 l 1035 1303 l 1401 944 l 1583 944 l 1604 879 l 1415 879 l 1415 -22 l 1335 0 l 1335 879 l 1024 879 l 1024 -22 l 943 0 z "},"औ":{"ha":1589,"x_min":96,"x_max":1604,"o":"m 943 0 l 943 454 l 556 454 q 643 364 611 419 q 675 249 675 308 q 594 54 675 131 q 357 -22 514 -22 q 207 2 275 -22 q 96 57 139 26 l 113 126 q 226 68 163 92 q 361 44 289 44 q 526 99 461 44 q 590 246 590 153 q 531 398 590 339 q 354 457 471 457 l 226 457 l 203 515 l 311 515 q 503 565 436 515 q 569 714 569 614 q 522 842 569 789 q 376 896 474 896 q 242 870 306 896 q 125 803 178 844 l 113 874 q 226 937 157 910 q 378 964 294 964 q 590 888 526 964 q 654 713 654 813 q 624 603 654 656 q 539 517 593 551 l 943 517 l 943 879 l 775 879 l 754 944 l 1331 944 l 1272 1007 q 1148 1102 1200 1085 q 1036 1119 1096 1119 l 918 1119 l 900 1188 l 1032 1188 q 1174 1167 1110 1188 q 1315 1050 1239 1146 l 1213 1379 l 1289 1413 l 1406 944 l 1583 944 l 1604 879 l 1415 879 l 1415 -22 l 1335 0 l 1335 879 l 1024 879 l 1024 -22 l 943 0 z "},"क":{"ha":1224,"x_min":-15,"x_max":1239,"o":"m 151 426 q 213 272 151 333 q 365 211 275 211 q 500 254 451 211 q 574 340 549 297 l 574 511 q 500 597 549 554 q 365 640 451 640 q 215 579 278 640 q 151 426 153 518 m 1081 426 q 1017 579 1081 518 q 867 640 954 640 q 728 594 778 640 q 654 506 678 547 l 654 -22 l 574 0 l 574 228 q 490 169 542 196 q 369 143 439 143 q 153 217 243 143 q 63 425 63 292 q 149 631 63 554 q 369 708 236 708 q 490 681 439 708 q 574 621 542 653 l 574 879 l 4 879 l -15 944 l 1218 944 l 1239 879 l 654 879 l 654 615 q 739 679 686 650 q 864 708 792 708 q 1083 631 996 708 q 1169 425 1169 554 q 1083 219 1169 294 q 883 143 996 143 l 867 208 q 1022 272 964 208 q 1081 426 1081 336 z "},"ख":{"ha":1258,"x_min":-15,"x_max":1274,"o":"m 550 472 q 626 649 550 576 q 821 722 701 722 q 924 702 878 722 q 1004 650 971 682 l 1004 879 l 401 879 q 456 778 438 838 q 474 663 474 718 q 410 477 474 561 q 233 371 346 393 q 347 153 240 263 q 611 43 453 43 q 869 127 765 43 q 999 294 974 211 q 920 243 964 264 q 821 222 876 222 q 628 293 707 222 q 550 472 550 364 m 1004 472 l 1004 479 q 951 606 1001 554 q 821 657 901 657 q 688 603 742 657 q 635 472 635 550 q 686 340 635 393 q 821 288 738 288 q 954 340 904 288 q 1004 472 1004 393 m 1004 0 l 1004 161 q 852 34 953 90 q 611 -22 751 -22 q 285 103 406 -22 q 157 368 164 228 l 113 368 q 82 381 93 368 q 71 411 71 393 q 104 494 71 454 q 186 535 138 535 q 215 519 203 535 q 231 482 228 504 l 235 447 q 347 524 301 465 q 392 663 392 582 q 365 785 392 721 q 296 879 339 850 l 4 879 l -15 944 l 1253 944 l 1274 879 l 1085 879 l 1085 -22 l 1004 0 z "},"ग":{"ha":831,"x_min":-15,"x_max":847,"o":"m 257 879 l 257 313 q 247 268 257 285 q 218 251 238 251 q 123 294 163 251 q 83 379 83 336 q 94 413 83 400 q 128 426 106 426 l 176 426 l 176 879 l 4 879 l -15 944 l 825 944 l 847 879 l 658 879 l 658 -22 l 578 0 l 578 879 l 257 879 z "},"घ":{"ha":972,"x_min":-15,"x_max":988,"o":"m 719 0 l 719 303 q 597 174 679 226 q 392 121 515 121 q 179 188 258 121 q 100 356 100 256 q 134 482 100 424 q 236 563 168 540 q 148 632 181 581 q 115 747 115 683 q 129 818 115 783 q 168 879 143 853 l 4 879 l -15 944 l 967 944 l 988 879 l 799 879 l 799 -22 l 719 0 m 199 746 q 246 634 199 678 q 392 590 293 590 l 440 590 l 467 531 l 399 531 q 230 476 275 531 q 185 354 185 422 q 250 236 185 279 q 396 193 315 193 q 626 289 533 193 q 719 597 719 385 l 719 879 l 290 879 q 226 827 254 869 q 199 746 199 785 z "},"ङ":{"ha":786,"x_min":-15,"x_max":803,"o":"m 674 532 q 692 576 674 558 q 735 594 710 594 q 780 576 761 594 q 799 532 799 558 q 780 489 799 507 q 735 471 761 471 q 692 489 710 471 q 674 532 674 507 m 381 40 q 538 84 479 40 q 597 201 597 128 q 551 317 597 269 q 421 364 504 364 l 286 364 q 142 414 206 364 q 79 540 79 464 q 140 669 79 624 q 289 715 200 715 l 514 715 l 514 879 l 4 879 l -15 944 l 781 944 l 803 879 l 594 879 l 594 649 l 279 649 q 193 616 225 649 q 161 540 161 583 q 194 463 161 494 q 282 431 228 431 l 408 431 q 604 372 529 431 q 679 206 679 314 q 606 42 679 110 q 381 -26 533 -26 q 213 -1 296 -26 q 90 53 131 24 l 107 125 q 232 66 157 90 q 381 40 307 42 z "},"च":{"ha":951,"x_min":-15,"x_max":967,"o":"m 588 588 l 485 588 q 319 534 378 588 q 261 399 261 481 q 319 256 261 310 q 476 201 376 201 q 640 259 581 201 q 699 408 699 317 l 699 879 l 4 879 l -15 944 l 946 944 l 967 879 l 779 879 l 779 -22 l 699 0 l 699 215 q 608 156 664 181 q 476 132 551 132 q 267 199 354 132 q 179 399 179 267 q 206 510 179 458 q 272 588 233 561 l 53 588 l 32 656 l 563 656 l 588 588 z "},"छ":{"ha":1057,"x_min":-15,"x_max":1072,"o":"m 433 -22 q 183 50 276 -22 q 89 250 89 122 q 134 392 89 318 q 271 493 179 467 q 149 588 189 524 q 108 714 108 653 q 125 804 108 761 q 172 879 142 847 l 6 879 l -15 944 l 1050 944 l 1072 879 l 854 879 l 854 772 q 970 691 932 754 q 1008 565 1008 628 q 863 195 1008 413 q 433 -22 717 -22 m 432 44 q 694 133 576 44 q 861 336 811 222 q 690 405 775 339 q 604 572 604 471 q 656 715 604 658 q 786 776 707 771 l 786 879 l 290 879 q 219 815 243 858 q 194 717 194 772 q 249 578 194 636 q 408 519 303 519 l 481 519 l 504 461 l 410 461 q 236 401 299 461 q 174 247 174 342 q 251 97 174 150 q 432 44 328 44 m 932 560 q 904 661 932 613 q 806 710 876 710 q 713 669 746 710 q 681 572 681 628 q 753 444 681 492 q 892 390 825 396 q 921 474 910 431 q 932 560 932 517 z "},"ज":{"ha":1026,"x_min":-15,"x_max":1042,"o":"m 282 114 q 131 138 199 114 q 19 192 64 161 l 38 264 q 149 204 86 226 q 282 182 211 182 q 440 236 382 182 q 497 379 497 290 q 438 517 497 465 q 285 568 379 568 l 190 568 l 167 636 l 774 636 l 774 879 l 4 879 l -15 944 l 1021 944 l 1042 879 l 853 879 l 853 -22 l 774 0 l 774 568 l 492 568 q 558 490 533 542 q 582 379 582 439 q 498 182 582 250 q 282 114 414 114 z "},"झ":{"ha":1161,"x_min":-15,"x_max":1176,"o":"m 907 879 l 597 879 l 597 649 l 276 649 q 190 616 222 649 q 158 540 158 583 q 192 463 158 494 q 279 431 225 431 l 411 431 q 535 411 479 431 q 626 356 592 392 l 907 356 l 907 879 m 383 40 q 541 84 482 40 q 600 201 600 128 q 553 317 600 269 q 424 364 507 364 l 283 364 q 140 414 203 364 q 76 540 76 464 q 137 669 76 624 q 286 715 197 715 l 517 715 l 517 879 l 4 879 l -15 944 l 1156 944 l 1176 879 l 988 879 l 988 -22 l 907 0 l 907 293 l 665 293 q 678 251 674 274 q 682 206 682 229 q 607 44 682 114 q 383 -26 532 -26 q 328 -24 357 -26 q 274 -15 300 -21 l 415 -192 l 363 -228 l 185 0 q 106 52 146 17 q 67 131 67 88 q 78 162 67 149 q 113 175 90 175 q 187 149 151 175 q 244 63 222 122 q 313 47 278 53 q 383 40 349 42 z "},"ञ":{"ha":1035,"x_min":-15,"x_max":1050,"o":"m 289 129 q 138 153 206 129 q 26 208 71 178 l 44 281 q 156 221 93 243 q 289 199 218 199 q 447 258 389 199 q 504 419 504 318 q 451 581 504 521 q 289 640 397 640 q 217 634 254 640 q 149 618 179 628 l 129 683 q 205 701 164 694 q 289 708 246 708 q 491 647 406 708 q 586 446 576 586 l 782 446 l 782 879 l 4 879 l -15 944 l 1029 944 l 1050 879 l 863 879 l 863 -22 l 782 0 l 782 382 l 586 382 q 489 192 574 254 q 289 129 404 129 z "},"ट":{"ha":849,"x_min":-15,"x_max":864,"o":"m 497 43 q 642 64 574 43 q 775 131 711 85 l 786 57 q 657 -4 733 17 q 497 -25 581 -25 q 209 47 338 -25 q 81 315 81 119 q 206 574 81 488 q 514 660 332 660 l 607 660 l 607 879 l 4 879 l -15 944 l 843 944 l 864 879 l 688 879 l 688 592 l 514 592 q 263 520 358 592 q 167 315 167 449 q 262 103 167 164 q 497 43 357 43 z "},"ठ":{"ha":981,"x_min":-15,"x_max":996,"o":"m 82 315 q 190 558 82 471 q 454 656 297 644 l 454 879 l 4 879 l -15 944 l 975 944 l 996 879 l 535 879 l 535 657 q 799 571 686 649 q 913 318 913 493 q 790 62 913 149 q 497 -25 668 -25 q 208 52 335 -25 q 82 315 82 129 m 497 44 q 732 115 636 44 q 828 318 828 185 q 733 528 828 467 q 497 589 638 589 q 263 519 358 589 q 167 315 167 449 q 262 106 167 167 q 497 44 357 44 z "},"ड":{"ha":736,"x_min":-15,"x_max":751,"o":"m 381 40 q 538 84 479 40 q 597 201 597 128 q 551 317 597 269 q 421 364 504 364 l 286 364 q 142 414 206 364 q 79 540 79 464 q 140 669 79 624 q 289 715 200 715 l 514 715 l 514 879 l 4 879 l -15 944 l 731 944 l 751 879 l 594 879 l 594 649 l 279 649 q 193 616 225 649 q 161 540 161 583 q 194 463 161 494 q 282 431 228 431 l 408 431 q 604 372 529 431 q 679 206 679 314 q 606 42 679 110 q 381 -26 533 -26 q 213 -1 296 -26 q 90 53 131 24 l 107 125 q 232 66 157 90 q 381 40 307 42 z "},"ढ":{"ha":869,"x_min":-15,"x_max":885,"o":"m 486 43 q 433 110 458 69 q 407 203 407 151 q 464 342 407 283 q 608 400 521 400 q 757 347 701 400 q 813 214 813 293 q 722 44 813 114 q 497 -25 632 -25 q 209 53 338 -25 q 81 326 81 131 q 206 590 81 497 q 514 682 332 682 l 606 682 l 606 879 l 4 879 l -15 944 l 864 944 l 885 879 l 688 879 l 688 614 l 514 614 q 263 537 358 614 q 167 326 167 460 q 258 111 167 178 q 486 43 349 44 m 488 201 q 515 113 488 150 q 588 54 542 75 q 697 117 661 72 q 733 211 733 161 q 704 292 733 256 q 615 328 675 328 q 522 292 557 328 q 488 201 488 257 z "},"ण":{"ha":1179,"x_min":-15,"x_max":1194,"o":"m 393 247 q 208 320 276 247 q 139 531 139 393 l 139 879 l 4 879 l -15 944 l 1174 944 l 1194 879 l 1007 879 l 1007 -22 l 926 0 l 926 879 l 647 879 l 647 531 q 579 320 647 393 q 393 247 511 247 m 218 524 q 263 372 218 429 q 396 314 307 315 q 524 374 481 317 q 568 524 568 431 l 568 879 l 218 879 l 218 524 z "},"त":{"ha":908,"x_min":-15,"x_max":924,"o":"m 656 0 l 656 557 l 378 557 q 224 515 274 557 q 175 400 175 472 q 231 229 175 326 q 374 3 288 132 l 304 -25 q 164 191 235 75 q 93 406 93 307 q 156 560 93 497 q 329 622 218 622 l 656 622 l 656 879 l 4 879 l -15 944 l 903 944 l 924 879 l 736 879 l 736 -22 l 656 0 z "},"थ":{"ha":899,"x_min":50,"x_max":914,"o":"m 206 685 q 98 722 146 685 q 50 818 50 758 q 94 921 50 878 q 208 964 138 964 q 349 894 288 964 q 411 733 411 825 q 349 559 411 613 q 217 474 286 506 q 298 360 236 401 q 438 315 360 319 q 587 366 529 315 q 644 508 644 417 l 644 879 l 522 879 l 503 944 l 893 944 l 914 879 l 726 879 l 726 -22 l 644 0 l 644 326 q 558 267 614 288 q 438 247 501 247 q 227 326 315 247 q 139 504 139 404 l 156 524 q 274 583 210 540 q 339 718 339 626 q 339 735 339 726 q 338 751 339 743 q 282 705 319 725 q 206 685 244 685 m 210 899 q 151 877 175 899 q 126 819 126 856 q 151 767 126 788 q 210 746 175 746 q 276 771 250 746 q 314 826 303 796 q 270 878 297 858 q 210 899 243 899 z "},"द":{"ha":803,"x_min":-15,"x_max":818,"o":"m 738 -22 l 674 -60 l 574 126 q 518 117 550 119 q 456 115 486 115 q 196 192 311 115 q 81 431 81 268 q 190 652 81 569 q 472 735 299 735 l 553 735 l 553 879 l 4 879 l -15 944 l 796 944 l 818 879 l 633 879 l 633 668 l 476 668 q 252 602 339 668 q 165 431 165 536 q 247 251 165 315 q 456 186 328 186 q 500 188 478 186 q 540 193 522 190 q 529 225 533 211 q 525 253 525 239 q 543 295 525 281 q 586 310 561 310 q 653 290 617 310 q 690 235 690 269 q 677 193 690 215 q 638 150 664 171 l 738 -22 z "},"ध":{"ha":992,"x_min":106,"x_max":1007,"o":"m 204 746 q 251 634 204 678 q 396 590 297 590 l 446 590 l 471 531 l 403 531 q 234 476 279 531 q 189 354 189 422 q 258 234 189 275 q 408 193 328 193 q 641 287 543 193 q 739 588 739 381 l 739 879 l 628 879 l 608 944 l 986 944 l 1007 879 l 819 879 l 819 -22 l 739 0 l 739 303 q 614 174 700 226 q 404 121 528 121 q 188 185 271 121 q 106 356 106 250 q 140 482 106 424 q 242 563 174 540 q 153 632 186 581 q 119 747 119 683 q 185 899 119 835 q 363 964 250 964 q 480 938 428 964 q 547 890 532 913 l 506 843 q 448 880 485 865 q 364 894 411 894 q 249 851 293 894 q 204 746 204 808 z "},"न":{"ha":821,"x_min":-15,"x_max":836,"o":"m 567 0 l 567 460 l 232 460 l 232 408 q 222 363 232 379 q 192 346 211 346 q 97 389 136 346 q 57 476 57 432 q 69 509 57 496 q 103 522 81 522 l 567 522 l 567 879 l 4 879 l -15 944 l 815 944 l 836 879 l 647 879 l 647 -22 l 567 0 z "},"ऩ":{"ha":821,"x_min":-15,"x_max":836,"o":"m 567 0 l 567 460 l 232 460 l 232 408 q 222 363 232 379 q 192 346 211 346 q 97 389 136 346 q 57 476 57 432 q 69 509 57 496 q 103 522 81 522 l 567 522 l 567 879 l 4 879 l -15 944 l 815 944 l 836 879 l 647 879 l 647 -22 l 567 0 m 128 32 q 147 76 128 58 q 190 94 165 94 q 235 76 217 94 q 253 32 253 58 q 235 -10 253 8 q 190 -28 217 -28 q 147 -10 165 -28 q 128 32 128 8 z "},"प":{"ha":882,"x_min":-15,"x_max":897,"o":"m 629 0 l 629 325 q 544 269 599 290 q 425 247 489 247 q 212 324 289 247 q 135 538 135 400 l 135 879 l 4 879 l -15 944 l 876 944 l 897 879 l 710 879 l 710 -22 l 629 0 m 629 507 l 629 879 l 214 879 l 214 528 q 269 374 214 432 q 429 317 325 317 q 574 369 521 317 q 629 507 628 421 z "},"फ":{"ha":1276,"x_min":-15,"x_max":1293,"o":"m 429 317 q 574 370 521 317 q 628 511 628 424 l 628 879 l 214 879 l 214 528 q 269 374 214 432 q 429 317 325 317 m 628 0 l 628 325 q 543 269 597 290 q 425 247 489 247 q 211 324 289 247 q 133 538 133 400 l 133 879 l 4 879 l -15 944 l 1271 944 l 1293 879 l 710 879 l 710 606 q 794 668 742 639 q 917 697 846 697 q 1135 620 1049 697 q 1222 414 1222 543 q 1135 208 1222 283 q 936 132 1047 132 l 921 196 q 1076 260 1018 196 q 1135 414 1135 324 q 1071 567 1135 507 q 921 628 1007 628 q 782 583 832 628 q 710 496 732 538 l 710 -22 l 628 0 z "},"ब":{"ha":826,"x_min":-15,"x_max":843,"o":"m 574 0 l 574 228 q 490 169 542 196 q 369 143 439 143 q 153 217 243 143 q 63 425 63 292 q 149 631 63 554 q 369 708 236 708 q 490 682 439 708 q 574 624 542 656 l 574 879 l 4 879 l -15 944 l 821 944 l 843 879 l 654 879 l 654 -22 l 574 0 m 365 640 q 301 631 332 640 q 246 604 271 622 l 532 283 q 556 312 546 297 q 574 340 565 326 l 574 511 q 500 597 549 554 q 365 640 451 640 m 151 426 q 213 272 151 333 q 365 211 275 211 q 432 221 401 211 q 486 244 463 231 l 200 563 q 165 501 178 536 q 151 426 151 465 z "},"भ":{"ha":978,"x_min":43,"x_max":993,"o":"m 724 0 l 724 368 l 371 368 l 371 317 q 361 272 371 289 q 332 256 351 256 q 235 301 275 256 q 196 393 196 347 q 210 422 196 411 q 242 432 224 432 l 292 432 l 292 697 q 248 676 274 683 q 199 668 222 668 q 85 710 128 668 q 43 815 43 751 q 88 922 43 879 q 200 964 133 964 q 328 906 283 964 q 372 757 372 849 l 372 432 l 724 432 l 724 879 l 546 879 l 525 944 l 971 944 l 993 879 l 804 879 l 804 -22 l 724 0 m 204 728 q 253 740 231 728 q 290 769 276 753 q 269 859 289 822 q 201 896 249 896 q 140 871 163 896 q 118 811 118 846 q 141 753 118 779 q 204 728 164 728 z "},"म":{"ha":882,"x_min":-15,"x_max":899,"o":"m 629 0 l 629 368 l 239 368 l 239 317 q 229 272 239 289 q 200 256 219 256 q 105 298 144 256 q 65 383 65 340 q 76 417 65 403 q 110 432 88 432 l 158 432 l 158 879 l 4 879 l -15 944 l 876 944 l 899 879 l 710 879 l 710 -22 l 629 0 m 629 879 l 240 879 l 240 432 l 629 432 l 629 879 z "},"य":{"ha":851,"x_min":-15,"x_max":867,"o":"m 597 0 l 597 326 q 510 267 567 288 q 390 247 454 247 q 180 326 268 247 q 92 504 92 404 l 108 524 q 187 588 151 536 q 222 717 222 640 q 195 819 222 775 q 119 879 168 863 l 4 879 l -15 944 l 846 944 l 867 879 l 678 879 l 678 -22 l 597 0 m 390 317 q 549 372 501 317 q 597 544 597 428 l 597 879 l 231 879 q 279 814 258 860 q 300 708 300 768 q 267 576 300 642 q 169 478 235 511 q 251 364 189 407 q 390 317 313 321 z "},"र":{"ha":596,"x_min":-15,"x_max":611,"o":"m 178 368 l 122 368 q 94 376 107 368 q 81 403 81 383 q 109 492 81 449 q 182 535 138 535 q 213 519 200 535 q 233 482 225 504 l 247 447 q 359 524 314 465 q 404 663 404 582 q 378 788 404 726 q 308 879 351 850 l 4 879 l -15 944 l 589 944 l 611 879 l 415 879 q 471 778 453 838 q 489 663 489 718 q 426 480 489 560 q 256 374 363 400 l 489 0 l 406 -25 l 178 368 z "},"ऱ":{"ha":596,"x_min":-15,"x_max":611,"o":"m 178 368 l 122 368 q 94 378 107 368 q 81 403 81 388 q 109 489 81 443 q 182 535 138 535 q 213 519 200 535 q 233 482 225 504 l 247 447 q 359 524 314 465 q 404 663 404 582 q 378 788 404 726 q 308 879 351 850 l 4 879 l -15 944 l 589 944 l 611 879 l 415 879 q 471 778 453 838 q 489 663 489 718 q 426 480 489 560 q 256 374 363 400 l 489 0 l 406 -25 l 178 368 m 74 35 q 92 79 74 61 q 135 97 110 97 q 180 79 161 97 q 199 35 199 61 q 180 -8 199 10 q 135 -26 161 -26 q 92 -8 110 -26 q 74 35 74 10 z "},"ल":{"ha":1174,"x_min":-15,"x_max":1189,"o":"m 921 0 l 921 429 q 876 549 915 499 q 765 599 838 599 q 649 540 690 599 q 607 389 607 481 l 607 217 l 526 242 l 526 389 q 482 538 526 481 q 350 596 438 596 q 224 544 272 596 q 176 425 176 493 q 218 227 176 315 q 328 1 260 139 l 260 -25 q 146 206 197 97 q 94 435 94 314 q 165 597 94 526 q 350 667 235 667 q 475 638 419 667 q 564 557 531 608 q 649 638 596 610 q 767 667 701 667 q 858 647 818 667 q 921 606 899 628 l 921 879 l 4 879 l -15 944 l 1168 944 l 1189 879 l 1001 879 l 1001 -22 l 921 0 z "},"ळ":{"ha":1240,"x_min":-15,"x_max":1256,"o":"m 890 72 q 735 123 808 72 q 618 253 661 174 q 518 127 579 182 q 374 72 457 72 q 158 156 238 72 q 78 374 78 240 q 159 599 78 506 q 374 692 240 692 q 531 640 457 692 q 650 514 604 588 q 735 628 682 576 q 860 689 789 679 l 860 879 l 4 879 l -15 944 l 1235 944 l 1256 879 l 940 879 l 940 688 q 1118 592 1051 674 q 1185 389 1185 510 q 1101 165 1185 257 q 890 72 1017 72 m 889 622 q 750 539 801 622 q 672 376 699 456 q 663 349 669 369 q 653 321 656 328 q 753 194 690 249 q 889 139 817 139 q 1044 212 985 139 q 1104 393 1104 285 q 1047 556 1104 490 q 889 622 989 622 m 599 386 q 607 415 603 400 q 617 443 611 429 q 517 567 578 514 q 376 621 457 621 q 217 549 276 621 q 157 371 157 476 q 217 208 157 274 q 376 142 276 142 q 519 224 464 142 q 599 386 575 307 z "},"ऴ":{"ha":1240,"x_min":-15,"x_max":1256,"o":"m 890 72 q 735 123 808 72 q 618 253 661 174 q 518 127 579 182 q 374 72 457 72 q 158 156 238 72 q 78 374 78 240 q 159 599 78 506 q 374 692 240 692 q 531 640 457 692 q 650 514 604 588 q 735 628 682 576 q 860 689 789 679 l 860 879 l 4 879 l -15 944 l 1235 944 l 1256 879 l 940 879 l 940 688 q 1118 592 1051 674 q 1185 389 1185 510 q 1101 165 1185 257 q 890 72 1017 72 m 889 622 q 750 539 801 622 q 672 376 699 456 q 663 349 669 369 q 653 321 656 328 q 753 194 690 249 q 889 139 817 139 q 1044 212 985 139 q 1104 393 1104 285 q 1047 556 1104 490 q 889 622 989 622 m 599 386 q 607 415 603 400 q 617 443 611 429 q 517 567 578 514 q 376 621 457 621 q 217 549 276 621 q 157 371 157 476 q 217 208 157 274 q 376 142 276 142 q 519 224 464 142 q 599 386 575 307 m 554 -51 q 572 -7 554 -25 q 617 11 590 11 q 660 -7 643 11 q 678 -51 678 -25 q 660 -94 678 -76 q 617 -112 643 -112 q 572 -94 590 -112 q 554 -51 554 -76 z "},"व":{"ha":826,"x_min":-15,"x_max":843,"o":"m 574 624 l 574 879 l 4 879 l -15 944 l 821 944 l 843 879 l 654 879 l 654 -22 l 574 0 l 574 228 q 490 169 542 196 q 369 143 439 143 q 153 217 243 143 q 63 425 63 292 q 149 631 63 554 q 369 708 236 708 q 490 682 439 708 q 574 624 542 656 m 365 211 q 500 254 451 211 q 574 340 549 297 l 574 511 q 500 597 549 554 q 365 640 451 640 q 215 579 279 640 q 151 426 151 518 q 213 272 151 333 q 365 211 275 211 z "},"श":{"ha":1046,"x_min":76,"x_max":1061,"o":"m 793 0 l 793 879 l 624 879 l 604 944 l 1040 944 l 1061 879 l 874 879 l 874 -22 l 793 0 m 243 735 q 330 773 293 735 q 381 854 367 811 q 332 888 360 875 q 271 900 304 900 q 189 874 224 900 q 154 807 154 849 q 181 753 154 772 q 243 735 207 735 m 549 664 q 469 474 549 538 q 285 375 390 410 l 535 0 l 451 -25 l 208 369 l 154 369 q 124 381 135 369 q 113 414 113 393 q 142 497 113 457 q 214 536 171 536 q 245 521 232 536 q 265 483 258 506 l 278 444 q 410 514 351 454 q 468 667 468 574 q 457 738 468 699 q 422 810 446 776 q 358 718 406 761 q 239 675 310 675 q 125 712 174 675 q 76 808 76 749 q 132 918 76 872 q 275 964 188 964 q 473 876 397 964 q 549 664 549 788 z "},"ष":{"ha":885,"x_min":-15,"x_max":901,"o":"m 632 0 l 632 325 q 545 269 601 290 q 425 247 489 247 q 212 324 289 247 q 135 538 135 400 l 135 879 l 4 879 l -15 944 l 879 944 l 901 879 l 713 879 l 713 -22 l 632 0 m 632 507 l 632 879 l 258 879 l 626 463 q 630 483 629 472 q 632 507 631 494 m 429 317 q 531 338 488 317 q 599 397 575 358 l 214 832 l 214 528 q 269 374 214 432 q 429 317 325 317 z "},"स":{"ha":1038,"x_min":-15,"x_max":1051,"o":"m 783 879 l 415 879 q 471 778 453 838 q 489 663 489 718 q 471 562 489 610 q 421 475 453 514 l 783 475 l 783 879 m 178 368 l 122 368 q 94 378 107 368 q 81 403 81 389 q 109 490 81 444 q 182 535 138 535 q 213 519 200 535 q 233 482 225 504 l 247 447 q 359 524 314 465 q 404 663 404 582 q 378 788 404 726 q 308 879 351 850 l 4 879 l -15 944 l 1031 944 l 1051 879 l 864 879 l 864 -22 l 783 0 l 783 415 l 354 415 q 307 390 332 401 q 256 374 282 379 l 489 0 l 406 -25 l 178 368 z "},"ह":{"ha":738,"x_min":-15,"x_max":753,"o":"m 396 469 q 248 416 304 469 q 192 285 192 363 q 300 108 192 167 q 515 43 408 50 l 494 -22 q 229 67 347 -14 q 111 285 111 147 q 133 392 111 344 q 194 474 156 440 q 142 526 164 492 q 121 601 121 560 q 170 714 122 676 q 307 751 218 751 l 525 751 l 525 879 l 4 879 l -15 944 l 731 944 l 753 879 l 604 879 l 604 685 l 297 685 q 227 662 253 685 q 200 603 201 639 q 219 547 200 569 q 265 513 238 524 q 328 530 294 524 q 399 536 361 536 q 599 475 525 536 q 672 332 672 414 q 654 244 672 289 q 601 174 636 199 l 546 219 q 585 271 574 244 q 597 328 597 297 q 542 428 597 388 q 396 469 486 469 z "},"ॸ":{"ha":814,"x_min":-15,"x_max":829,"o":"m 428 411 l 249 411 l 249 364 q 238 319 249 336 q 208 303 228 303 q 113 346 153 303 q 74 433 74 389 q 85 465 74 451 q 118 478 97 478 l 168 478 l 168 879 l 4 879 l -15 944 l 807 944 l 829 879 l 249 879 l 249 478 l 432 478 q 646 401 568 478 q 724 188 724 325 l 724 -24 q 683 -12 703 -18 q 643 0 663 -6 l 643 199 q 588 353 643 294 q 428 411 532 411 z "},"ऺ":{"ha":0,"x_min":-133,"x_max":-56,"o":"m -56 1224 l -56 944 l -133 944 l -133 1246 l -56 1224 z "},"ऻ":{"ha":428,"x_min":-15,"x_max":443,"o":"m 253 1224 l 253 944 l 421 944 l 443 879 l 254 879 l 254 -22 l 174 0 l 174 879 l 4 879 l -15 944 l 175 944 l 175 1246 l 253 1224 z "},"़":{"ha":0,"x_min":33,"x_max":158,"o":"m 33 -135 q 51 -90 33 -108 q 96 -72 69 -72 q 140 -90 122 -72 q 158 -135 158 -108 q 140 -177 158 -160 q 96 -194 122 -194 q 51 -177 69 -194 q 33 -135 33 -160 z "},"ऽ":{"ha":722,"x_min":47,"x_max":647,"o":"m 346 40 q 501 90 442 40 q 560 221 560 139 q 485 410 560 304 q 332 607 410 517 l 96 879 l 96 944 l 631 944 l 647 882 l 176 882 l 369 667 q 547 449 453 572 q 640 221 640 325 q 561 45 640 117 q 333 -26 482 -26 q 181 -4 261 -26 q 47 51 101 18 l 75 121 q 200 63 125 86 q 346 40 275 40 z "},"ा":{"ha":428,"x_min":-15,"x_max":443,"o":"m 174 0 l 174 879 l 4 879 l -15 944 l 421 944 l 443 879 l 254 879 l 254 -22 l 174 0 z "},"ि":{"ha":428,"x_min":-15,"x_max":1049,"o":"m 408 1240 q 252 1192 306 1240 q 199 1072 199 1144 q 217 992 199 1025 q 249 944 235 958 l 421 944 l 443 879 l 254 879 l 254 -22 l 174 0 l 174 879 l 4 879 l -15 944 l 161 944 q 133 999 147 965 q 118 1075 118 1032 q 195 1242 118 1178 q 406 1307 272 1307 q 772 1208 579 1307 q 1049 1043 965 1108 l 1013 994 q 735 1153 908 1065 q 408 1240 563 1240 z "},"ी":{"ha":428,"x_min":-301,"x_max":440,"o":"m -253 983 q -286 1049 -271 1013 q -301 1128 -301 1086 q -247 1256 -301 1204 q -108 1307 -192 1307 q 126 1178 42 1307 q 242 944 210 1049 l 418 944 l 440 879 l 251 879 l 251 -22 l 171 0 l 171 879 l 1 879 l -19 944 l 161 944 q 78 1122 143 1004 q -106 1240 13 1240 q -196 1208 -162 1240 q -229 1126 -229 1175 q -221 1072 -229 1100 q -194 1015 -212 1044 l -253 983 z "},"ु":{"ha":0,"x_min":-532,"x_max":19,"o":"m -194 -349 q -90 -310 -125 -349 q -56 -218 -56 -271 q -93 -127 -56 -165 q -194 -89 -131 -89 l -261 -89 l -261 -25 l -183 -25 q -43 -76 -106 -25 q 19 -218 19 -128 q -44 -360 19 -308 q -196 -411 -108 -411 q -378 -352 -292 -411 q -532 -189 -465 -293 l -481 -156 q -346 -294 -412 -240 q -194 -349 -279 -349 z "},"ू":{"ha":0,"x_min":-406,"x_max":146,"o":"m -193 -89 q -297 -128 -262 -89 q -332 -218 -332 -167 q -294 -310 -332 -271 q -193 -349 -257 -349 l -125 -349 l -125 -411 l -204 -411 q -343 -360 -281 -411 q -406 -218 -406 -310 q -342 -77 -406 -129 q -190 -25 -279 -25 q -8 -85 -94 -25 q 146 -249 79 -144 l 94 -282 q -41 -143 25 -197 q -193 -89 -107 -89 z "},"ृ":{"ha":0,"x_min":-446,"x_max":-139,"o":"m -232 -349 q -190 -344 -210 -349 q -151 -335 -171 -340 l -139 -396 q -191 -407 -162 -403 q -247 -411 -219 -411 q -385 -360 -325 -411 q -446 -218 -446 -308 q -383 -76 -446 -128 q -247 -25 -319 -25 l -165 -25 l -165 -89 l -232 -89 q -332 -124 -292 -89 q -372 -218 -372 -158 q -334 -313 -372 -278 q -232 -349 -296 -349 z "},"ॄ":{"ha":0,"x_min":-367,"x_max":-171,"o":"m -367 -139 q -322 -50 -367 -75 q -228 -25 -276 -25 l -171 -25 l -171 -82 l -217 -82 q -271 -97 -247 -82 q -294 -137 -294 -111 q -271 -176 -294 -162 q -217 -190 -247 -190 l -172 -190 l -210 -243 q -274 -258 -251 -243 q -297 -297 -297 -272 q -278 -337 -297 -322 q -212 -351 -260 -351 l -171 -351 l -201 -407 l -228 -407 q -322 -383 -276 -407 q -367 -297 -367 -358 q -350 -249 -367 -271 q -311 -217 -333 -226 q -347 -188 -328 -211 q -367 -139 -367 -165 z "},"ॅ":{"ha":0,"x_min":24,"x_max":579,"o":"m 524 1285 l 579 1253 q 462 1115 532 1161 q 303 1068 392 1068 q 141 1115 211 1068 q 24 1253 71 1161 l 79 1285 q 176 1168 118 1207 q 303 1129 235 1129 q 426 1168 369 1129 q 524 1285 483 1207 z "},"ॆ":{"ha":0,"x_min":-633,"x_max":-161,"o":"m -401 1164 q -227 1105 -293 1163 q -161 968 -161 1047 l -161 915 l -242 915 l -242 968 q -281 1058 -242 1021 q -393 1096 -319 1096 q -565 1149 -497 1096 q -633 1286 -633 1203 l -633 1307 l -556 1286 q -512 1199 -556 1233 q -401 1164 -469 1164 z "},"े":{"ha":0,"x_min":-617,"x_max":-157,"o":"m -157 914 l -244 914 l -617 1256 l -556 1303 l -157 914 z "},"ै":{"ha":0,"x_min":-687,"x_max":-182,"o":"m -182 944 l -257 944 l -315 1007 q -439 1103 -386 1086 q -551 1119 -492 1119 l -669 1119 l -687 1188 l -556 1188 q -413 1167 -478 1188 q -272 1050 -349 1146 l -375 1379 l -299 1413 l -182 944 z "},"ॉ":{"ha":428,"x_min":-64,"x_max":490,"o":"m 435 1285 l 490 1253 q 374 1115 443 1161 q 214 1068 304 1068 q 53 1115 122 1068 q -64 1253 -17 1161 l -8 1285 q 88 1168 31 1207 q 214 1129 146 1129 q 339 1168 282 1129 q 435 1285 396 1207 m 174 0 l 174 879 l 4 879 l -15 944 l 421 944 l 443 879 l 254 879 l 254 -22 l 174 0 z "},"ॊ":{"ha":428,"x_min":-219,"x_max":443,"o":"m 13 1164 q 188 1105 122 1163 q 254 968 254 1047 l 254 944 l 421 944 l 443 879 l 254 879 l 254 -22 l 174 0 l 174 879 l 4 879 l -15 944 l 174 944 l 174 968 q 134 1058 174 1021 q 22 1096 94 1096 q -151 1149 -82 1096 q -219 1286 -219 1203 l -219 1307 l -142 1286 q -99 1199 -142 1233 q 13 1164 -56 1164 z "},"ो":{"ha":428,"x_min":-179,"x_max":443,"o":"m 174 0 l 174 879 l 4 879 l -15 944 l 160 944 l -179 1256 l -117 1303 l 249 944 l 421 944 l 443 879 l 254 879 l 254 -22 l 174 0 z "},"ौ":{"ha":428,"x_min":-260,"x_max":443,"o":"m 174 0 l 174 879 l 4 879 l -15 944 l 171 944 l 113 1007 q -12 1102 40 1085 q -124 1119 -64 1119 l -242 1119 l -260 1188 l -128 1188 q 15 1167 -50 1188 q 156 1050 79 1146 l 53 1379 l 129 1413 l 246 944 l 421 944 l 443 879 l 254 879 l 254 -22 l 174 0 z "},"ॏ":{"ha":428,"x_min":-272,"x_max":443,"o":"m -49 1085 l 81 1085 q 133 1082 110 1085 q 174 1075 156 1079 q 152 1124 168 1103 q 103 1149 136 1144 q -30 1210 7 1161 q -67 1331 -67 1260 l -67 1351 l 8 1331 q 32 1249 8 1279 q 99 1214 56 1219 q 217 1148 182 1200 q 253 1013 253 1096 l 253 944 l 421 944 l 443 879 l 254 879 l 254 -22 l 174 0 l 174 879 l 4 879 l -15 944 l 178 944 q 163 1003 178 985 q 100 1021 147 1021 l -40 1021 q -210 1072 -149 1021 q -272 1203 -272 1124 l -272 1222 l -199 1203 q -154 1117 -199 1150 q -49 1085 -110 1085 z "},"्":{"ha":0,"x_min":-303,"x_max":24,"o":"m -19 -407 l -303 -153 l -247 -94 l 24 -362 l -19 -407 z "},"ॖ":{"ha":0,"x_min":24,"x_max":579,"o":"m 524 -60 l 579 -92 q 462 -229 532 -183 q 303 -275 392 -275 q 141 -229 211 -275 q 24 -92 71 -183 l 79 -60 q 176 -176 118 -137 q 303 -215 235 -215 q 426 -176 369 -215 q 524 -60 483 -137 z "},"ॗ":{"ha":0,"x_min":24,"x_max":701,"o":"m 363 -249 q 209 -214 286 -249 q 85 -93 132 -179 q 113 -76 99 -85 q 140 -61 126 -68 q 244 -160 181 -133 q 363 -187 308 -187 q 481 -160 418 -187 q 586 -61 544 -133 q 614 -76 600 -68 q 642 -93 628 -85 q 517 -214 594 -179 q 363 -249 439 -249 m 364 -378 q 176 -340 268 -378 q 24 -218 85 -301 l 79 -186 q 206 -283 122 -247 q 364 -318 289 -318 q 521 -284 439 -318 q 646 -186 603 -250 l 701 -218 q 551 -341 643 -304 q 364 -378 460 -378 z "},"ॎ":{"ha":424,"x_min":171,"x_max":440,"o":"m 171 0 l 171 944 l 418 944 l 440 879 l 251 879 l 251 -22 l 171 0 z "},"ॵ":{"ha":1589,"x_min":96,"x_max":1604,"o":"m 943 0 l 943 454 l 556 454 q 643 364 611 419 q 675 249 675 308 q 594 54 675 131 q 357 -22 514 -22 q 207 2 275 -22 q 96 57 139 26 l 113 126 q 226 68 163 92 q 361 44 289 44 q 526 99 461 44 q 590 246 590 153 q 543 385 590 328 q 413 453 496 443 q 365 456 390 456 q 314 457 340 457 l 226 457 l 203 515 l 329 515 q 508 567 446 515 q 569 714 569 618 q 522 842 569 789 q 376 896 474 896 q 242 870 306 896 q 125 803 178 844 l 113 874 q 226 937 157 910 q 378 964 294 964 q 590 888 526 964 q 654 713 654 813 q 624 603 654 656 q 539 517 593 551 l 943 517 l 943 879 l 775 879 l 754 944 l 1338 944 q 1322 1003 1338 985 q 1260 1021 1307 1021 l 1119 1021 q 949 1072 1011 1021 q 888 1203 888 1124 l 888 1222 l 961 1203 q 1006 1117 961 1150 q 1111 1085 1050 1085 l 1240 1085 q 1292 1082 1269 1085 q 1333 1075 1315 1079 q 1312 1124 1328 1103 q 1263 1149 1296 1144 q 1130 1210 1167 1161 q 1093 1331 1093 1260 l 1093 1351 l 1168 1331 q 1192 1249 1168 1279 q 1258 1214 1215 1219 q 1381 1148 1347 1201 q 1414 1013 1414 1094 q 1413 978 1414 996 q 1413 944 1413 961 l 1583 944 l 1604 879 l 1415 879 l 1415 -22 l 1335 0 l 1335 879 l 1024 879 l 1024 -22 l 943 0 z "},"ॐ":{"ha":1176,"x_min":96,"x_max":1154,"o":"m 782 1142 q 799 1186 782 1168 q 843 1204 817 1204 q 888 1186 869 1204 q 906 1142 906 1168 q 888 1098 906 1115 q 843 1081 869 1081 q 799 1098 817 1081 q 782 1142 782 1115 m 1064 1131 l 1119 1099 q 1003 960 1072 1006 q 843 914 933 914 q 681 960 751 914 q 564 1099 611 1006 l 619 1131 q 717 1014 658 1053 q 843 975 775 975 q 967 1014 911 975 q 1064 1131 1024 1053 m 654 713 q 615 585 654 650 q 493 490 575 519 q 556 465 528 481 q 603 426 583 449 q 701 501 636 464 q 856 538 765 538 q 1074 454 993 538 q 1154 254 1154 371 q 1059 47 1154 122 q 867 -28 964 -28 l 846 36 q 1000 98 933 36 q 1067 256 1067 160 q 1007 408 1067 346 q 858 469 947 469 q 728 438 783 469 q 642 371 672 406 q 667 308 658 340 q 675 249 675 276 q 594 54 675 131 q 357 -22 514 -22 q 207 2 275 -22 q 96 57 139 26 l 113 126 q 226 68 163 92 q 361 44 289 44 q 526 99 461 44 q 590 246 590 153 q 531 398 590 339 q 354 457 471 457 l 226 457 l 203 515 l 360 515 q 517 575 464 515 q 569 714 569 635 q 519 842 569 789 q 376 896 468 896 q 242 870 306 896 q 125 803 178 844 l 113 874 q 226 937 157 910 q 378 964 294 964 q 590 888 526 964 q 654 713 654 813 z "},"॑":{"ha":0,"x_min":32,"x_max":108,"o":"m 94 1054 l 44 1054 l 32 1304 l 108 1304 l 94 1054 z "},"॒":{"ha":0,"x_min":24,"x_max":747,"o":"m 747 -185 l 43 -185 l 24 -121 l 726 -121 l 747 -185 z "},"॓":{"ha":0,"x_min":31,"x_max":207,"o":"m 207 1054 l 153 1054 l 31 1304 l 122 1304 l 207 1054 z "},"॔":{"ha":0,"x_min":31,"x_max":207,"o":"m 83 1054 l 31 1054 l 114 1304 l 207 1304 l 83 1054 z "},"ॕ":{"ha":0,"x_min":24,"x_max":601,"o":"m 528 1333 l 583 1301 q 467 1163 536 1210 q 307 1117 397 1117 q 145 1163 215 1117 q 28 1301 75 1210 l 83 1333 q 181 1217 122 1256 q 307 1178 239 1178 q 431 1217 375 1178 q 528 1333 488 1256 m 601 1008 l 42 1008 l 24 1067 l 582 1067 l 601 1008 z "},"ॶ":{"ha":1197,"x_min":96,"x_max":1214,"o":"m 357 -22 q 207 2 275 -22 q 96 57 139 26 l 113 126 q 226 68 163 92 q 361 44 289 44 q 526 99 461 44 q 590 246 590 153 q 531 398 590 339 q 354 457 471 457 l 226 457 l 203 515 l 356 515 q 515 575 461 515 q 569 714 569 635 q 522 842 569 789 q 376 896 474 896 q 242 870 306 896 q 125 803 178 844 l 113 874 q 226 937 157 910 q 378 964 294 964 q 590 888 526 964 q 654 713 654 813 q 624 603 654 656 q 539 517 593 551 l 943 517 l 943 879 l 775 879 l 754 944 l 1192 944 l 1214 879 l 1024 879 l 1024 -22 l 943 0 l 943 454 l 556 454 q 643 364 611 419 q 675 249 675 308 q 594 54 675 131 q 357 -22 514 -22 m 926 -60 l 982 -92 q 865 -229 935 -183 q 706 -275 794 -275 q 544 -229 614 -275 q 426 -92 474 -183 l 482 -60 q 579 -176 521 -137 q 706 -215 638 -215 q 829 -176 772 -215 q 926 -60 886 -137 z "},"ॷ":{"ha":1197,"x_min":96,"x_max":1214,"o":"m 943 0 l 943 454 l 556 454 q 643 364 611 419 q 675 249 675 308 q 594 54 675 131 q 357 -22 514 -22 q 207 2 275 -22 q 96 57 139 26 l 113 126 q 226 68 163 92 q 361 44 289 44 q 526 99 461 44 q 590 246 590 153 q 542 386 590 329 q 408 453 493 443 q 363 456 386 454 q 313 457 339 457 l 226 457 l 203 515 l 311 515 q 503 565 436 515 q 569 714 569 614 q 522 842 569 789 q 376 896 474 896 q 242 870 306 896 q 125 803 178 844 l 113 874 q 226 937 157 910 q 378 964 294 964 q 590 888 526 964 q 654 713 654 813 q 624 603 654 656 q 539 517 593 551 l 943 517 l 943 879 l 775 879 l 754 944 l 1192 944 l 1214 879 l 1024 879 l 1024 -22 l 943 0 m 671 -249 q 517 -214 594 -249 q 393 -93 440 -179 q 421 -76 407 -85 q 449 -61 435 -68 q 553 -160 489 -133 q 671 -187 617 -187 q 790 -160 726 -187 q 894 -61 853 -133 q 922 -76 908 -68 q 950 -93 936 -85 q 825 -214 903 -179 q 671 -249 747 -249 m 672 -378 q 485 -340 576 -378 q 332 -218 393 -301 l 388 -186 q 514 -283 431 -247 q 672 -318 597 -318 q 829 -284 747 -318 q 954 -186 911 -250 l 1010 -218 q 860 -341 951 -304 q 672 -378 768 -378 z "},"क़":{"ha":1224,"x_min":-15,"x_max":1239,"o":"m 151 426 q 213 272 151 333 q 365 211 275 211 q 500 254 451 211 q 574 340 549 297 l 574 511 q 500 597 549 554 q 365 640 451 640 q 215 579 278 640 q 151 426 153 518 m 1081 426 q 1017 579 1081 518 q 867 640 954 640 q 728 594 778 640 q 654 506 678 547 l 654 -22 l 574 0 l 574 228 q 490 169 542 196 q 369 143 439 143 q 153 217 243 143 q 63 425 63 292 q 149 631 63 554 q 369 708 236 708 q 490 681 439 708 q 574 621 542 653 l 574 879 l 4 879 l -15 944 l 1218 944 l 1239 879 l 654 879 l 654 615 q 739 679 686 650 q 864 708 792 708 q 1083 631 996 708 q 1169 425 1169 554 q 1083 219 1169 294 q 883 143 996 143 l 867 208 q 1022 272 964 208 q 1081 426 1081 336 m 168 -40 q 186 4 168 -14 q 231 22 204 22 q 275 4 257 22 q 293 -40 293 -14 q 275 -83 293 -65 q 231 -101 257 -101 q 186 -83 204 -101 q 168 -40 168 -65 z "},"ख़":{"ha":1258,"x_min":-15,"x_max":1274,"o":"m 550 472 q 626 649 550 576 q 821 722 701 722 q 924 702 878 722 q 1004 650 971 682 l 1004 879 l 401 879 q 456 778 438 838 q 474 663 474 718 q 410 477 474 561 q 233 371 346 393 q 347 153 240 263 q 611 43 453 43 q 869 127 765 43 q 999 294 974 211 q 920 243 964 264 q 821 222 876 222 q 628 293 707 222 q 550 472 550 364 m 1004 472 q 953 602 1004 547 q 821 657 903 657 q 688 603 740 657 q 635 472 635 550 q 686 340 635 393 q 821 288 738 288 q 954 340 904 288 q 1004 472 1004 393 m 1004 0 l 1004 161 q 852 34 953 90 q 611 -22 751 -22 q 285 103 406 -22 q 157 368 164 228 l 113 368 q 82 381 93 368 q 71 411 71 393 q 104 494 71 454 q 186 535 138 535 q 215 519 203 535 q 231 482 228 504 l 235 447 q 347 524 301 465 q 392 663 392 582 q 365 785 392 721 q 296 879 339 850 l 4 879 l -15 944 l 1253 944 l 1274 879 l 1085 879 l 1085 -22 l 1004 0 m 64 33 q 81 78 64 60 q 125 96 99 96 q 169 78 151 96 q 188 33 188 60 q 169 -9 188 8 q 125 -26 151 -26 q 81 -9 99 -26 q 64 33 64 8 z "},"ग़":{"ha":831,"x_min":-15,"x_max":847,"o":"m 257 879 l 257 313 q 247 268 257 285 q 218 251 238 251 q 123 294 163 251 q 83 379 83 336 q 94 413 83 400 q 128 426 106 426 l 176 426 l 176 879 l 4 879 l -15 944 l 825 944 l 847 879 l 658 879 l 658 -22 l 578 0 l 578 879 l 257 879 m 163 32 q 180 76 163 58 q 224 94 197 94 q 268 76 250 94 q 286 32 286 58 q 268 -10 286 8 q 224 -28 250 -28 q 180 -10 197 -28 q 163 32 163 8 z "},"ज़":{"ha":1026,"x_min":-15,"x_max":1042,"o":"m 282 114 q 131 138 199 114 q 19 192 64 161 l 38 264 q 149 204 86 226 q 282 182 211 182 q 440 236 382 182 q 497 379 497 290 q 438 517 497 465 q 285 568 379 568 l 190 568 l 167 636 l 774 636 l 774 879 l 4 879 l -15 944 l 1021 944 l 1042 879 l 853 879 l 853 -22 l 774 0 l 774 568 l 492 568 q 558 490 533 542 q 582 379 582 439 q 498 182 582 250 q 282 114 414 114 m 224 -40 q 242 4 224 -14 q 286 22 260 22 q 331 4 313 22 q 349 -40 349 -14 q 331 -83 349 -65 q 286 -100 313 -100 q 242 -83 260 -100 q 224 -40 224 -65 z "},"ड़":{"ha":736,"x_min":-15,"x_max":751,"o":"m 381 40 q 538 84 479 40 q 597 201 597 128 q 551 317 597 269 q 421 364 504 364 l 286 364 q 142 414 206 364 q 79 540 79 464 q 140 669 79 624 q 289 715 200 715 l 514 715 l 514 879 l 4 879 l -15 944 l 731 944 l 751 879 l 594 879 l 594 649 l 279 649 q 193 616 225 649 q 161 540 161 583 q 194 463 161 494 q 282 431 228 431 l 408 431 q 604 372 529 431 q 679 206 679 314 q 606 42 679 110 q 381 -26 533 -26 q 213 -1 296 -26 q 90 53 131 24 l 107 125 q 232 66 157 90 q 381 40 307 42 m 322 -160 q 340 -115 322 -133 q 383 -97 358 -97 q 428 -115 410 -97 q 446 -160 446 -133 q 428 -203 446 -186 q 383 -221 410 -221 q 340 -203 358 -221 q 322 -160 322 -186 z "},"ढ़":{"ha":869,"x_min":-15,"x_max":885,"o":"m 486 43 q 431 114 456 65 q 407 203 407 163 q 464 342 407 283 q 608 400 521 400 q 757 347 701 400 q 813 214 813 293 q 722 44 813 114 q 497 -25 632 -25 q 209 53 338 -25 q 81 326 81 131 q 206 590 81 497 q 514 682 332 682 l 606 682 l 606 879 l 4 879 l -15 944 l 864 944 l 885 879 l 688 879 l 688 614 l 514 614 q 263 537 358 614 q 167 326 167 460 q 258 111 167 178 q 486 43 349 44 m 488 201 q 515 113 488 150 q 588 54 542 75 q 697 117 661 72 q 733 211 733 161 q 704 292 733 256 q 615 328 675 328 q 522 292 557 328 q 488 201 488 257 m 436 -160 q 453 -115 436 -133 q 497 -97 471 -97 q 542 -115 524 -97 q 560 -160 560 -133 q 542 -203 560 -186 q 497 -221 524 -221 q 453 -203 471 -221 q 436 -160 436 -186 z "},"फ़":{"ha":1276,"x_min":-15,"x_max":1293,"o":"m 429 317 q 574 370 521 317 q 628 511 628 424 l 628 879 l 214 879 l 214 528 q 269 374 214 432 q 429 317 325 317 m 628 0 l 628 325 q 543 269 597 290 q 425 247 489 247 q 211 324 289 247 q 133 538 133 400 l 133 879 l 4 879 l -15 944 l 1271 944 l 1293 879 l 710 879 l 710 606 q 794 668 742 639 q 917 697 846 697 q 1135 620 1049 697 q 1222 414 1222 543 q 1135 208 1222 283 q 936 132 1047 132 l 921 196 q 1076 260 1018 196 q 1135 414 1135 324 q 1071 567 1135 507 q 921 628 1007 628 q 782 583 832 628 q 710 496 732 538 l 710 -22 l 628 0 m 210 7 q 228 51 210 33 q 272 69 246 69 q 317 51 299 69 q 335 7 335 33 q 317 -35 335 -17 q 272 -53 299 -53 q 228 -35 246 -53 q 210 7 210 -17 z "},"य़":{"ha":851,"x_min":-15,"x_max":867,"o":"m 597 0 l 597 326 q 510 267 567 288 q 390 247 454 247 q 180 326 268 247 q 92 504 92 404 l 108 524 q 187 588 151 536 q 222 717 222 640 q 195 819 222 775 q 119 879 168 863 l 4 879 l -15 944 l 846 944 l 867 879 l 678 879 l 678 -22 l 597 0 m 390 317 q 549 372 501 317 q 597 544 597 428 l 597 879 l 231 879 q 279 814 258 860 q 300 708 300 768 q 267 576 300 642 q 169 478 235 511 q 251 364 189 407 q 390 317 313 321 m 140 33 q 158 78 140 60 q 201 96 175 96 q 246 78 228 96 q 264 33 264 60 q 246 -9 264 8 q 201 -26 228 -26 q 158 -9 175 -26 q 140 33 140 8 z "},"ॠ":{"ha":1179,"x_min":-15,"x_max":1194,"o":"m 529 0 l 529 351 q 341 250 436 300 q 151 149 246 200 l 110 207 l 518 428 q 349 572 422 543 q 215 601 275 601 q 153 589 189 601 q 88 563 118 576 l 53 631 q 132 657 83 644 q 206 669 181 669 q 353 646 269 669 q 529 510 438 622 l 529 879 l 4 879 l -15 944 l 1174 944 l 1194 879 l 610 879 l 610 454 l 638 454 q 810 496 749 454 q 894 572 872 538 q 869 606 881 586 q 857 654 857 626 q 872 694 857 681 q 911 708 888 708 q 982 688 942 708 q 1022 629 1022 668 q 1014 594 1022 613 q 985 558 1006 576 q 1071 447 1040 503 q 1101 326 1101 390 q 1015 186 1101 242 q 928 85 928 131 q 951 47 928 56 q 1006 38 975 38 l 1018 38 l 1031 -19 l 1003 -19 q 942 -33 965 -19 q 918 -71 918 -46 q 940 -109 918 -96 q 1000 -122 961 -122 l 1042 -122 l 1011 -182 l 986 -182 q 890 -158 936 -182 q 844 -71 844 -133 q 856 -22 844 -43 q 888 10 868 -1 q 861 40 872 19 q 850 86 850 61 q 936 208 850 154 q 1022 331 1022 263 q 999 422 1022 379 q 935 514 976 465 q 834 432 908 474 q 664 390 760 390 l 610 390 l 610 -22 l 529 0 z "},"ॡ":{"ha":1167,"x_min":-15,"x_max":1182,"o":"m 806 68 q 842 149 806 124 q 921 179 878 175 l 921 429 q 876 549 915 499 q 765 599 838 599 q 649 540 690 599 q 607 389 607 481 l 607 217 l 526 242 l 526 389 q 482 538 526 481 q 350 596 438 596 q 224 544 272 596 q 176 425 176 493 q 218 227 176 315 q 328 1 260 139 l 260 -25 q 146 206 197 97 q 94 435 94 314 q 165 597 94 526 q 350 667 235 667 q 475 638 419 667 q 564 557 531 608 q 649 638 596 610 q 767 667 701 667 q 858 647 818 667 q 921 606 899 628 l 921 879 l 4 879 l -15 944 l 1161 944 l 1182 879 l 1001 879 l 1001 125 l 957 125 q 903 111 926 125 q 879 71 879 97 q 903 31 879 44 q 957 17 926 17 l 1000 17 l 964 -35 q 900 -50 924 -35 q 876 -89 876 -65 q 895 -130 876 -115 q 961 -144 914 -144 l 1001 -144 l 972 -200 l 946 -200 q 851 -176 897 -200 q 806 -89 806 -151 q 823 -41 806 -62 q 863 -10 840 -19 q 826 19 846 -4 q 806 68 806 42 z "},"ॢ":{"ha":0,"x_min":24,"x_max":575,"o":"m 335 -192 l 335 -283 l 264 -265 l 264 -192 q 234 -112 263 -136 q 171 -87 206 -87 q 117 -110 140 -87 q 94 -164 94 -133 q 127 -289 94 -219 q 182 -406 160 -358 l 118 -424 q 51 -290 79 -353 q 24 -160 24 -228 q 67 -66 24 -106 q 171 -25 110 -26 q 249 -49 210 -25 q 299 -106 288 -72 q 349 -50 313 -75 q 425 -25 385 -25 q 533 -65 490 -25 q 575 -160 575 -106 q 540 -260 575 -217 q 506 -342 506 -304 q 519 -364 506 -358 q 551 -369 533 -369 l 564 -369 l 549 -424 l 531 -424 q 469 -407 503 -424 q 435 -356 435 -390 q 469 -256 435 -300 q 503 -164 503 -212 q 480 -109 503 -131 q 425 -87 457 -87 q 363 -115 390 -87 q 335 -192 335 -142 z "},"ॣ":{"ha":0,"x_min":24,"x_max":575,"o":"m 335 -192 l 335 -283 l 264 -265 l 264 -192 q 235 -112 264 -137 q 174 -87 207 -87 q 119 -109 143 -87 q 94 -164 94 -131 q 124 -283 94 -219 q 182 -406 154 -346 l 118 -424 q 51 -290 79 -353 q 24 -160 24 -228 q 67 -65 24 -104 q 171 -25 110 -25 q 249 -49 210 -25 q 299 -106 288 -72 q 349 -50 313 -75 q 425 -25 385 -25 q 533 -65 490 -25 q 575 -160 575 -106 q 540 -260 575 -217 q 506 -342 506 -303 q 519 -364 506 -358 q 551 -369 533 -369 l 564 -369 l 549 -424 l 533 -424 q 495 -431 513 -424 q 478 -457 478 -437 q 497 -487 478 -479 q 539 -496 517 -496 l 564 -496 l 540 -547 l 522 -547 q 447 -527 485 -547 q 408 -457 408 -507 q 419 -416 408 -433 q 446 -389 429 -399 q 438 -374 440 -382 q 435 -356 435 -365 q 469 -256 435 -299 q 503 -164 503 -212 q 480 -109 503 -131 q 425 -87 457 -87 q 363 -115 390 -87 q 335 -192 335 -142 z "},"।":{"ha":469,"x_min":194,"x_max":275,"o":"m 275 1049 l 275 -22 l 194 0 l 194 1069 l 275 1049 z "},"॥":{"ha":865,"x_min":194,"x_max":671,"o":"m 671 1049 l 671 -22 l 589 0 l 589 1069 l 671 1049 m 275 1049 l 275 -22 l 194 0 l 194 1069 l 275 1049 z "},"०":{"ha":967,"x_min":92,"x_max":875,"o":"m 483 864 q 763 749 651 864 q 875 471 875 633 q 763 194 875 310 q 483 79 651 79 q 203 194 314 79 q 92 471 92 310 q 203 749 92 633 q 483 864 314 864 m 483 150 q 706 243 621 150 q 792 471 792 336 q 707 700 792 607 q 483 793 622 793 q 260 700 346 793 q 175 471 175 607 q 260 243 175 336 q 483 150 346 150 z "},"१":{"ha":518,"x_min":76,"x_max":464,"o":"m 78 433 l 250 569 q 144 644 192 593 q 96 768 96 696 q 147 908 96 851 q 275 964 197 964 q 413 910 363 964 q 464 778 464 856 q 426 653 464 714 q 297 518 389 593 l 157 403 q 156 399 157 401 q 156 396 156 397 l 431 0 l 346 -25 l 76 397 q 77 415 76 407 q 78 433 78 424 m 178 768 q 217 672 178 708 q 303 617 256 635 q 365 692 344 656 q 385 765 385 729 q 356 857 385 822 q 279 892 326 892 q 205 856 232 892 q 178 768 178 819 z "},"२":{"ha":678,"x_min":89,"x_max":606,"o":"m 606 678 q 524 476 606 561 q 308 375 442 390 l 554 0 l 474 -25 q 351 172 413 72 q 229 369 290 271 l 175 369 q 144 383 154 369 q 135 414 135 397 q 163 497 135 457 q 235 536 192 536 q 267 521 253 536 q 288 483 281 506 l 300 444 q 458 515 393 450 q 522 675 522 581 q 471 830 522 763 q 319 897 419 897 q 194 865 249 897 q 125 824 139 833 l 89 883 q 154 924 90 883 q 321 964 218 964 q 541 869 476 964 q 606 678 606 774 z "},"३":{"ha":696,"x_min":68,"x_max":619,"o":"m 360 964 q 538 902 474 964 q 601 753 601 840 q 563 637 601 688 q 469 569 524 586 q 578 492 538 551 q 619 358 619 433 q 535 187 619 253 q 318 121 451 121 q 297 121 313 121 q 276 122 282 121 l 417 -53 l 364 -89 l 186 139 q 108 191 147 156 q 68 269 68 226 q 80 300 68 286 q 114 314 92 314 q 188 288 153 314 q 246 200 224 261 q 284 193 264 194 q 321 192 304 192 q 476 240 417 193 q 536 358 536 288 q 483 483 536 426 q 304 539 429 539 l 196 539 l 176 600 l 313 600 q 465 641 411 600 q 519 750 519 682 q 474 855 519 813 q 356 897 429 897 q 229 876 285 897 q 121 814 174 856 l 108 881 q 217 940 153 917 q 360 964 281 964 z "},"४":{"ha":933,"x_min":56,"x_max":876,"o":"m 467 589 q 652 790 554 689 q 824 964 750 892 l 876 910 q 699 730 797 833 q 517 531 600 626 q 642 350 592 439 q 693 186 693 261 q 633 33 693 90 q 467 -25 574 -25 q 299 33 360 -25 q 239 186 239 92 q 290 350 239 261 q 415 531 340 439 q 233 730 332 626 q 56 910 135 833 l 110 964 q 281 790 182 892 q 467 589 379 689 m 467 475 q 366 324 410 400 q 322 186 322 247 q 365 83 322 124 q 467 43 408 43 q 567 83 525 43 q 610 186 610 124 q 566 324 610 247 q 467 475 522 400 z "},"५":{"ha":650,"x_min":103,"x_max":632,"o":"m 421 43 q 519 74 485 43 q 554 161 554 104 q 530 288 554 226 q 479 383 506 349 q 441 377 461 379 q 399 375 421 375 q 183 449 263 375 q 103 665 103 522 l 103 944 l 182 944 l 182 656 q 240 497 182 550 q 403 443 299 443 q 417 443 407 443 q 431 444 426 443 q 415 476 421 460 q 410 507 410 492 q 428 550 411 531 q 472 569 444 569 q 544 544 513 569 q 575 486 575 518 q 568 451 575 469 q 542 414 561 432 q 605 294 578 368 q 632 163 632 221 q 583 31 632 83 q 422 -22 535 -22 q 358 -19 390 -22 q 289 -3 325 -15 l 311 60 q 366 47 342 50 q 421 43 390 43 z "},"६":{"ha":738,"x_min":99,"x_max":688,"o":"m 357 964 q 500 940 436 964 q 608 881 564 917 l 596 814 q 487 876 542 856 q 361 897 432 897 q 242 855 288 897 q 197 750 197 813 q 251 641 197 682 q 404 600 304 600 l 526 600 q 536 570 532 586 q 546 539 540 554 l 411 539 q 234 483 288 539 q 181 358 181 426 q 240 240 181 289 q 396 192 300 192 q 440 194 415 192 q 486 204 464 197 q 476 231 479 218 q 474 254 474 243 q 492 298 474 283 q 535 313 510 313 q 603 292 567 313 q 639 238 639 272 q 626 195 639 217 q 586 151 613 174 q 636 66 611 108 q 688 -19 661 24 q 655 -39 671 -29 q 624 -58 639 -49 l 532 110 q 524 124 528 117 q 518 139 521 132 q 461 125 496 129 q 399 121 426 121 q 182 187 265 121 q 99 358 99 253 q 139 492 99 433 q 247 569 179 551 q 154 637 193 586 q 115 753 115 688 q 178 902 115 840 q 357 964 242 964 z "},"७":{"ha":940,"x_min":53,"x_max":864,"o":"m 560 804 q 433 755 483 804 q 382 638 382 706 q 428 520 382 571 q 558 469 474 469 q 687 520 629 469 q 754 638 744 571 q 684 756 731 708 q 560 804 638 804 m 549 404 q 369 469 438 404 q 301 629 301 533 q 373 803 301 733 q 561 874 444 874 q 787 740 710 874 q 864 417 864 607 q 748 107 864 239 q 454 -25 632 -25 q 158 88 264 -25 q 53 397 53 200 l 133 397 q 218 138 133 232 q 460 44 303 44 q 688 148 588 44 q 788 414 788 251 q 785 469 788 440 q 779 526 783 497 q 684 440 747 476 q 549 404 621 404 z "},"८":{"ha":765,"x_min":76,"x_max":685,"o":"m 397 43 q 538 90 461 43 q 615 299 614 138 l 685 278 q 628 91 685 207 q 385 -25 572 -25 q 156 65 235 -25 q 76 274 76 156 q 197 633 76 443 q 467 964 318 824 l 515 904 q 263 592 364 765 q 161 281 161 418 q 229 110 161 178 q 397 43 297 43 z "},"९":{"ha":633,"x_min":81,"x_max":583,"o":"m 156 717 q 158 668 156 693 q 171 614 161 643 q 249 573 204 585 q 336 561 293 561 q 460 612 417 561 q 504 731 504 663 q 460 847 504 796 q 331 897 417 897 q 206 844 256 897 q 156 717 156 792 m 329 494 q 266 505 297 494 q 210 531 235 515 q 249 470 218 517 q 296 403 281 424 q 428 229 385 283 q 472 107 472 175 q 433 12 472 49 q 333 -36 394 -25 l 319 25 q 378 59 358 36 q 397 104 397 82 q 370 189 397 146 q 256 343 343 232 l 218 390 q 113 559 144 483 q 81 706 81 635 q 148 886 81 808 q 333 964 215 964 q 517 899 450 964 q 583 738 583 833 q 513 566 583 638 q 329 494 442 494 z "},"॰":{"ha":778,"x_min":72,"x_max":706,"o":"m 706 390 q 613 164 706 257 q 389 71 521 71 q 164 165 256 71 q 72 399 72 260 q 164 623 72 532 q 390 714 256 714 q 613 620 521 714 q 706 390 706 526 m 628 393 q 560 570 628 494 q 389 646 493 646 q 218 570 285 646 q 151 393 151 494 q 218 214 151 290 q 389 138 285 138 q 560 214 493 138 q 628 393 628 290 z "},"ॱ":{"ha":218,"x_min":47,"x_max":171,"o":"m 47 410 q 65 454 47 436 q 108 472 82 472 q 153 454 135 472 q 171 410 171 436 q 153 367 171 385 q 108 350 135 350 q 65 367 82 350 q 47 410 47 385 z "},"ॲ":{"ha":1197,"x_min":96,"x_max":1263,"o":"m 1207 1285 l 1263 1253 q 1146 1115 1215 1161 q 985 1068 1076 1068 q 823 1115 893 1068 q 706 1253 753 1161 l 761 1285 q 859 1168 801 1207 q 985 1129 917 1129 q 1110 1168 1053 1129 q 1207 1285 1167 1207 m 357 -22 q 207 2 275 -22 q 96 57 139 26 l 113 126 q 226 68 163 92 q 361 44 289 44 q 526 99 461 44 q 590 246 590 153 q 532 397 590 338 q 357 457 474 457 l 226 457 l 203 515 l 356 515 q 515 575 461 515 q 569 714 569 635 q 522 842 569 789 q 376 896 474 896 q 242 870 306 896 q 125 803 178 844 l 113 874 q 226 937 157 910 q 378 964 294 964 q 590 888 526 964 q 654 713 654 813 q 624 603 654 656 q 539 517 593 551 l 943 517 l 943 879 l 775 879 l 754 944 l 1192 944 l 1214 879 l 1024 879 l 1024 -22 l 943 0 l 943 454 l 556 454 q 643 364 611 419 q 675 249 675 308 q 594 54 675 131 q 357 -22 514 -22 z "},"ॳ":{"ha":1197,"x_min":96,"x_max":1214,"o":"m 357 -22 q 207 2 275 -22 q 96 57 139 26 l 113 126 q 226 68 163 92 q 361 44 289 44 q 526 99 461 44 q 590 246 590 153 q 532 397 590 338 q 357 457 474 457 l 226 457 l 203 515 l 360 515 q 517 575 464 515 q 569 714 569 635 q 522 842 569 789 q 376 896 474 896 q 242 870 306 896 q 125 803 178 844 l 113 874 q 226 937 157 910 q 378 964 294 964 q 590 888 526 964 q 654 713 654 813 q 624 603 654 656 q 539 517 593 551 l 943 517 l 943 879 l 775 879 l 754 944 l 944 944 l 944 1246 l 1022 1224 l 1022 944 l 1192 944 l 1214 879 l 1024 879 l 1024 -22 l 943 0 l 943 454 l 556 454 q 643 364 611 419 q 675 249 675 308 q 594 54 675 131 q 357 -22 514 -22 z "},"ॴ":{"ha":1589,"x_min":96,"x_max":1604,"o":"m 943 0 l 943 454 l 556 454 q 643 364 611 419 q 675 249 675 308 q 594 54 675 131 q 357 -22 514 -22 q 207 2 275 -22 q 96 57 139 26 l 113 126 q 226 68 163 92 q 361 44 289 44 q 526 99 461 44 q 590 246 590 153 q 532 397 590 338 q 357 457 474 457 l 226 457 l 203 515 l 360 515 q 517 575 464 515 q 569 714 569 635 q 522 842 569 789 q 376 896 474 896 q 242 870 306 896 q 125 803 178 844 l 113 874 q 226 937 157 910 q 378 964 294 964 q 590 888 526 964 q 654 713 654 813 q 624 603 654 656 q 539 517 593 551 l 943 517 l 943 879 l 775 879 l 754 944 l 1336 944 l 1336 1246 l 1414 1224 l 1414 944 l 1583 944 l 1604 879 l 1415 879 l 1415 -22 l 1335 0 l 1335 879 l 1024 879 l 1024 -22 l 943 0 z "},"ॹ":{"ha":1026,"x_min":-15,"x_max":1042,"o":"m 282 114 q 131 138 199 114 q 19 192 64 161 l 38 264 q 149 204 86 226 q 282 182 211 182 q 440 236 382 182 q 497 379 497 290 q 438 517 497 465 q 285 568 379 568 l 190 568 l 167 636 l 774 636 l 774 879 l 4 879 l -15 944 l 1021 944 l 1042 879 l 853 879 l 853 -22 l 774 0 l 774 568 l 492 568 q 558 490 533 542 q 582 379 582 439 q 498 182 582 250 q 282 114 414 114 m 333 -4 q 351 39 333 21 q 396 57 369 57 q 440 39 422 57 q 458 -4 458 21 q 440 -48 458 -31 q 396 -65 422 -65 q 351 -48 369 -65 q 333 -4 333 -31 m 110 -4 q 128 39 110 21 q 171 57 146 57 q 216 39 197 57 q 235 -4 235 21 q 216 -48 235 -31 q 171 -65 197 -65 q 128 -48 146 -65 q 110 -4 110 -31 m 218 -137 q 236 -93 218 -111 q 281 -75 254 -75 q 325 -93 307 -75 q 343 -137 343 -111 q 325 -181 343 -164 q 281 -199 307 -199 q 236 -181 254 -199 q 218 -137 218 -164 z "},"ॺ":{"ha":844,"x_min":-11,"x_max":868,"o":"m 599 0 l 599 326 q 511 267 568 288 q 390 247 454 247 q 181 326 268 247 q 93 504 93 404 l 110 524 q 188 588 153 536 q 222 717 222 640 q 196 819 222 775 q 119 879 169 863 l 8 879 l -11 944 l 846 944 l 868 879 l 678 879 l 678 -22 l 599 0 m 597 478 q 598 492 597 485 q 599 507 599 500 l 599 879 l 253 879 l 597 478 m 390 317 q 504 340 456 317 q 576 410 553 363 l 300 731 l 300 708 q 268 576 300 642 q 171 478 236 511 q 251 364 189 407 q 390 317 313 321 z "},"ॻ":{"ha":831,"x_min":-15,"x_max":847,"o":"m 257 879 l 257 313 q 247 268 257 285 q 218 251 238 251 q 123 294 163 251 q 83 379 83 336 q 94 413 83 400 q 128 426 106 426 l 176 426 l 176 879 l 4 879 l -15 944 l 825 944 l 847 879 l 658 879 l 658 -22 l 578 0 l 578 879 l 257 879 m 693 -185 l 136 -185 l 117 -121 l 672 -121 l 693 -185 z "},"ॼ":{"ha":1026,"x_min":-15,"x_max":1042,"o":"m 282 114 q 131 138 199 114 q 19 192 64 161 l 38 264 q 149 204 86 226 q 282 182 211 182 q 440 236 382 182 q 497 379 497 290 q 438 517 497 465 q 285 568 379 568 l 190 568 l 167 636 l 774 636 l 774 879 l 4 879 l -15 944 l 1021 944 l 1042 879 l 853 879 l 853 -22 l 774 0 l 774 568 l 492 568 q 558 490 533 542 q 582 379 582 439 q 498 182 582 250 q 282 114 414 114 m 874 -185 l 72 -185 l 51 -121 l 853 -121 l 874 -185 z "},"ॽ":{"ha":750,"x_min":89,"x_max":678,"o":"m 678 693 q 601 508 678 600 q 392 371 525 417 l 392 26 l 311 51 l 311 413 q 511 526 429 449 q 593 693 593 603 q 538 838 593 783 q 376 893 483 893 q 224 866 293 893 q 100 800 154 839 l 89 874 q 215 938 142 911 q 379 964 288 964 q 603 883 529 964 q 678 693 678 801 z "},"ॾ":{"ha":736,"x_min":-15,"x_max":751,"o":"m 381 40 q 538 84 479 40 q 597 201 597 128 q 551 317 597 269 q 421 364 504 364 l 286 364 q 142 414 206 364 q 79 540 79 464 q 140 669 79 624 q 289 715 200 715 l 514 715 l 514 879 l 4 879 l -15 944 l 731 944 l 751 879 l 594 879 l 594 649 l 279 649 q 193 616 225 649 q 161 540 161 583 q 194 463 161 494 q 282 431 228 431 l 408 431 q 604 372 529 431 q 679 206 679 314 q 606 42 679 110 q 381 -26 533 -26 q 213 -1 296 -26 q 90 53 131 24 l 107 125 q 232 66 157 90 q 381 40 307 42 m 675 -185 l 108 -185 l 88 -121 l 654 -121 l 675 -185 z "},"ॿ":{"ha":826,"x_min":-15,"x_max":843,"o":"m 574 0 l 574 228 q 490 169 542 196 q 369 143 439 143 q 153 217 243 143 q 63 425 63 292 q 149 631 63 554 q 369 708 236 708 q 490 682 439 708 q 574 624 542 656 l 574 879 l 4 879 l -15 944 l 821 944 l 843 879 l 654 879 l 654 -22 l 574 0 m 365 640 q 301 631 332 640 q 246 604 271 622 l 532 283 q 556 312 546 297 q 574 340 565 326 l 574 511 q 500 597 549 554 q 365 640 451 640 m 151 426 q 213 272 151 333 q 365 211 275 211 q 432 221 401 211 q 486 244 463 231 l 200 563 q 165 501 178 536 q 151 426 151 465 m 700 -185 l 104 -185 l 85 -121 l 679 -121 l 700 -185 z "}}}
